<?xml version="1.0" encoding="UTF-8"?>
<!DOCTYPE svg PUBLIC "-//W3C//DTD SVG 1.1//EN" "http://www.w3.org/Graphics/SVG/1.1/DTD/svg11.dtd">
<!-- Creator: CorelDRAW X7 -->
<svg xmlns="http://www.w3.org/2000/svg" xml:space="preserve" width="88.2126mm" height="17.6364mm" version="1.1" shape-rendering="geometricPrecision" text-rendering="geometricPrecision" image-rendering="optimizeQuality" fill-rule="evenodd" clip-rule="evenodd"
viewBox="0 0 4716 943"
 xmlns:xlink="http://www.w3.org/1999/xlink">
 <defs>
    <linearGradient id="id0" gradientUnits="userSpaceOnUse" x1="218.71" y1="834.281" x2="671.389" y2="55.8176">
     <stop offset="0" stop-opacity="1" stop-color="#D72430"/>
     <stop offset="1" stop-opacity="1" stop-color="#FDA259"/>
    </linearGradient>
 </defs>
 <g id="Layer_x0020_1">
  <metadata id="CorelCorpID_0Corel-Layer"/>
  <path fill="#474443" fill-rule="nonzero" d="M1511 574c0,55 -20,97 -59,128 -39,32 -93,47 -163,47 -64,0 -121,-12 -170,-36l0 -118c41,18 75,31 103,38 28,7 54,11 77,11 28,0 50,-5 65,-16 15,-11 22,-26 22,-48 0,-11 -3,-22 -10,-31 -6,-9 -16,-18 -29,-26 -13,-9 -39,-23 -78,-41 -36,-18 -64,-34 -82,-50 -19,-16 -33,-34 -44,-55 -11,-21 -17,-46 -17,-74 0,-54 18,-95 54,-126 36,-30 86,-45 150,-45 31,0 61,3 89,11 28,7 58,18 89,31l-41 99c-32,-13 -59,-22 -80,-27 -21,-6 -41,-8 -61,-8 -25,0 -43,5 -56,17 -13,11 -19,25 -19,44 0,11 2,21 7,29 6,8 14,16 25,24 12,8 39,22 81,42 56,27 95,54 116,81 20,27 31,60 31,99z"/>
  <path id="1" fill="#474443" fill-rule="nonzero" d="M1803 649c22,0 48,-5 79,-14l0 93c-31,14 -69,21 -115,21 -50,0 -87,-12 -109,-38 -23,-25 -35,-63 -35,-114l0 -221 -60 0 0 -53 69 -42 37 -97 80 0 0 97 128 0 0 95 -128 0 0 221c0,18 5,31 15,39 10,9 23,13 39,13z"/>
  <path id="2" fill="#474443" fill-rule="nonzero" d="M2267 741l-25 -63 -3 0c-21,27 -43,46 -65,56 -22,10 -51,15 -87,15 -44,0 -79,-12 -104,-38 -26,-25 -38,-61 -38,-107 0,-49 17,-85 51,-108 34,-23 85,-36 154,-39l80 -2 0 -20c0,-47 -24,-70 -72,-70 -36,0 -80,11 -129,33l-42 -84c53,-28 112,-42 176,-42 62,0 109,14 142,40 33,27 49,68 49,123l0 306 -87 0zm-37 -213l-49 2c-36,1 -63,7 -81,19 -18,13 -27,31 -27,56 0,35 20,53 61,53 29,0 52,-9 70,-26 17,-16 26,-38 26,-66l0 -38z"/>
  <path id="3" fill="#474443" fill-rule="nonzero" d="M2677 649c22,0 48,-5 79,-14l0 93c-32,14 -70,21 -115,21 -51,0 -87,-12 -110,-38 -23,-25 -34,-63 -34,-114l0 -221 -60 0 0 -53 69 -42 36 -97 80 0 0 97 129 0 0 95 -129 0 0 221c0,18 5,31 15,39 10,9 23,13 40,13z"/>
  <path id="4" fill="#474443" fill-rule="nonzero" d="M2843 163c0,-41 23,-62 68,-62 46,0 68,21 68,62 0,19 -5,34 -17,45 -11,11 -28,16 -51,16 -45,0 -68,-20 -68,-61zm131 578l-126 0 0 -460 126 0 0 460z"/>
  <path id="5" fill="#474443" fill-rule="nonzero" d="M3292 749c-143,0 -215,-78 -215,-235 0,-78 20,-138 58,-179 39,-41 95,-62 168,-62 53,0 100,10 143,31l-37 97c-20,-8 -38,-14 -55,-19 -17,-5 -34,-8 -51,-8 -65,0 -98,46 -98,139 0,90 33,134 98,134 24,0 46,-3 67,-9 20,-7 41,-17 61,-30l0 107c-20,13 -40,22 -61,27 -21,5 -47,7 -78,7z"/>
  <path id="6" fill="#474443" fill-rule="nonzero" d="M3830 741l-25 -63 -3 0c-21,27 -43,46 -65,56 -22,10 -52,15 -87,15 -45,0 -79,-12 -105,-38 -25,-25 -38,-61 -38,-107 0,-49 17,-85 52,-108 34,-23 85,-36 154,-39l79 -2 0 -20c0,-47 -23,-70 -71,-70 -37,0 -80,11 -129,33l-42 -84c53,-28 112,-42 176,-42 62,0 109,14 142,40 33,27 49,68 49,123l0 306 -87 0zm-38 -213l-48 2c-36,1 -64,7 -81,19 -18,13 -27,31 -27,56 0,35 20,53 61,53 29,0 52,-9 69,-26 18,-16 26,-38 26,-66l0 -38z"/>
  <polygon id="7" fill="#474443" fill-rule="nonzero" points="4171,741 4046,741 4046,101 4171,101 "/>
  <path id="8" fill="#474443" fill-rule="nonzero" d="M4237 281l137 0 87 259c7,22 13,49 15,80l3 0c3,-29 9,-55 17,-80l85 -259 135 0 -195 519c-17,47 -43,83 -76,107 -33,24 -71,36 -116,36 -21,0 -42,-3 -63,-7l0 -99c15,3 31,5 49,5 22,0 42,-7 58,-20 17,-14 30,-35 39,-62l8 -22 -183 -457z"/>
  <g id="_374467512">
   <path fill="url(#id0)" d="M60 221c124,-212 396,-284 609,-161 212,124 284,396 161,609 -124,212 -396,284 -609,161 -212,-124 -284,-396 -161,-609z"/>
   <circle fill="none" stroke="#FEFEFE" stroke-width="21.7262" cx="445" cy="445" r="392"/>
   <g>
    <g>
     <polygon fill="#FEFEFE" points="654,154 285,439 411,482 236,736 589,449 478,404 "/>
    </g>
   </g>
  </g>
 </g>
</svg>
