<?xml version="1.0" encoding="UTF-8"?>
<!DOCTYPE svg PUBLIC "-//W3C//DTD SVG 1.1//EN" "http://www.w3.org/Graphics/SVG/1.1/DTD/svg11.dtd">
<!-- Creator: CorelDRAW X8 -->
<svg xmlns="http://www.w3.org/2000/svg" xml:space="preserve" width="93.0159mm" height="17.6365mm" version="1.1" shape-rendering="geometricPrecision" text-rendering="geometricPrecision" image-rendering="optimizeQuality" fill-rule="evenodd" clip-rule="evenodd"
viewBox="0 0 2486 471"
 xmlns:xlink="http://www.w3.org/1999/xlink">
 <defs>
   <linearGradient id="id0" gradientUnits="userSpaceOnUse" x1="110.668" y1="414.803" x2="334.321" y2="30.1895">
    <stop offset="0" stop-opacity="1" stop-color="#D72430"/>
    <stop offset="1" stop-opacity="1" stop-color="#FDA259"/>
   </linearGradient>
 </defs>
 <g id="Layer_x0020_1">
  <metadata id="CorelCorpID_0Corel-Layer"/>
  <path fill="#474443" fill-rule="nonzero" d="M755 287c0,27 -9,49 -29,64 -19,16 -47,24 -81,24 -32,0 -61,-6 -85,-18l0 -60c20,9 37,16 51,19 14,4 27,6 38,6 15,0 25,-3 33,-8 7,-5 11,-13 11,-24 0,-6 -2,-11 -5,-16 -3,-4 -8,-9 -15,-13 -6,-4 -19,-11 -38,-20 -19,-9 -33,-17 -42,-25 -9,-8 -16,-17 -22,-28 -5,-10 -8,-23 -8,-37 0,-26 9,-47 27,-62 18,-16 43,-23 75,-23 15,0 30,2 44,5 15,4 29,9 45,16l-21 50c-16,-7 -29,-12 -39,-14 -11,-3 -21,-4 -31,-4 -12,0 -22,3 -28,8 -7,6 -10,13 -10,22 0,6 2,11 4,15 3,4 7,8 13,12 5,4 19,11 40,21 28,14 47,27 58,40 10,14 15,30 15,50z"/>
  <path id="1" fill="#474443" fill-rule="nonzero" d="M901 325c11,0 25,-3 40,-8l0 47c-16,7 -35,11 -58,11 -25,0 -43,-7 -54,-19 -12,-13 -17,-32 -17,-57l0 -111 -30 0 0 -27 34 -21 18 -48 40 0 0 49 64 0 0 47 -64 0 0 110c0,9 3,16 8,20 5,4 11,7 19,7z"/>
  <path id="2" fill="#474443" fill-rule="nonzero" d="M1133 370l-12 -31 -2 0c-10,14 -21,23 -32,28 -11,5 -26,8 -44,8 -22,0 -39,-7 -52,-19 -13,-13 -19,-31 -19,-54 0,-25 9,-43 26,-54 17,-12 42,-18 77,-19l40 -2 0 -10c0,-23 -12,-35 -36,-35 -18,0 -40,6 -65,17l-20 -42c26,-14 55,-21 87,-21 31,0 55,7 71,20 17,14 25,34 25,61l0 153 -44 0zm-18 -106l-25 1c-18,0 -31,4 -40,10 -9,6 -14,15 -14,27 0,18 11,27 31,27 14,0 26,-4 35,-13 8,-8 13,-19 13,-33l0 -19z"/>
  <path id="3" fill="#474443" fill-rule="nonzero" d="M1338 325c11,0 24,-3 40,-8l0 47c-16,7 -35,11 -58,11 -25,0 -43,-7 -55,-19 -11,-13 -17,-32 -17,-57l0 -111 -30 0 0 -27 35 -21 18 -48 40 0 0 49 64 0 0 47 -64 0 0 110c0,9 2,16 7,20 5,4 12,7 20,7z"/>
  <path id="4" fill="#474443" fill-rule="nonzero" d="M1421 81c0,-20 12,-30 34,-30 23,0 34,10 34,30 0,10 -2,18 -8,23 -6,5 -14,8 -26,8 -22,0 -34,-10 -34,-31zm66 289l-63 0 0 -229 63 0 0 229z"/>
  <path id="5" fill="#474443" fill-rule="nonzero" d="M1646 375c-72,0 -108,-40 -108,-118 0,-39 10,-69 30,-90 19,-20 47,-30 83,-30 27,0 50,5 72,15l-19 49c-10,-4 -19,-8 -27,-10 -9,-3 -17,-4 -26,-4 -32,0 -49,23 -49,69 0,45 17,68 49,68 12,0 23,-2 34,-5 10,-3 20,-8 30,-15l0 53c-10,7 -20,11 -30,14 -11,2 -24,4 -39,4z"/>
  <path id="6" fill="#474443" fill-rule="nonzero" d="M1914 370l-12 -31 -1 0c-11,14 -22,23 -33,28 -11,5 -26,8 -43,8 -23,0 -40,-7 -53,-19 -12,-13 -19,-31 -19,-54 0,-25 9,-43 26,-54 17,-12 43,-18 77,-19l40 -2 0 -10c0,-23 -12,-35 -36,-35 -18,0 -40,6 -64,17l-21 -42c26,-14 56,-21 88,-21 31,0 54,7 71,20 16,14 24,34 24,61l0 153 -44 0zm-18 -106l-24 1c-18,0 -32,4 -41,10 -9,6 -13,15 -13,27 0,18 10,27 30,27 15,0 26,-4 35,-13 9,-8 13,-19 13,-33l0 -19z"/>
  <polygon id="7" fill="#474443" fill-rule="nonzero" points="2085,370 2023,370 2023,51 2085,51 "/>
  <polygon id="8" fill="#474443" fill-rule="nonzero" points="2214,370 2151,370 2151,51 2214,51 "/>
  <path id="9" fill="#474443" fill-rule="nonzero" d="M2247 141l68 0 44 129c3,11 6,24 7,40l1 0c2,-14 5,-28 9,-40l43 -129 67 0 -97 259c-9,24 -22,42 -38,53 -17,12 -36,18 -58,18 -11,0 -22,-1 -32,-3l0 -50c8,2 16,3 25,3 11,0 20,-3 29,-10 8,-7 14,-17 19,-31l4 -11 -91 -228z"/>
  <path fill="url(#id0)" d="M30 111c62,-107 198,-143 304,-81 107,62 143,198 81,304 -62,107 -198,143 -304,81 -107,-62 -143,-198 -81,-304z"/>
  <circle fill="none" stroke="#FEFEFE" stroke-width="10.8616" cx="222" cy="222" r="196"/>
  <g id="_2455067675248">
   <g>
    <polygon fill="#FEFEFE" points="310,102 156,222 208,240 135,346 283,226 236,207 "/>
   </g>
  </g>
 </g>
</svg>