<svg id="Layer_1" data-name="Layer 1" xmlns="http://www.w3.org/2000/svg" xmlns:xlink="http://www.w3.org/1999/xlink" viewBox="0 0 1149.21 520.18"><defs><style>.cls-1{fill:url(#linear-gradient);}.cls-2{opacity:0.14;}.cls-11,.cls-12,.cls-13,.cls-14,.cls-15,.cls-16,.cls-17,.cls-18,.cls-19,.cls-20,.cls-21,.cls-22,.cls-23,.cls-3,.cls-38,.cls-4,.cls-5,.cls-6,.cls-7,.cls-8,.cls-9{fill:none;}.cls-3,.cls-38,.cls-4,.cls-5,.cls-6,.cls-7,.cls-8,.cls-9{stroke-miterlimit:10;}.cls-3,.cls-4,.cls-5{stroke-width:10px;}.cls-3{stroke:url(#linear-gradient-2);}.cls-4{stroke:url(#linear-gradient-3);}.cls-5{stroke:url(#linear-gradient-4);}.cls-6{stroke-width:8px;stroke:url(#New_Gradient_Swatch_17_copy);}.cls-7{stroke-width:7px;stroke:url(#New_Gradient_Swatch_17_copy-2);}.cls-8{stroke-width:6px;stroke:url(#New_Gradient_Swatch_17_copy-3);}.cls-9{stroke-width:5px;stroke:url(#New_Gradient_Swatch_17_copy-4);}.cls-10{fill:#8176b5;opacity:0.22;}.cls-11,.cls-12,.cls-13,.cls-14,.cls-15,.cls-16,.cls-17,.cls-18,.cls-19,.cls-20,.cls-21,.cls-22,.cls-23{stroke-linecap:round;stroke-linejoin:round;}.cls-11,.cls-14,.cls-16,.cls-17,.cls-18,.cls-21,.cls-23{stroke-width:30px;}.cls-11{stroke:url(#linear-gradient-5);}.cls-12,.cls-13,.cls-15,.cls-19,.cls-20,.cls-22{stroke-width:15px;}.cls-12{stroke:url(#linear-gradient-6);}.cls-13{stroke:url(#linear-gradient-7);}.cls-14{stroke:url(#linear-gradient-8);}.cls-15{stroke:url(#linear-gradient-9);}.cls-16{stroke:url(#linear-gradient-10);}.cls-17{stroke:url(#linear-gradient-11);}.cls-18{stroke:url(#linear-gradient-12);}.cls-19{stroke:url(#linear-gradient-13);}.cls-20{stroke:url(#linear-gradient-14);}.cls-21{stroke:url(#linear-gradient-15);}.cls-22{stroke:url(#linear-gradient-16);}.cls-23{stroke:url(#linear-gradient-17);}.cls-24{fill:url(#linear-gradient-18);}.cls-25{fill:url(#linear-gradient-19);}.cls-26{fill:url(#linear-gradient-20);}.cls-27{fill:#e78352;}.cls-28{fill:#facf64;}.cls-29{fill:#73bb91;}.cls-30{fill:url(#linear-gradient-21);}.cls-31{fill:url(#New_Gradient_Swatch_12);}.cls-32{opacity:0.3;fill:url(#New_Gradient_Swatch_2);}.cls-33{fill:url(#New_Gradient_Swatch_12-2);}.cls-34{fill:url(#linear-gradient-22);}.cls-35{fill:url(#New_Gradient_Swatch_12-3);}.cls-36{fill:url(#linear-gradient-23);}.cls-37{fill:#fff;}.cls-38{stroke-width:7px;stroke:url(#linear-gradient-24);}</style><linearGradient id="linear-gradient" x1="556.68" y1="274" x2="949.08" y2="274" gradientTransform="matrix(-1, 0, 0, 1, 1044.34, 0)" gradientUnits="userSpaceOnUse"><stop offset="0" stop-color="#76c2df"/><stop offset="1" stop-color="#7e77b6"/></linearGradient><linearGradient id="linear-gradient-2" x1="-5935.99" y1="-4391.53" x2="-6250.71" y2="-4391.53" gradientTransform="matrix(1, 0, 0, -1, 6384.82, -4003.46)" gradientUnits="userSpaceOnUse"><stop offset="0" stop-color="#d9e4f4" stop-opacity="0.1"/><stop offset="0.51" stop-color="#edf2f8"/></linearGradient><linearGradient id="linear-gradient-3" x1="-5935.99" y1="-4161.24" x2="-6250.71" y2="-4161.24" xlink:href="#linear-gradient-2"/><linearGradient id="linear-gradient-4" x1="-5898.23" y1="-4276.16" x2="-6288.48" y2="-4276.16" xlink:href="#linear-gradient-2"/><linearGradient id="New_Gradient_Swatch_17_copy" x1="-5894.23" y1="-4276.16" x2="-6292.48" y2="-4276.16" gradientTransform="matrix(1, 0, 0, -1, 6384.82, -4003.46)" gradientUnits="userSpaceOnUse"><stop offset="0" stop-color="#d9e4f4"/><stop offset="1" stop-color="#edf2f8"/></linearGradient><linearGradient id="New_Gradient_Swatch_17_copy-2" x1="-5947.49" y1="-4276.16" x2="-6239.21" y2="-4276.16" xlink:href="#New_Gradient_Swatch_17_copy"/><linearGradient id="New_Gradient_Swatch_17_copy-3" x1="-6000.75" y1="-4276.16" x2="-6185.95" y2="-4276.16" xlink:href="#New_Gradient_Swatch_17_copy"/><linearGradient id="New_Gradient_Swatch_17_copy-4" x1="-6054.01" y1="-4276.16" x2="-6132.69" y2="-4276.16" xlink:href="#New_Gradient_Swatch_17_copy"/><linearGradient id="linear-gradient-5" x1="395.28" y1="319.63" x2="796.28" y2="319.63" gradientUnits="userSpaceOnUse"><stop offset="0.42" stop-color="#8176b5" stop-opacity="0.2"/><stop offset="0.81" stop-color="#8176b5"/><stop offset="1" stop-color="#fff"/></linearGradient><linearGradient id="linear-gradient-6" x1="37.72" y1="234.8" x2="337.72" y2="234.8" gradientUnits="userSpaceOnUse"><stop offset="0.42" stop-color="#fff" stop-opacity="0.2"/><stop offset="0.81" stop-color="#fff"/><stop offset="1" stop-color="#fff"/></linearGradient><linearGradient id="linear-gradient-7" x1="577.28" y1="234.8" x2="726.78" y2="234.8" xlink:href="#linear-gradient-5"/><linearGradient id="linear-gradient-8" x1="97.88" y1="295.18" x2="353.57" y2="295.18" gradientUnits="userSpaceOnUse"><stop offset="0.42" stop-color="#8176b5" stop-opacity="0.2"/><stop offset="0.81" stop-color="#fff"/><stop offset="1" stop-color="#fff"/></linearGradient><linearGradient id="linear-gradient-9" x1="121.7" y1="396.28" x2="362.38" y2="396.28" xlink:href="#linear-gradient-8"/><linearGradient id="linear-gradient-10" x1="151.02" y1="355.57" x2="474.81" y2="355.57" gradientUnits="userSpaceOnUse"><stop offset="0.02" stop-color="#8176b5" stop-opacity="0"/><stop offset="0.42" stop-color="#fff" stop-opacity="0.2"/><stop offset="0.81" stop-color="#fff"/><stop offset="1" stop-color="#fff"/></linearGradient><linearGradient id="linear-gradient-11" x1="667.72" y1="298.93" x2="982.72" y2="298.93" gradientUnits="userSpaceOnUse"><stop offset="0.42" stop-color="#8176b5" stop-opacity="0.2"/><stop offset="0.81" stop-color="#8176b5"/></linearGradient><linearGradient id="linear-gradient-12" x1="725.32" y1="349.77" x2="1126.32" y2="349.77" xlink:href="#linear-gradient-11"/><linearGradient id="linear-gradient-13" x1="367.75" y1="257.05" x2="667.75" y2="257.05" xlink:href="#linear-gradient-5"/><linearGradient id="linear-gradient-14" x1="807.96" y1="234.8" x2="957.46" y2="234.8" xlink:href="#linear-gradient-11"/><linearGradient id="linear-gradient-15" x1="435.91" y1="323.05" x2="691.6" y2="323.05" xlink:href="#linear-gradient-5"/><linearGradient id="linear-gradient-16" x1="451.73" y1="433.55" x2="692.41" y2="433.55" xlink:href="#linear-gradient-5"/><linearGradient id="linear-gradient-17" x1="589.88" y1="396.28" x2="913.67" y2="396.28" gradientUnits="userSpaceOnUse"><stop offset="0.02" stop-color="#8176b5" stop-opacity="0"/><stop offset="0.42" stop-color="#8176b5" stop-opacity="0.2"/><stop offset="0.81" stop-color="#8176b5"/></linearGradient><linearGradient id="linear-gradient-18" x1="225.38" y1="306.14" x2="687.38" y2="306.14" gradientTransform="translate(131.59)" gradientUnits="userSpaceOnUse"><stop offset="0" stop-color="#fff"/><stop offset="1" stop-color="#dae5f8"/></linearGradient><linearGradient id="linear-gradient-19" x1="243.88" y1="307.14" x2="668.88" y2="307.14" gradientTransform="translate(131.59)" gradientUnits="userSpaceOnUse"><stop offset="0" stop-color="#7d79b1"/><stop offset="1" stop-color="#85c1db"/></linearGradient><linearGradient id="linear-gradient-20" x1="243.88" y1="190.37" x2="668.88" y2="190.37" gradientTransform="translate(131.59)" gradientUnits="userSpaceOnUse"><stop offset="0" stop-color="#dae5f8"/><stop offset="1" stop-color="#fff"/></linearGradient><linearGradient id="linear-gradient-21" x1="112.88" y1="460.37" x2="752.88" y2="460.37" xlink:href="#linear-gradient-20"/><linearGradient id="New_Gradient_Swatch_12" x1="159.88" y1="460.37" x2="752.88" y2="460.37" gradientTransform="translate(131.59)" gradientUnits="userSpaceOnUse"><stop offset="0" stop-color="#bfcce2"/><stop offset="1" stop-color="#d9e4f4"/></linearGradient><linearGradient id="New_Gradient_Swatch_2" x1="422.29" y1="455.26" x2="522.29" y2="455.26" gradientTransform="matrix(1, 0, 0, -1, 99.77, 910.51)" gradientUnits="userSpaceOnUse"><stop offset="0" stop-color="#8077b7"/><stop offset="1" stop-color="#8077b7"/></linearGradient><linearGradient id="New_Gradient_Swatch_12-2" x1="526.38" y1="360.18" x2="653" y2="360.18" gradientTransform="matrix(1, 0, 0, 1, 0, 0)" xlink:href="#New_Gradient_Swatch_12"/><linearGradient id="linear-gradient-22" x1="526.38" y1="332.15" x2="653" y2="332.15" gradientUnits="userSpaceOnUse"><stop offset="0" stop-color="#dae5f8"/><stop offset="0.71" stop-color="#fff"/></linearGradient><linearGradient id="New_Gradient_Swatch_12-3" x1="526.38" y1="304.13" x2="653" y2="304.13" gradientTransform="matrix(1, 0, 0, 1, 0, 0)" xlink:href="#New_Gradient_Swatch_12"/><linearGradient id="linear-gradient-23" x1="526.38" y1="276.11" x2="653" y2="276.11" xlink:href="#linear-gradient-22"/><linearGradient id="linear-gradient-24" x1="486.51" y1="317.58" x2="689.42" y2="317.58" xlink:href="#linear-gradient-22"/></defs><title>caching</title><circle class="cls-1" cx="291.47" cy="274" r="196.2"/><g class="cls-2"><line class="cls-3" x1="134.1" y1="388.07" x2="448.83" y2="388.07"/><line class="cls-4" x1="134.1" y1="157.78" x2="448.83" y2="157.78"/><line class="cls-5" x1="96.34" y1="272.7" x2="486.59" y2="272.7"/><circle class="cls-6" cx="291.47" cy="272.7" r="195.12"/><ellipse class="cls-7" cx="291.47" cy="272.7" rx="142.36" ry="195.12"/><ellipse class="cls-8" cx="291.47" cy="272.7" rx="89.6" ry="195.12"/><ellipse class="cls-9" cx="291.47" cy="272.7" rx="36.84" ry="195.12"/></g><circle class="cls-10" cx="519.83" cy="248.21" r="4"/><line class="cls-11" x1="410.28" y1="319.63" x2="781.28" y2="319.63"/><line class="cls-12" x1="45.22" y1="234.8" x2="330.22" y2="234.8"/><line class="cls-13" x1="584.78" y1="234.8" x2="719.28" y2="234.8"/><line class="cls-14" x1="112.88" y1="295.18" x2="338.57" y2="295.18"/><line class="cls-15" x1="129.2" y1="396.28" x2="354.88" y2="396.28"/><line class="cls-16" x1="166.02" y1="355.57" x2="459.81" y2="355.57"/><line class="cls-17" x1="682.72" y1="298.93" x2="967.72" y2="298.93"/><line class="cls-18" x1="740.32" y1="349.77" x2="1111.32" y2="349.77"/><line class="cls-19" x1="375.25" y1="257.05" x2="660.25" y2="257.05"/><line class="cls-20" x1="815.46" y1="234.8" x2="949.96" y2="234.8"/><line class="cls-21" x1="450.91" y1="323.05" x2="676.6" y2="323.05"/><line class="cls-22" x1="459.23" y1="433.55" x2="684.91" y2="433.55"/><line class="cls-23" x1="604.88" y1="396.28" x2="898.67" y2="396.28"/><path class="cls-24" d="M369,160.14H807a12,12,0,0,1,12,12v280a0,0,0,0,1,0,0H357a0,0,0,0,1,0,0v-280a12,12,0,0,1,12-12Z"/><rect class="cls-25" x="375.47" y="181.14" width="425" height="252"/><rect class="cls-26" x="375.47" y="181.14" width="425" height="18.46"/><circle class="cls-27" cx="386.65" cy="191.14" r="4"/><circle class="cls-28" cx="398.65" cy="191.14" r="4"/><circle class="cls-29" cx="410.65" cy="191.14" r="4"/><path class="cls-30" d="M884.47,450.14h-593c0,11.3.36,20.46,9.45,20.46H875C884.1,470.6,884.47,461.44,884.47,450.14Z"/><path class="cls-31" d="M884.47,450.14h-593c0,11.3.36,20.46,9.45,20.46H875C884.1,470.6,884.47,461.44,884.47,450.14Z"/><path class="cls-32" d="M530.29,450.14h83.54a8.23,8.23,0,0,1,8.23,8.23v2a0,0,0,0,1,0,0h-100a0,0,0,0,1,0,0v-2A8.23,8.23,0,0,1,530.29,450.14Z" transform="translate(1144.12 910.51) rotate(-180)"/><path class="cls-33" d="M652.91,358.7l.09-26.55H526.38v28c0,15.47,28.34,28,63.31,28,33.78,0,61.37-11.71,63.21-26.46h0v0a13.13,13.13,0,0,0,.1-1.54A12.12,12.12,0,0,0,652.91,358.7Z"/><path class="cls-34" d="M652.91,330.67l.09-26.54H526.38v28c0,15.48,28.34,28,63.31,28,33.78,0,61.37-11.71,63.21-26.46h0v0a13.44,13.44,0,0,0,.1-1.55A12.25,12.25,0,0,0,652.91,330.67Z"/><path class="cls-35" d="M652.91,302.65l.09-26.54H526.38v28c0,15.48,28.34,28,63.31,28,33.78,0,61.37-11.71,63.21-26.46h0v0a13.13,13.13,0,0,0,.1-1.54A12.12,12.12,0,0,0,652.91,302.65Z"/><ellipse class="cls-36" cx="589.69" cy="276.11" rx="63.31" ry="28.02"/><circle class="cls-37" cx="541.99" cy="308.07" r="5.71"/><circle class="cls-37" cx="541.99" cy="336.29" r="5.71"/><circle class="cls-37" cx="541.99" cy="362.2" r="5.71"/><circle class="cls-38" cx="587.97" cy="317.58" r="97.95"/></svg>