<svg width="93.028mm" height="17.635mm" viewBox="0 0 93.028 17.635" xmlns="http://www.w3.org/2000/svg" xmlns:cc="http://creativecommons.org/ns#" xmlns:dc="http://purl.org/dc/elements/1.1/" xmlns:rdf="http://www.w3.org/1999/02/22-rdf-syntax-ns#"><defs><linearGradient id="id0" x1="110.67" x2="334.32" y1="414.8" y2="30.19" gradientTransform="matrix(.037416 0 0 .037416 -7.9944 117.71)" gradientUnits="userSpaceOnUse"><stop stop-color="#d72430" offset="0"/><stop stop-color="#fda259" offset="1"/></linearGradient></defs><g transform="translate(-49.589 -96.962)"><g transform="translate(57.596 -20.735)" clip-rule="evenodd" shape-rendering="geometricPrecision"><g fill="#474443"><g stroke-width=".037416"><path d="m20.255 128.45c0 1.0102-.33674 1.8334-1.0851 2.3946-.7109.59865-1.7585.89798-3.0307.89798-1.1973.0-2.2824-.2245-3.1804-.67349v-2.245c.74832.33674 1.3844.59865 1.9082.7109.52382.14966 1.0102.2245 1.4218.2245.56124.0.9354-.11225 1.2347-.29933.26191-.18708.41158-.48641.41158-.89798.0-.2245-.07483-.41158-.18708-.59866-.11225-.14966-.29933-.33674-.56124-.4864-.2245-.14967-.7109-.41158-1.4218-.74832s-1.2347-.63607-1.5715-.9354c-.33674-.29932-.59866-.63607-.82315-1.0476-.18708-.37416-.29933-.86057-.29933-1.3844.0-.97281.33674-1.7586 1.0102-2.3198.67349-.59865 1.6089-.86056 2.8062-.86056.56124.0 1.1225.0748 1.6463.18708.56124.14966 1.0851.33674 1.6837.59865l-.78573 1.8708c-.59865-.26191-1.0851-.44899-1.4592-.52383-.41158-.11224-.78573-.14966-1.1599-.14966-.44899.0-.82315.11225-1.0476.29933-.26191.22449-.37416.4864-.37416.82315.0.22449.07483.41157.14966.56124.11225.14966.26191.29932.48641.44899.18708.14966.7109.41157 1.4966.78573 1.0476.52382 1.7585 1.0102 2.1701 1.4966.37416.52382.56124 1.1225.56124 1.8708z" image-rendering="optimizeQuality"/><path d="m25.717 129.87c.41158.0.9354-.11224 1.4966-.29932v1.7585c-.59865.26192-1.3096.41158-2.1701.41158-.9354.0-1.6089-.26191-2.0205-.7109-.44899-.48641-.63607-1.1973-.63607-2.1327v-4.1532h-1.1225v-1.0102l1.2721-.78574.67349-1.796h1.4966v1.8334h2.3946v1.7586h-2.3946v4.1158c0 .33674.11225.59865.29933.74831.18708.14967.41158.26191.7109.26191z" image-rendering="optimizeQuality"/><path d="m34.398 131.55-.44899-1.1599h-.07483c-.37416.52382-.78573.86056-1.1973 1.0476-.41157.18708-.97281.29933-1.6463.29933-.82315.0-1.4592-.26191-1.9456-.7109-.48641-.48641-.7109-1.1599-.7109-2.0205.0-.9354.33674-1.6089.97281-2.0205.63607-.44899 1.5715-.67349 2.881-.7109l1.4966-.0748v-.37416c0-.86057-.44899-1.3096-1.347-1.3096-.67349.0-1.4966.2245-2.432.63607l-.74832-1.5715c.97281-.52382 2.0579-.78573 3.2552-.78573 1.1599.0 2.0579.26191 2.6565.74832.63607.52382.9354 1.2721.9354 2.2824v5.7246zm-.67349-3.9661-.9354.0374c-.67349.0-1.1599.14966-1.4966.37416s-.52382.56124-.52382 1.0102c0 .67348.41158 1.0102 1.1599 1.0102.52382.0.97281-.14967 1.3096-.48641.29933-.29933.48641-.7109.48641-1.2347z" image-rendering="optimizeQuality"/><path d="m42.068 129.87c.41158.0.89798-.11224 1.4966-.29932v1.7585c-.59865.26192-1.3096.41158-2.1701.41158-.9354.0-1.6089-.26191-2.0579-.7109-.41158-.48641-.63607-1.1973-.63607-2.1327v-4.1532h-1.1225v-1.0102l1.3096-.78574.67349-1.796h1.4966v1.8334h2.3946v1.7586h-2.3946v4.1158c0 .33674.07483.59865.26191.74831.18708.14967.44899.26191.74832.26191z" image-rendering="optimizeQuality"/><path d="m45.174 120.74c0-.74832.44899-1.1225 1.2721-1.1225.86056.0 1.2721.37416 1.2721 1.1225.0.37416-.07483.67348-.29933.86056-.2245.18708-.52382.29933-.97281.29933-.82315.0-1.2721-.37416-1.2721-1.1599zm2.4694 10.813h-2.3572v-8.5682h2.3572z" image-rendering="optimizeQuality"/><path d="m53.592 131.74c-2.6939.0-4.0409-1.4966-4.0409-4.4151.0-1.4592.37416-2.5817 1.1225-3.3674.7109-.74831 1.7585-1.1225 3.1055-1.1225 1.0102.0 1.8708.18708 2.6939.56124l-.7109 1.8334c-.37416-.14966-.7109-.29932-1.0102-.37416-.33674-.11224-.63607-.14966-.97281-.14966-1.1973.0-1.8334.86057-1.8334 2.5817.0 1.6837.63607 2.5443 1.8334 2.5443.44899.0.86057-.0748 1.2721-.18708.37416-.11225.74832-.29933 1.1225-.56124v1.983c-.37416.26191-.74832.41158-1.1225.52383-.41158.0748-.89798.14966-1.4592.14966z" image-rendering="optimizeQuality"/><path d="m63.62 131.55-.44899-1.1599h-.03742c-.41158.52382-.82315.86056-1.2347 1.0476-.41157.18708-.97281.29933-1.6089.29933-.86056.0-1.4966-.26191-1.983-.7109-.44899-.48641-.7109-1.1599-.7109-2.0205.0-.9354.33674-1.6089.97281-2.0205.63607-.44899 1.6089-.67349 2.881-.7109l1.4966-.0748v-.37416c0-.86057-.44899-1.3096-1.347-1.3096-.67349.0-1.4966.2245-2.3946.63607l-.78573-1.5715c.97281-.52382 2.0953-.78573 3.2926-.78573 1.1599.0 2.0205.26191 2.6565.74832.59865.52382.89798 1.2721.89798 2.2824v5.7246zm-.67349-3.9661-.89798.0374c-.67349.0-1.1973.14966-1.5341.37416-.33674.2245-.48641.56124-.48641 1.0102.0.67348.37416 1.0102 1.1225 1.0102.56124.0.97281-.14967 1.3096-.48641.33674-.29933.48641-.7109.48641-1.2347z" image-rendering="optimizeQuality"/></g><path transform="matrix(.037416 0 0 .037416 -7.9944 117.71)" d="M2023 370V51h62V370z" image-rendering="optimizeQuality"/><path transform="matrix(.037416 0 0 .037416 -7.9944 117.71)" d="M2151 370V51h63V370z" image-rendering="optimizeQuality"/><path d="m76.079 122.99h2.5443l1.6463 4.8266c.11225.41158.2245.89798.26191 1.4966h.03742c.07483-.52383.18708-1.0476.33674-1.4966l1.6089-4.8266h2.5069l-3.6293 9.6907c-.33674.89798-.82315 1.5715-1.4218 1.983-.63607.44899-1.347.67348-2.1701.67348-.41158.0-.82315-.0374-1.1973-.11224v-1.8708c.29933.0748.59865.11225.9354.11225.41158.0.74832-.11225 1.0851-.37416.29933-.26191.52382-.63607.7109-1.1599l.14966-.41158z" image-rendering="optimizeQuality" stroke-width=".037416"/></g><path d="m-6.8719 121.86c2.3198-4.0035 7.4083-5.3505 11.374-3.0307 4.0035 2.3198 5.3505 7.4083 3.0307 11.374-2.3198 4.0035-7.4083 5.3505-11.374 3.0307-4.0035-2.3198-5.3505-7.4083-3.0307-11.374z" fill="url(#id0)" fill-rule="evenodd" image-rendering="optimizeQuality" stroke-width=".037416"/><circle cx=".31192" cy="126.02" r="7.3335" fill="none" image-rendering="optimizeQuality" stroke="#fefefe" stroke-width=".4064"/><g transform="matrix(.045514 0 0 .045514 -9.7958 115.81)" fill-rule="evenodd" image-rendering="optimizeQuality"><path d="M310 102 156 222l52 18-73 106L283 226l-47-19z" fill="#fefefe"/></g></g></g></svg>