<svg id="48db8ff6-3ea3-48c3-8611-92065ab20915" data-name="Layer 1" xmlns="http://www.w3.org/2000/svg" xmlns:xlink="http://www.w3.org/1999/xlink" width="1006.44" height="815.08" viewBox="0 0 1006.44 815.08"><defs><linearGradient id="b7b6a763-9264-4a1e-a426-1c374bd92ce5" x1="406.23" y1="807.5" x2="406.23" y2="60.35" gradientTransform="matrix(-1, 0, 0, 1, 1096.85, 0)" gradientUnits="userSpaceOnUse"><stop offset="0" stop-color="gray" stop-opacity="0.25"/><stop offset="0.54" stop-color="gray" stop-opacity="0.12"/><stop offset="1" stop-color="gray" stop-opacity="0.1"/></linearGradient><linearGradient id="cb21e8b1-e7ad-45e3-8ab3-f561e1a841da" x1="411.27" y1="423.16" x2="411.27" y2="188.22" gradientTransform="matrix(-1, 0, 0, 1, 1000.07, -42.46)" xlink:href="#b7b6a763-9264-4a1e-a426-1c374bd92ce5"/><linearGradient id="40a30caa-9c51-4df5-8b1a-e8f8e0068110" x1="428.77" y1="350.64" x2="428.77" y2="275.64" xlink:href="#b7b6a763-9264-4a1e-a426-1c374bd92ce5"/><linearGradient id="549e9c6d-8aed-485a-9659-a9e13b2b3857" x1="396.42" y1="339.61" x2="396.42" y2="216.34" xlink:href="#b7b6a763-9264-4a1e-a426-1c374bd92ce5"/><linearGradient id="e1e1cea0-d819-4aa2-877a-83e3a575c08a" x1="410.2" y1="691.4" x2="410.2" y2="456.46" gradientTransform="matrix(-1, 0, 0, 1, 1000.07, -42.46)" xlink:href="#b7b6a763-9264-4a1e-a426-1c374bd92ce5"/><linearGradient id="364d07ef-0e53-4704-b8c0-22d98fef47cf" x1="1257.2" y1="610.11" x2="1257.2" y2="518.16" gradientTransform="translate(-517.15)" xlink:href="#b7b6a763-9264-4a1e-a426-1c374bd92ce5"/><linearGradient id="7d25b544-ff0a-41fc-9ec4-9e4c7321d1f6" x1="618.87" y1="481.79" x2="618.87" y2="246.86" gradientTransform="matrix(0, -1, -1, 0, 860.59, 1016.11)" xlink:href="#b7b6a763-9264-4a1e-a426-1c374bd92ce5"/><linearGradient id="fd566b18-7794-46b8-8ccd-c325d9843861" x1="616.15" y1="400.95" x2="616.15" y2="276.04" gradientTransform="matrix(-0.99, -0.13, -0.13, 0.99, 1158.18, 118.66)" xlink:href="#b7b6a763-9264-4a1e-a426-1c374bd92ce5"/><linearGradient id="951b270e-585f-479a-af81-259b0d724f83" x1="739.66" y1="826.6" x2="739.66" y2="188.45" xlink:href="#b7b6a763-9264-4a1e-a426-1c374bd92ce5"/></defs><title>organize photos</title><path d="M983.07,406.53c11.44,23.49,4.16,57.19,20.36,76.39,11.88,14.08,31.6,14,45.07,25.88,10.48,9.27,15.7,24.44,20.45,38.84l23.08,70c10.51,31.88,19.49,72.92-1.68,96.29-12.69,14-31.86,15.59-49.19,14.1C915.73,717.24,814.84,590.73,689.84,574.41c-88.35-11.54-175.64,33.89-264.5,31.38-47-1.33-92.89-16-138.24-30.64-34.88-11.23-73.59-26-90.22-63.86-7.43-16.92-9.74-37.36-20.78-51.27-8.46-10.67-20.69-15.72-31.2-23.45-45.79-33.68-51-109.11-47.05-172.6,2.21-35.22,5.95-71.28,19.88-102.54s40.14-57.11,70.06-58.13c18.92-.65,37,8.37,55.41,13.41s40,5.19,53.82-10c11.34-12.47,14.9-32.5,26.24-45,8.83-9.71,21.15-13.48,33.06-15.79C420.37,33.49,488.61,55,538.83,103.57,551,115.36,562.67,129,577.59,135c19.87,8.05,41.59,1.23,62.6,1.4,74.12.6,124.39,80.82,176.63,131.39,30.54,29.57,60.08,35.94,93.22,55.64C930.56,335.65,970.7,381.14,983.07,406.53Z" transform="translate(-96.78 -42.46)" fill="#ffffff" opacity="0.1"/><path d="M970.5,725.74c4.29,9.21-1.85,19.15.28,28.66,2.69,12,18.11,21.34,34.72,27.3s35.16,9.58,51.35,16c7,2.77,14.3,7.88,10.66,12.58-1.26,1.63-3.62,2.77-5.93,3.84-47.16,21.76-105.45,33.58-163.69,33.2-61.6-.41-121.92-14-183.47-12.44-79.38,2-156.16,29.06-234.66,21.26-33.32-3.31-64.28-12.75-96.72-18.64-47.72-8.67-97.91-9.54-147.33-12.39-37.11-2.14-79.52-7.69-97.25-28.55-12.82-15.08-7.44-35,10.62-47.77S196,730.54,222.65,733c14.33,1.33,28.57,4.78,42.9,3.41,8.32-.8,16-3.18,23.59-5.52,58.71-18.2,119.53-36.36,184.7-39,106-4.33,204.25,32.55,307.52,48.5,16.08,2.48,33.54,4.39,48.73.23,16-4.39,26.5-14.76,42.53-19.13,7.61-2.08,16.09-2.68,23.57-4.94,20.56-6.22,11-14.77,39.54-9C950.64,710.6,965.7,715.46,970.5,725.74Z" transform="translate(-96.78 -42.46)" fill="#ffffff" opacity="0.1"/><path d="M909.8,424.54S854,480.3,885.52,563s-54,220.33-54,220.33.92-.13,2.61-.43c114.52-20.21,171.42-151.19,107.74-248.49C918.24,498.27,898.8,455.84,909.8,424.54Z" transform="translate(-96.78 -42.46)" fill="#ffffff"/><path d="M909.8,424.54S854,480.3,885.52,563s-54,220.33-54,220.33.92-.13,2.61-.43c114.52-20.21,171.42-151.19,107.74-248.49C918.24,498.27,898.8,455.84,909.8,424.54Z" transform="translate(-96.78 -42.46)" opacity="0.1"/><path d="M909.8,424.54s-31.48,68.35,0,124.11,5.4,212.24-78.24,234.72" transform="translate(-96.78 -42.46)" fill="none" stroke="#535461" stroke-miterlimit="10"/><path d="M1009.11,650.06s-63.63-10.13-69.43,46.89-122.34,64.93-122.34,64.93.76.52,2.19,1.45c96.23,63.17,188.22,40.24,174.35-43.64C988.72,688.5,989.14,657.18,1009.11,650.06Z" transform="translate(-96.78 -42.46)" fill="#ffffff"/><path d="M1009.11,650.06s-63.63-10.13-69.43,46.89-122.34,64.93-122.34,64.93.76.52,2.19,1.45c96.23,63.17,188.22,40.24,174.35-43.64C988.72,688.5,989.14,657.18,1009.11,650.06Z" transform="translate(-96.78 -42.46)" fill="#f5f5f5" opacity="0.2"/><path d="M1009.11,650.06s-49.39,10.84-45.33,55.75-73.34,98.74-146.44,56.07" transform="translate(-96.78 -42.46)" fill="none" stroke="#535461" stroke-miterlimit="10"/><path d="M534.13,60.35h313a31,31,0,0,1,31,30.9V776.6a31,31,0,0,1-31,30.9h-313a31,31,0,0,1-31-30.9V91.25A31,31,0,0,1,534.13,60.35Z" transform="translate(-96.78 -42.46)" fill="url(#b7b6a763-9264-4a1e-a426-1c374bd92ce5)"/><rect x="505.98" y="66.08" width="369.28" height="738.56" rx="26.87" ry="26.87" transform="translate(1284.45 828.25) rotate(-180)" fill="#535461"/><rect x="533.17" y="134.78" width="314.89" height="601.15" transform="translate(1284.45 828.25) rotate(-180)" fill="#fff"/><circle cx="631.05" cy="57.97" r="2.86" fill="#fff"/><rect x="650.54" y="97.57" width="62.98" height="5.73" rx="1" ry="1" transform="translate(1267.28 158.4) rotate(180)" fill="#fff"/><circle cx="595.27" cy="722.1" r="20.04" fill="#fff"/><rect x="471.33" y="145.76" width="234.93" height="234.93" fill="url(#cb21e8b1-e7ad-45e3-8ab3-f561e1a841da)"/><rect x="571.58" y="191.69" width="228.01" height="228.01" transform="translate(1274.38 568.92) rotate(-180)" fill="#fff"/><rect x="581.96" y="202.07" width="207.24" height="155.3" transform="translate(1274.38 516.99) rotate(-180)" fill="#ffffff" opacity="0.5"/><path d="M704,278.64s8.25-3.8,11.07-10.31a13.76,13.76,0,0,1,5.77-6.52,23.14,23.14,0,0,1,3.85-1.75" transform="translate(-96.78 -42.46)" fill="none" stroke="#535461" stroke-miterlimit="10" stroke-width="2"/><path d="M726.44,256c-.8.7-1.86,4.19-1.86,4.19s3.6-.58,4.41-1.28a1.93,1.93,0,1,0-2.54-2.91Z" transform="translate(-96.78 -42.46)" fill="#ffffff"/><path d="M719.89,257.46c-.29,1,.72,4.53.72,4.53s2.71-2.45,3-3.47a1.93,1.93,0,0,0-3.72-1.06Z" transform="translate(-96.78 -42.46)" fill="#ffffff"/><path d="M712.37,264.21c.27,1,2.91,3.55,2.91,3.55s1.1-3.48.84-4.51a1.93,1.93,0,0,0-3.74,1Z" transform="translate(-96.78 -42.46)" fill="#ffffff"/><path d="M707.84,270.6c.09,1.06,2.26,4,2.26,4s1.67-3.24,1.59-4.31a1.93,1.93,0,0,0-3.85.31Z" transform="translate(-96.78 -42.46)" fill="#ffffff"/><path d="M723.12,265.18c-1.06-.09-4-2.27-4-2.27s3.24-1.67,4.31-1.59a1.93,1.93,0,1,1-.32,3.85Z" transform="translate(-96.78 -42.46)" fill="#ffffff"/><path d="M717.72,272.59c-1-.4-3.13-3.36-3.13-3.36s3.59-.63,4.58-.23a1.93,1.93,0,0,1-1.45,3.58Z" transform="translate(-96.78 -42.46)" fill="#ffffff"/><path d="M711.48,279.07c-1-.23-3.65-2.78-3.65-2.78s3.44-1.23,4.48-1a1.93,1.93,0,0,1-.83,3.78Z" transform="translate(-96.78 -42.46)" fill="#ffffff"/><path d="M726.44,256c-.8.7-1.86,4.19-1.86,4.19s3.6-.58,4.41-1.28a1.93,1.93,0,1,0-2.54-2.91Z" transform="translate(-96.78 -42.46)" fill="#ffffff" opacity="0.1"/><path d="M719.89,257.46c-.29,1,.72,4.53.72,4.53s2.71-2.45,3-3.47a1.93,1.93,0,0,0-3.72-1.06Z" transform="translate(-96.78 -42.46)" fill="#ffffff" opacity="0.1"/><path d="M712.37,264.21c.27,1,2.91,3.55,2.91,3.55s1.1-3.48.84-4.51a1.93,1.93,0,0,0-3.74,1Z" transform="translate(-96.78 -42.46)" fill="#ffffff" opacity="0.1"/><path d="M707.84,270.6c.09,1.06,2.26,4,2.26,4s1.67-3.24,1.59-4.31a1.93,1.93,0,0,0-3.85.31Z" transform="translate(-96.78 -42.46)" fill="#ffffff" opacity="0.1"/><path d="M723.12,265.18c-1.06-.09-4-2.27-4-2.27s3.24-1.67,4.31-1.59a1.93,1.93,0,1,1-.32,3.85Z" transform="translate(-96.78 -42.46)" fill="#ffffff" opacity="0.1"/><path d="M717.72,272.59c-1-.4-3.13-3.36-3.13-3.36s3.59-.63,4.58-.23a1.93,1.93,0,0,1-1.45,3.58Z" transform="translate(-96.78 -42.46)" fill="#ffffff" opacity="0.1"/><path d="M711.48,279.07c-1-.23-3.65-2.78-3.65-2.78s3.44-1.23,4.48-1a1.93,1.93,0,0,1-.83,3.78Z" transform="translate(-96.78 -42.46)" fill="#ffffff" opacity="0.1"/><path d="M635.16,313.23s-3.08,6.05-.57,9.36-.23,12.33-.23,12.33" transform="translate(-96.78 -42.46)" fill="none" stroke="#ffffff" stroke-miterlimit="10"/><path d="M634.25,311.34a1.23,1.23,0,1,0,.86-2.11A3.56,3.56,0,0,0,634.25,311.34Z" transform="translate(-96.78 -42.46)" fill="#ffffff"/><path d="M633.57,313.23s3.08,6.05.57,9.36.23,12.33.23,12.33" transform="translate(-96.78 -42.46)" fill="none" stroke="#ffffff" stroke-miterlimit="10"/><path d="M634.48,311.34a1.23,1.23,0,1,1-.86-2.11A3.56,3.56,0,0,1,634.48,311.34Z" transform="translate(-96.78 -42.46)" fill="#ffffff"/><path d="M634.48,311.34a1.23,1.23,0,1,1-.86-2.11A3.56,3.56,0,0,1,634.48,311.34Z" transform="translate(-96.78 -42.46)" opacity="0.1"/><path d="M632.31,313.23s-3.08,6.05-.57,9.36-.23,12.33-.23,12.33" transform="translate(-96.78 -42.46)" fill="none" stroke="#ffffff" stroke-miterlimit="10"/><path d="M631.4,311.34a1.23,1.23,0,1,0,.86-2.11A3.56,3.56,0,0,0,631.4,311.34Z" transform="translate(-96.78 -42.46)" fill="#ffffff"/><path d="M631.88,316.19a3.56,3.56,0,0,0,2.08.93,3,3,0,0,0-2.93-3A3.56,3.56,0,0,0,631.88,316.19Z" transform="translate(-96.78 -42.46)" fill="#ffffff"/><path d="M631.8,320.36a3.56,3.56,0,0,0,2.08.93,3,3,0,0,0-2.93-3A3.56,3.56,0,0,0,631.8,320.36Z" transform="translate(-96.78 -42.46)" fill="#ffffff"/><path d="M636.18,322.66a3.56,3.56,0,0,0-.74,2.16,3,3,0,0,0,2.77-3.19A3.56,3.56,0,0,0,636.18,322.66Z" transform="translate(-96.78 -42.46)" fill="#ffffff"/><path d="M635.47,313.76a3.56,3.56,0,0,0-1.29,1.88,3,3,0,0,0,3.52-2.33A3.56,3.56,0,0,0,635.47,313.76Z" transform="translate(-96.78 -42.46)" fill="#ffffff"/><path d="M635.47,313.76a3.56,3.56,0,0,0-1.29,1.88,3,3,0,0,0,3.52-2.33A3.56,3.56,0,0,0,635.47,313.76Z" transform="translate(-96.78 -42.46)" opacity="0.1"/><path d="M630.71,313.23s3.08,6.05.57,9.36.23,12.33.23,12.33" transform="translate(-96.78 -42.46)" fill="none" stroke="#ffffff" stroke-miterlimit="10"/><path d="M631.62,311.34a1.23,1.23,0,1,1-.86-2.11A3.56,3.56,0,0,1,631.62,311.34Z" transform="translate(-96.78 -42.46)" fill="#ffffff"/><path d="M631.62,311.34a1.23,1.23,0,1,1-.86-2.11A3.56,3.56,0,0,1,631.62,311.34Z" transform="translate(-96.78 -42.46)" opacity="0.1"/><path d="M631.38,316.28a3.56,3.56,0,0,1,.87,2.11,3,3,0,0,1-3-3A3.56,3.56,0,0,1,631.38,316.28Z" transform="translate(-96.78 -42.46)" fill="#ffffff"/><path d="M631.38,316.28a3.56,3.56,0,0,1,.87,2.11,3,3,0,0,1-3-3A3.56,3.56,0,0,1,631.38,316.28Z" transform="translate(-96.78 -42.46)" opacity="0.1"/><path d="M629.77,322.06a3.56,3.56,0,0,1,.87,2.11,3,3,0,0,1-3-3A3.56,3.56,0,0,1,629.77,322.06Z" transform="translate(-96.78 -42.46)" fill="#ffffff"/><path d="M632.14,320.79s-1.86-2.92-4.46-3" transform="translate(-96.78 -42.46)" fill="none" stroke="#ffffff" stroke-miterlimit="10"/><path d="M633.58,319s1.86-2.92,4.46-3" transform="translate(-96.78 -42.46)" fill="none" stroke="#ffffff" stroke-miterlimit="10"/><path d="M633.82,323.2s-1.86-2.92-4.46-3" transform="translate(-96.78 -42.46)" fill="none" stroke="#ffffff" stroke-miterlimit="10"/><circle cx="530.98" cy="275.32" r="0.48" fill="#ffffff"/><circle cx="541.21" cy="273.59" r="0.48" fill="#ffffff"/><path d="M632.46,324.16s1.86-2.92,4.46-3" transform="translate(-96.78 -42.46)" fill="none" stroke="#ffffff" stroke-miterlimit="10"/><circle cx="540.09" cy="278.73" r="0.48" fill="#ffffff"/><circle cx="532.54" cy="277.77" r="0.48" fill="#ffffff"/><path d="M622.2,331.4s4.47-.89,5.66-2.09,6.56-3.28,7.15-1.79,8,6.56,3,7.45-11.92,1.19-13.41.6S622.2,331.4,622.2,331.4Z" transform="translate(-96.78 -42.46)" fill="#a8a8a8"/><path d="M638,334.43c-5.07.89-11.92,1.19-13.41.6-1.14-.45-1.92-2.64-2.24-3.65l-.15,0s.89,3.58,2.38,4.17,8.35.3,13.41-.6c1.46-.26,1.88-.86,1.72-1.63C639.6,333.85,639.09,334.23,638,334.43Z" transform="translate(-96.78 -42.46)" opacity="0.2"/><path d="M738.71,323.06s-1.48,1.93.68,4.84,3.94,5.37,3.22,7.19c0,0-3.26-5.41-5.9-5.49S735.8,326.31,738.71,323.06Z" transform="translate(-96.78 -42.46)" fill="#ffffff"/><path d="M738.71,323.06a2.39,2.39,0,0,0-.3.61c-2.59,3-4,5.87-1.48,5.94,2.31.07,5.09,4.21,5.76,5.25a2.24,2.24,0,0,1-.08.24s-3.26-5.41-5.9-5.49S735.8,326.31,738.71,323.06Z" transform="translate(-96.78 -42.46)" opacity="0.1"/><path d="M736,325.52c0,.68.08,1.23.17,1.23s.17-.55.17-1.23-.1-.36-.19-.36S736,324.84,736,325.52Z" transform="translate(-96.78 -42.46)" fill="#ffd037"/><path d="M735,326.33c.6.33,1.12.52,1.16.44s-.4-.41-1-.74-.36-.09-.41,0S734.43,326,735,326.33Z" transform="translate(-96.78 -42.46)" fill="#ffd037"/><path d="M746.51,323.06s1.48,1.93-.68,4.84-3.94,5.37-3.22,7.19c0,0,3.26-5.41,5.9-5.49S749.42,326.31,746.51,323.06Z" transform="translate(-96.78 -42.46)" fill="#ffffff"/><path d="M746.51,323.06a2.39,2.39,0,0,1,.3.61c2.59,3,4,5.87,1.48,5.94-2.31.07-5.09,4.21-5.76,5.25a2.24,2.24,0,0,0,.08.24s3.26-5.41,5.9-5.49S749.42,326.31,746.51,323.06Z" transform="translate(-96.78 -42.46)" opacity="0.1"/><path d="M749.25,325.52c0,.68-.08,1.23-.17,1.23s-.17-.55-.17-1.23.1-.36.19-.36S749.25,324.84,749.25,325.52Z" transform="translate(-96.78 -42.46)" fill="#ffd037"/><path d="M750.19,326.33c-.6.33-1.12.52-1.16.44s.4-.41,1-.74.36-.09.41,0S750.79,326,750.19,326.33Z" transform="translate(-96.78 -42.46)" fill="#ffd037"/><path d="M748.78,334.84s-4.13-.13-5.37-1-6.35-1.94-6.66-.52-6.2,7.06-1.54,7.1,10.83-.73,12.07-1.48S748.78,334.84,748.78,334.84Z" transform="translate(-96.78 -42.46)" fill="#a8a8a8"/><path d="M735.13,339.91c4.66,0,10.83-.73,12.07-1.48.95-.58,1.32-2.64,1.45-3.6h.14s-.26,3.33-1.5,4.08-7.41,1.52-12.07,1.48c-1.35,0-1.81-.49-1.78-1.2C733.61,339.64,734.13,339.91,735.13,339.91Z" transform="translate(-96.78 -42.46)" opacity="0.2"/><path d="M639.22,316a6.65,6.65,0,0,0,1.69,2.12,9,9,0,0,0,7.63,2.16,7.11,7.11,0,0,0,.86-.26c2.06,3.9.62,10.52.62,10.52l-.23,3.32a9.43,9.43,0,0,0,1.23.81l-.07.27-.14.58c-1.92,11.05,8.35,12.16,8.35,12.16s10.6,2.21,18.61,1.55a37.15,37.15,0,0,1,10.92.78c.61.13,1.15.27,1.62.4a6.66,6.66,0,0,0,2.62.17,6.38,6.38,0,0,0,1.09-.25,6.15,6.15,0,0,0,1.44-.67h0l.17-.11.05,0,.12-.08.05,0,.14-.1h0l.14-.12,0,0,.09-.08,0,0,.09-.09,0,0,.11-.12,0,0,.06-.08,0-.05.06-.08,0,0,.08-.11,0-.06,0-.07,0-.06,0-.07c1.37-2.43-1.21-5.06-1.21-5.06a17,17,0,0,0-10.27-3.32l-.7,0h0l0,0-.07,0-.08-.14-.1-.21.06,0-.14-.14c-.07-.15-.13-.31-.18-.47l.06-.08-.11-.05-.12-.37.05-.08-.1-.08q-.06-.21-.11-.42l.06-.09-.1-.06c0-.16-.07-.31-.1-.46l.06-.11-.09-.06,0-.19.07-.1-.09-.05c0-.13,0-.27-.06-.39l.06-.1-.08-.06c0-.17,0-.33,0-.48l.08-.1-.09-.05c0-.14,0-.27,0-.38l0,0,0,0v-.09a.55.55,0,0,0-.53-.52h-.26c0-.3.06-.88.13-1.75v-.24l0-.2v0l0-.28h0q.09-1,.23-2.46h0l.08-.82v0l0-.4v-.08l0-.38v0l0-.4v-.13l0-.4v-.12l0-.32,0-.16,0-.4,0-.19,0-.33,0-.22,0-.35,0-.2,0-.44,0-.18,0-.37,0-.17.06-.5,0-.16.06-.55c.3-2.55-.2-4.05-1-4.91l0-.18,0,0h0l.22.13h0l.44.24h0l.2.11,0,0,.18.09h0l.38.19,0,0,.14.07,0,0,.14.07h0l.16.08h0l.12.06,0,0,.1,0,0,0,.11.05h0l.12.05,0,0,.07,0,0,0,.07,0,0,0,.09,0h0l.06,0h0l0,0h0l0,0h0l0,0h.07c0-.09,0-.18.07-.27V318c0-.08,0-.16,0-.24v0c0-.08,0-.17,0-.25v-.07c0-.07,0-.14,0-.21v0c0-.08,0-.15,0-.22v-.06q0-.09,0-.18v0c0-.07,0-.13,0-.2v-.05l0-.16v0l-.07-.18,0,0-.07-.14,0,0-.09-.16,0,0-.09-.13,0,0-.11-.14,0,0-.11-.12,0,0-.13-.13,0,0-.13-.11,0,0-.15-.11h0l-.15-.1h0l-.17-.1h0l-.17-.09h0l-.36-.17h0a7.42,7.42,0,0,0-1.54-.45c-1-2.49-5.16-.14-5.16-.14l0,.51-.22,0-5.3.69a4.93,4.93,0,0,1-.6-1.44,44.12,44.12,0,0,0-3.25-7.74,12.22,12.22,0,0,0-3.23-6l-.09-.32a22.64,22.64,0,0,1-.63-3,5.54,5.54,0,0,0,.81-3.46,6.54,6.54,0,0,0,4.59-6.2,6.42,6.42,0,0,0-.13-1.3,1.67,1.67,0,0,0,1-1c.34-1.17-.81-3.53-1.31-4.56l-.16-.32a6.38,6.38,0,0,0-8.17-3.55,9.54,9.54,0,0,0-6.12,5.78,2.78,2.78,0,0,1-1,1.62,5,5,0,0,0-.78.39,1.25,1.25,0,0,0-.37.74,28.14,28.14,0,0,0-2.92,2.54,18.58,18.58,0,0,1-1.88,1.77c-1.48,1.12-3.39,1.64-4.77,2.88a8.33,8.33,0,0,0-2.35,6.28c0,2.29.52,4.56.68,6.85a9.88,9.88,0,0,1-1.47,6.59,9.2,9.2,0,0,0-1.15,1.63A3.27,3.27,0,0,0,639.22,316Zm36.18,1.7-.11-.06.37-.13Zm-6.16,17.44c3.71-2.69,8.54-9.24,8.54-9.24a42.73,42.73,0,0,0,.34,4.42l0,.09v0l0,.09h0l0,.11h0l0,.12h0l0,.28h0c.15.94.3,2.26.38,2.92a.36.36,0,0,0-.3.35l-.08,3.85v.22A84.37,84.37,0,0,1,669.24,335.14Z" transform="translate(-96.78 -42.46)" fill="url(#40a30caa-9c51-4df5-8b1a-e8f8e0068110)"/><path d="M664.82,330.35c.19,3,.85,6.11,2.82,5.34a7.13,7.13,0,0,0,1.56-.91c3.57-2.64,8.23-9.09,8.23-9.09a42.86,42.86,0,0,0,.33,4.35c.22,1,.54,4,.54,4h4s.22-3.91,1.2-12.39-6.85-5.22-6.85-5.22l-7.3,5.62-4.55,3.51s0,.67-.06,1.66S664.75,329.22,664.82,330.35Z" transform="translate(-96.78 -42.46)" fill="#8c8296"/><path d="M664.82,330.35c.19,3,.85,6.11,2.82,5.34a7.13,7.13,0,0,0,1.56-.91c3.57-2.64,8.23-9.09,8.23-9.09a42.86,42.86,0,0,0,.33,4.35c.16.7.37,2.45.47,3.4,0,.38.07.62.07.62h4s0-.15,0-.47c.09-1.26.38-5.13,1.17-11.92,1-8.48-6.85-5.22-6.85-5.22l-7.3,5.62-4.55,3.51s0,.67-.06,1.66S664.75,329.22,664.82,330.35Z" transform="translate(-96.78 -42.46)" opacity="0.1"/><path d="M678.22,333.44c0,.38.07.62.07.62h4s0-.15,0-.47l-4-.17Z" transform="translate(-96.78 -42.46)" opacity="0.1"/><path d="M677.86,338.74l7,1.3a4.28,4.28,0,0,1-.68-1,12.79,12.79,0,0,1-1-4.7.53.53,0,0,0-.51-.51l-4.25-.18a.35.35,0,0,0-.37.35l-.08,3.78Z" transform="translate(-96.78 -42.46)" fill="#e7c4c3"/><path d="M677.86,338.74l7,1.3a4.28,4.28,0,0,1-.68-1,29.67,29.67,0,0,1-6.25-1.26Z" transform="translate(-96.78 -42.46)" opacity="0.1"/><path d="M659.49,347.1s10.22,2.17,17.93,1.52a35.33,35.33,0,0,1,12.08,1.16,6.11,6.11,0,0,0,5-.73c4.07-2.65.35-6.52.35-6.52a16.19,16.19,0,0,0-9.89-3.26c-4.89,0-12.81-3.23-15.72-4.5l-1.12-.5-.45-5.56-.2-2.49-2.67,1L652.21,332l-.62,2.58-.14.57C649.6,346,659.49,347.1,659.49,347.1Z" transform="translate(-96.78 -42.46)" fill="#8c8296"/><path d="M651.45,335.15l.14-.57.62-2.58.4-.15-.48,2-.14.57c-1.85,10.87,8,12,8,12s10.22,2.17,17.93,1.52A35.33,35.33,0,0,1,690,349a6.11,6.11,0,0,0,5-.73,5.22,5.22,0,0,0,1-.83,4.37,4.37,0,0,1-1.55,1.6,6.11,6.11,0,0,1-5,.73,35.33,35.33,0,0,0-12.08-1.16c-7.72.65-17.93-1.52-17.93-1.52S649.6,346,651.45,335.15Z" transform="translate(-96.78 -42.46)" opacity="0.1"/><path d="M655,298.52h0l7,.86,3.37,1.09s-.1-.3-.25-.81c-.52-1.88-1.55-6.58.25-9.4,2.28-3.59-6,0-6,0a8.53,8.53,0,0,1-3.24,7.34,12.07,12.07,0,0,1-1.09.83Z" transform="translate(-96.78 -42.46)" fill="#ffc7d1"/><path d="M671.34,315l9.89-1.3s5.76.11,4.56,4.56a26.83,26.83,0,0,1-5.11-2.83l-6.74,2.5Z" transform="translate(-96.78 -42.46)" fill="#ffc7d1"/><path d="M671.34,315l2.61,2.93,3.49-1.29,3.25-1.21c.56.4,1.12.76,1.65,1.08a25.83,25.83,0,0,0,3.46,1.75c.89-3.3-2.05-4.22-3.63-4.47a7.49,7.49,0,0,0-.93-.1l-4,.52Z" transform="translate(-96.78 -42.46)" opacity="0.1"/><circle cx="566.62" cy="244.76" r="6.41" fill="#ffc7d1"/><path d="M651.59,334.58c2.24,1.38,8.25,4,13-4l.22-.23a6.83,6.83,0,0,1,2.81-1.63,5.73,5.73,0,0,1,2-.2,36.86,36.86,0,0,1-.29-4.21c0-.71,0-1.47.06-2.23l-4.55,3.51s0,.67-.06,1.66L652.21,332Z" transform="translate(-96.78 -42.46)" opacity="0.1"/><path d="M655.07,298.53l7,.86,3.37,1.09s-.1-.3-.25-.81l-.15-.15a6.69,6.69,0,0,0-3.87-2.07,8.29,8.29,0,0,1-1.37-.23,4.78,4.78,0,0,0-3.58.38,4.92,4.92,0,0,0-1.09.83Z" transform="translate(-96.78 -42.46)" opacity="0.1"/><path d="M650.69,330.26l-.22,3.26s7.93,6.63,13.91-3.37a6.47,6.47,0,0,1,5-2.07,36.86,36.86,0,0,1-.29-4.21,24.3,24.3,0,0,1,.29-4.26c.41-2.41-.18-8-.66-11.77l-.14-1a12.14,12.14,0,0,0-3.51-7.08,6.69,6.69,0,0,0-3.87-2.07,8.29,8.29,0,0,1-1.37-.23c-1.29-.35-4.27-.62-6.1,3.37-2.39,5.22-2.61,7-2.61,7s-4.48,7.85-1.74,11.09C652.37,322.38,650.69,330.26,650.69,330.26Z" transform="translate(-96.78 -42.46)" fill="#ffe09c"/><path d="M677.25,314.26l.19,2.42,3.25-1.21c.56.4,1.12.76,1.65,1.08a6.71,6.71,0,0,0,0-2.16,2.62,2.62,0,0,0-.15-.56,7.49,7.49,0,0,0-.93-.1Z" transform="translate(-96.78 -42.46)" opacity="0.1"/><path d="M675.25,323.19l2.11-1,1.69-.82,2.17-2a5.7,5.7,0,0,0,1.3-5c-.54-3.26-5.11-.65-5.11-.65l.33,4.24a1.59,1.59,0,0,1-.83.63,4,4,0,0,1-1,.24Z" transform="translate(-96.78 -42.46)" fill="#ffc7d1"/><path d="M640.11,313.31a9,9,0,0,1,1.11-1.61,9.87,9.87,0,0,0,1.42-6.48c-.15-2.25-.66-4.48-.65-6.73a8.28,8.28,0,0,1,2.26-6.17c1.33-1.22,3.16-1.73,4.59-2.83a18.05,18.05,0,0,0,1.81-1.74,27.28,27.28,0,0,1,2.81-2.5,1.24,1.24,0,0,1,.36-.73,4.73,4.73,0,0,1,.76-.38,2.74,2.74,0,0,0,.95-1.6,9.27,9.27,0,0,1,5.9-5.68,6.66,6.66,0,0,1,4.68.13,6.94,6.94,0,0,1,3.24,3.45c.48,1,1.59,3.34,1.26,4.48s-1.57,1.36-2.65,1.35c-.34.33-.72.66-1,1a7.06,7.06,0,0,0-1.09,1.39c-.72,1.32-.53,2.93-.46,4.44s-.11,3.22-1.29,4.16a8.24,8.24,0,0,1-1.06.65c-2.63,1.52-4.14,4.44-5,7.35s-1.31,6-2.48,8.77-3.31,5.45-6.27,6.15A8.57,8.57,0,0,1,641.9,318C640.53,316.86,639.39,315,640.11,313.31Z" transform="translate(-96.78 -42.46)" opacity="0.1"/><path d="M640,313.1a9,9,0,0,1,1.11-1.61,9.87,9.87,0,0,0,1.42-6.48c-.15-2.25-.66-4.48-.65-6.73a8.28,8.28,0,0,1,2.26-6.17c1.33-1.22,3.16-1.73,4.59-2.83a18.05,18.05,0,0,0,1.81-1.74,27.28,27.28,0,0,1,2.81-2.5,1.24,1.24,0,0,1,.36-.73,4.73,4.73,0,0,1,.76-.38,2.74,2.74,0,0,0,.95-1.6,9.27,9.27,0,0,1,5.9-5.68,6.66,6.66,0,0,1,4.68.13,6.94,6.94,0,0,1,3.24,3.45c.48,1,1.59,3.34,1.26,4.48s-1.57,1.36-2.65,1.35c-.34.33-.72.66-1,1a7.06,7.06,0,0,0-1.09,1.39c-.72,1.32-.53,2.93-.46,4.44s-.11,3.22-1.29,4.16a8.24,8.24,0,0,1-1.06.65c-2.63,1.52-4.14,4.44-5,7.35s-1.31,6-2.48,8.77-3.31,5.45-6.27,6.15a8.57,8.57,0,0,1-7.35-2.13C640.43,316.65,639.29,314.75,640,313.1Z" transform="translate(-96.78 -42.46)" fill="#ad5975"/><path d="M661.67,315.25c1.92,2.95,4.87,7,7.43,8.62a24.3,24.3,0,0,1,.29-4.26c.41-2.41-.18-8-.66-11.77-.92-1.93-1.73-3.45-1.73-3.45s-3.75-2.93-6,1.89A9.25,9.25,0,0,0,661.67,315.25Z" transform="translate(-96.78 -42.46)" opacity="0.1"/><path d="M675.25,323.19l2.11-1a3.94,3.94,0,0,0-.44-3.56,4,4,0,0,1-1,.24Z" transform="translate(-96.78 -42.46)" opacity="0.1"/><path d="M661.42,305.85a9.23,9.23,0,0,0,.68,9c2.28,3.49,6,8.56,8.81,9.26,4.35,1.09,4.89.87,4.89.87s3.15-4.24.54-6.74c0,0-4-1.41-4.78-4.67s-4.13-9.56-4.13-9.56S663.68,301,661.42,305.85Z" transform="translate(-96.78 -42.46)" fill="#ffe09c"/><path d="M668.13,334.22s.33,1.09-2.39,2.17-4.35,4.56-4.35,4.56" transform="translate(-96.78 -42.46)" opacity="0.1"/><g opacity="0.1"><polygon points="587.33 296.85 587.38 296.75 586.48 296.26 586.94 295.64 586.16 295.27 586.63 294.58 586.04 294.19 586.46 293.62 585.72 293.21 586.32 292.45 585.61 292.04 585.56 292.14 586.16 292.49 585.56 293.25 586.3 293.65 585.89 294.22 586.48 294.61 586 295.32 586.78 295.69 586.32 296.29 587.33 296.85"/><polygon points="586.63 296.78 587.2 296.32 586.47 295.62 586.78 295.15 586.14 294.63 586.5 293.95 586.04 293.65 586.37 293.08 585.72 292.57 586.24 291.99 586.16 291.92 585.56 292.59 586.23 293.11 585.89 293.68 586.36 293.99 586.01 294.66 586.63 295.18 586.33 295.63 587.03 296.31 586.56 296.7 586.63 296.78"/></g><polygon points="587.44 296.85 587.49 296.75 586.59 296.26 587.05 295.64 586.27 295.27 586.74 294.58 586.15 294.19 586.57 293.62 585.83 293.21 586.43 292.45 585.72 292.04 585.67 292.14 586.27 292.49 585.67 293.25 586.41 293.65 586 294.22 586.59 294.61 586.1 295.32 586.88 295.69 586.43 296.29 587.44 296.85" fill="#8c8296"/><polygon points="586.74 296.78 587.3 296.32 586.58 295.62 586.88 295.15 586.25 294.63 586.61 293.95 586.15 293.65 586.48 293.08 585.83 292.57 586.35 291.99 586.27 291.92 585.67 292.59 586.34 293.11 586 293.68 586.47 293.99 586.12 294.66 586.74 295.18 586.44 295.63 587.14 296.31 586.67 296.7 586.74 296.78" fill="#8c8296"/><path d="M657,285.48a2.74,2.74,0,0,1-.95,1.6,4.73,4.73,0,0,0-.76.38,1.24,1.24,0,0,0-.36.73,27.28,27.28,0,0,0-2.81,2.5,18.05,18.05,0,0,1-1.81,1.74c-1.43,1.1-3.26,1.61-4.59,2.83a8.28,8.28,0,0,0-2.26,6.17c0,2.26.5,4.48.65,6.73a9.87,9.87,0,0,1-1.42,6.48,9,9,0,0,0-1.11,1.61,2.71,2.71,0,0,0-.22,1.11c-1.13-1.18-1.93-2.81-1.3-4.27a9,9,0,0,1,1.11-1.61,9.87,9.87,0,0,0,1.42-6.48c-.15-2.25-.66-4.48-.65-6.73a8.28,8.28,0,0,1,2.26-6.17c1.33-1.22,3.16-1.73,4.59-2.83a18.05,18.05,0,0,0,1.81-1.74,27.28,27.28,0,0,1,2.81-2.5,1.24,1.24,0,0,1,.36-.73,4.73,4.73,0,0,1,.76-.38,2.74,2.74,0,0,0,.95-1.6,9.27,9.27,0,0,1,5.9-5.68C662.94,276.17,658,282.81,657,285.48Z" transform="translate(-96.78 -42.46)" opacity="0.1"/><path d="M687,289.89l.11.55,1.27,6.21,1.53,8.09s.77,4.59,0,5.61,1.63,14.89,1.63,14.89l.91,6.35,0,.16a2.45,2.45,0,0,0-.65.84,9.52,9.52,0,0,1-1.72,3.86l0,0a1.78,1.78,0,0,0-.39,1.17,1.9,1.9,0,0,0,1.94,1.86h3.64a2,2,0,0,0,1.57-.76l.89-1.16a1.89,1.89,0,0,0,.39-1.24,1.86,1.86,0,0,0-.1-.57,14.14,14.14,0,0,1-.82-3.58,1,1,0,0,0-.3-.66l0-.21c-.26-2.12-.54-5.62.24-6.93s.49-8.09.22-12.06a21.92,21.92,0,0,1,.59-6.72c.11-.44.22-.87.34-1.26.35-1.19-.2-7.64-.68-12.42l-.05-.53a3.71,3.71,0,0,0,.45-.18,8.72,8.72,0,0,1,2.85-.73l-.06.56c-.5,4.83-1.16,12.13-.78,13.41.14.45.27,1,.4,1.5a21.06,21.06,0,0,1,.54,6.36c-.27,3.95-.6,10.82.21,12.18s.5,4.83.24,6.95l0,.21a1.08,1.08,0,0,0-.3.69,14.85,14.85,0,0,1-.88,3.7,1.51,1.51,0,0,0-.08.5,1.53,1.53,0,0,0,.32,1l1,1.32a2,2,0,0,0,1.57.76h3.64a1.9,1.9,0,0,0,1.94-1.86,1.78,1.78,0,0,0-.39-1.17l0,0a9.52,9.52,0,0,1-1.72-3.86,2.45,2.45,0,0,0-.65-.84l0-.16.91-6.35s2.4-13.88,1.63-14.89,0-5.61,0-5.61l1.53-8.09,1-5,.11-.55h.89l.18,0h.1l.17,0,.09,0,.15,0,.09,0,.14-.05.08,0,.12-.07.07,0,.1-.08.06-.05.08-.09.05-.06.06-.1,0,0h0l0-.07a3.46,3.46,0,0,1,3-1.81h1.08v0h0l0-.1h0l0-.07h0l0-.08h0c-.25-1.1-1.19-5.14-2.5-9.6a12.27,12.27,0,0,0,.27-1.87l-.67-15.7a9.22,9.22,0,0,0,1.72-.47s.43-4,.41-7.77c0-3.26-.28-6.44-1.47-6.75a8.13,8.13,0,0,0-1.07-.17l0-.19c-.62-4.84-1.32-5.22-7-6.08-3.22-.49-4.47-2.15-4.95-3.6l0-.15a6.27,6.27,0,0,0,1.11-1,7.14,7.14,0,0,0,2.83-5.66,7,7,0,0,0-.48-2.56,3.89,3.89,0,0,0-1.66-3.18l-.24-.16a3.9,3.9,0,0,1,1.36,2.25,7.51,7.51,0,0,0-3.62-3.05,3.82,3.82,0,0,0,.71-2.22,4.12,4.12,0,0,0-8.24,0,3.81,3.81,0,0,0,.6,2,4,4,0,0,1-.39-.55,3.86,3.86,0,0,1,1.33-5.24l-.26.13a3.87,3.87,0,0,0-1.58,5.38,4,4,0,0,0,.85,1,7.19,7.19,0,0,0-3.52,6.13,7,7,0,0,0,1.63,4.5,4.27,4.27,0,0,1-4.41,0l.22.17a4.27,4.27,0,0,0,4.53.24q.26.27.54.51a6.32,6.32,0,0,0,2.67,1.93l0,.17c-.78,2.74-3.94,3.9-5.85,4.36a5.15,5.15,0,0,0-4.05,5.32v0l0,.18a3,3,0,0,0-1.29.52c-.57.59-.72,3.49-.71,6.46,0,3.62.23,7.51.23,7.51.27-.59,1.21-.9,2.3-1-.08,2.15-.19,4-.19,4l-2.2,14s-2.11,5.33-.77,5.7a.77.77,0,0,0,.65-.2c-.72,3.79-1.13,6.63-1.13,6.63S685.19,289.91,687,289.89Zm23.53-23.06a12,12,0,0,1-.88-7.37,5,5,0,0,1,.59.2A62.27,62.27,0,0,1,710.54,266.83Z" transform="translate(-96.78 -42.46)" fill="url(#549e9c6d-8aed-485a-9659-a9e13b2b3857)"/><path d="M700,304.5c.13.45.26,1,.38,1.5a21.87,21.87,0,0,1,.52,6.34c-.25,3.94-.57,10.79.2,12.14s.48,4.81.23,6.93c-.12,1-.23,1.69-.23,1.69l4.31-.46.14-1,.87-6.33s2.29-13.84,1.56-14.84,0-5.59,0-5.59l1.47-8.06,1-5,1.13-5.74-10.35.73s-.2,1.83-.45,4.32C700.28,295.95,699.65,303.23,700,304.5Z" transform="translate(-96.78 -42.46)" fill="#ffbcc8"/><path d="M686.82,286l.89,4.53,1.22,6.19,1.47,8.06s.73,4.58,0,5.59,1.56,14.84,1.56,14.84l.87,6.33.14,1,4.31.46s-.11-.7-.23-1.71c-.25-2.12-.51-5.6.23-6.91s.46-8.07.21-12a22.75,22.75,0,0,1,.57-6.7c.11-.44.21-.87.32-1.25.34-1.19-.19-7.62-.65-12.39-.28-3-.54-5.3-.54-5.3Z" transform="translate(-96.78 -42.46)" fill="#ffbcc8"/><circle cx="601.49" cy="178.11" r="3.94" fill="#40243e"/><path d="M695.56,217l.24-.13a3.94,3.94,0,0,0,3.84,6.85l-.23.14a3.94,3.94,0,0,1-3.85-6.87Z" transform="translate(-96.78 -42.46)" fill="#40243e"/><path d="M689,234.1l-.21-.17a3.94,3.94,0,0,0,4.68-6.31l.23.16a3.94,3.94,0,0,1-4.7,6.33Z" transform="translate(-96.78 -42.46)" fill="#40243e"/><path d="M699.21,230.07l-.21-.17a3.94,3.94,0,0,0,4.68-6.31l.23.16a3.94,3.94,0,0,1-4.7,6.33Z" transform="translate(-96.78 -42.46)" fill="#40243e"/><circle cx="601.95" cy="187" r="7.24" fill="#40243e"/><path d="M684.43,283.8c1.28.37,3.67-5.5,3.67-5.5l4.58-13.93-.14-4.86L692.22,249l13.65.37s2.57,6.6,3.48,8.43a5.26,5.26,0,0,1,.37,1.38,64.73,64.73,0,0,1,.36,8.7l1,9.8s.09,4.86,1.74,3.94,1.83-4.76,1.83-4.76L714,261.07s0-.19,0-.54a109.86,109.86,0,0,0-.3-13.57q-.06-.58-.12-1.09c-.59-4.83-1.26-5.2-6.66-6.06-3.08-.49-4.28-2.15-4.73-3.59a5.66,5.66,0,0,1-.22-2.37s-6.23-4.86-5.5,1a5.31,5.31,0,0,1-.12,2.08c-.75,2.74-3.77,3.89-5.6,4.34a5.11,5.11,0,0,0-3.88,5.3v0a7.81,7.81,0,0,0,.34,1.79,45.26,45.26,0,0,0,.18,5.5,49.06,49.06,0,0,1,0,5.64c-.08,2.41-.2,4.62-.2,4.62l-2.11,13.93S683.15,283.43,684.43,283.8Z" transform="translate(-96.78 -42.46)" fill="#ffbcc8"/><path d="M696.41,236.94a6,6,0,0,0,5.84-.72,5.66,5.66,0,0,1-.22-2.37s-6.23-4.86-5.5,1A5.31,5.31,0,0,1,696.41,236.94Z" transform="translate(-96.78 -42.46)" opacity="0.1"/><circle cx="601.9" cy="188.69" r="6.05" fill="#ffbcc8"/><path d="M701.11,333.09l4.31-.46.14-1a4.85,4.85,0,0,0-2.15-1c-.35-.12-1.21.28-1.8.59a1,1,0,0,0-.26.2C701.22,332.4,701.11,333.09,701.11,333.09Z" transform="translate(-96.78 -42.46)" opacity="0.1"/><path d="M703.4,330.8s2.11.37,2.75,1.83a9.72,9.72,0,0,0,1.65,3.85l0,0a1.86,1.86,0,0,1-1.48,3h-3.48a1.86,1.86,0,0,1-1.5-.76l-1-1.32a1.57,1.57,0,0,1-.22-1.43,15.33,15.33,0,0,0,.84-3.69,1.08,1.08,0,0,1,.57-.91C702.19,331.08,703.05,330.68,703.4,330.8Z" transform="translate(-96.78 -42.46)" fill="#dfd5e3"/><path d="M692.82,331.54l.14,1,4.31.46s-.11-.7-.23-1.71a1,1,0,0,0-.22-.15c-.59-.31-1.48-.73-1.84-.61A4.85,4.85,0,0,0,692.82,331.54Z" transform="translate(-96.78 -42.46)" opacity="0.1"/><path d="M695,330.71s-2.11.37-2.75,1.83a9.72,9.72,0,0,1-1.65,3.85l0,0a1.86,1.86,0,0,0,1.48,3h3.48a1.86,1.86,0,0,0,1.5-.76l.85-1.16a1.94,1.94,0,0,0,.28-1.76,14.6,14.6,0,0,1-.79-3.57,1,1,0,0,0-.53-.84C696.23,331,695.33,330.59,695,330.71Z" transform="translate(-96.78 -42.46)" fill="#dfd5e3"/><path d="M701.2,286.82s-.2,1.83-.45,4.32c1.92-.23,3.87-.07,4.29-.19s3.21.79,5.38.89l1.13-5.74Z" transform="translate(-96.78 -42.46)" opacity="0.1"/><path d="M686.82,286l.89,4.53a5.16,5.16,0,0,1,2.68.42c.87.78,4.95,2,7.32,1.08-.28-3-.54-5.3-.54-5.3Z" transform="translate(-96.78 -42.46)" opacity="0.1"/><path d="M710.55,256.22s-3.39,5,0,11.73,6.32,20.62,6.32,20.62-3.12-.27-3.94,1.83-7.24-.18-7.88,0-4.67-.27-7,.92-6.78-.09-7.7-.92-6.41-.18-6.41-.18,2.93-21.44,7.06-25.11c0,0,2.47-3-.64-8.06S710.55,256.22,710.55,256.22Z" transform="translate(-96.78 -42.46)" fill="#ff808e"/><path d="M687.27,248.43a45.26,45.26,0,0,0,.18,5.5,49.06,49.06,0,0,1,0,5.64,14.27,14.27,0,0,1,3.83,0,3.84,3.84,0,0,0,1.23-.09c1.5-.28,3.78-1,4.45-1.83.92-1.1,3.85.73,4.49,1.19s4.49.64,5.5.18a3.6,3.6,0,0,1,2.75.1,5.18,5.18,0,0,1,1.46.91,3.45,3.45,0,0,0,2.86.47,109.86,109.86,0,0,0-.3-13.57q-.06-.58-.12-1.09c-3.86-.43-14.26-.29-14.26-.29s-9,.2-12.43,1A7.81,7.81,0,0,0,687.27,248.43Z" transform="translate(-96.78 -42.46)" opacity="0.1"/><ellipse cx="601.54" cy="184.53" rx="5.54" ry="3.21" opacity="0.1"/><ellipse cx="601.54" cy="184.34" rx="5.54" ry="3.21" fill="#40243e"/><path d="M708.76,240.78c-.18,0-4.95,0-5.77-.18" transform="translate(-96.78 -42.46)" opacity="0.1"/><path d="M694.93,241.69a16.54,16.54,0,0,1-3.76-.18" transform="translate(-96.78 -42.46)" opacity="0.1"/><path d="M702.37,245s-2.41,1.26-2.52,2.54c0,0-.9-2.38-2.17-2.49" transform="translate(-96.78 -42.46)" opacity="0.05"/><path d="M700.41,337.2l1,1.32a1.86,1.86,0,0,0,1.5.76h3.48a1.86,1.86,0,0,0,1.86-1.73,1.86,1.86,0,0,1-1.86,2h-3.48a1.86,1.86,0,0,1-1.5-.76l-1-1.32a1.57,1.57,0,0,1-.3-1.07A1.57,1.57,0,0,0,700.41,337.2Z" transform="translate(-96.78 -42.46)" opacity="0.1"/><path d="M692,339.18h3.48a1.86,1.86,0,0,0,1.5-.76l.85-1.16a2,2,0,0,0,.37-1,2,2,0,0,1-.37,1.29L697,338.7a1.86,1.86,0,0,1-1.5.76H692a1.86,1.86,0,0,1-1.86-2A1.86,1.86,0,0,0,692,339.18Z" transform="translate(-96.78 -42.46)" opacity="0.1"/><g opacity="0.05"><path d="M691,265.1s2.47-3-.64-8.06c-.83-1.34.21-2,2.17-2.31-.34.37-.36.85,0,1.48,3.12,5,.64,8.06.64,8.06-4.12,3.67-7.06,25.11-7.06,25.11s5.5-.64,6.41.18,5.41,2.11,7.7.92,6.32-.73,7-.92c.43-.12,3.45.87,5.65.9-.94,2-7.21-.25-7.85-.07s-4.67-.27-7,.92-6.78-.09-7.7-.92-6.41-.18-6.41-.18S686.91,268.77,691,265.1Z" transform="translate(-96.78 -42.46)"/><path d="M716.76,288.05l.11.51a5.9,5.9,0,0,0-1,0A3.2,3.2,0,0,1,716.76,288.05Z" transform="translate(-96.78 -42.46)"/></g><path d="M699.37,246.23s12.92-.18,15.3.46,1,14,1,14-3,1.28-4.49,0a4.17,4.17,0,0,0-4.21-1c-1,.46-4.86.27-5.5-.18s-3.57-2.29-4.49-1.19-4.86,2.11-5.68,1.92-5.41-.46-6,1c0,0-.73-12.19.46-13.47S699.37,246.23,699.37,246.23Z" transform="translate(-96.78 -42.46)" opacity="0.1"/><path d="M699.37,245.77s12.92-.18,15.3.46,1,14,1,14-3,1.28-4.49,0a4.17,4.17,0,0,0-4.21-1c-1,.46-4.86.27-5.5-.18s-3.57-2.29-4.49-1.19-4.86,2.11-5.68,1.92-5.41-.46-6,1c0,0-.73-12.19.46-13.47S699.37,245.77,699.37,245.77Z" transform="translate(-96.78 -42.46)" fill="#ff808e"/><rect x="472.4" y="414" width="234.93" height="234.93" fill="url(#e1e1cea0-d819-4aa2-877a-83e3a575c08a)"/><rect x="572.65" y="459.92" width="228.01" height="228.01" transform="translate(1276.52 1105.4) rotate(-180)" fill="#fff"/><rect x="583.03" y="470.31" width="207.24" height="155.3" transform="translate(1276.52 1053.46) rotate(-180)" fill="#ffffff" opacity="0.5"/><ellipse cx="639.56" cy="563.65" rx="36.11" ry="5.5" fill="#ffffff" opacity="0.1"/><circle cx="523.55" cy="449.94" r="8.54" fill="#ffdf9c"/><path d="M752.94,572.16s-.89,1.16.41,2.91,2.37,3.23,1.93,4.32c0,0-2-3.25-3.55-3.3S751.19,574.12,752.94,572.16Z" transform="translate(-96.78 -42.46)" fill="#ffffff"/><path d="M752.94,572.16a1.44,1.44,0,0,0-.18.36c-1.55,1.83-2.38,3.53-.89,3.57s3.06,2.53,3.46,3.16l0,.14s-2-3.25-3.55-3.3S751.19,574.12,752.94,572.16Z" transform="translate(-96.78 -42.46)" opacity="0.1"/><path d="M751.29,573.64c0,.41,0,.74.1.74s.1-.33.1-.74-.06-.22-.11-.22S751.29,573.23,751.29,573.64Z" transform="translate(-96.78 -42.46)" fill="#ffd037"/><path d="M750.72,574.13c.36.2.67.31.7.26s-.24-.25-.6-.44-.22-.05-.24,0S750.36,573.93,750.72,574.13Z" transform="translate(-96.78 -42.46)" fill="#ffd037"/><path d="M757.63,572.16s.89,1.16-.41,2.91-2.37,3.23-1.93,4.32c0,0,2-3.25,3.55-3.3S759.38,574.12,757.63,572.16Z" transform="translate(-96.78 -42.46)" fill="#ffffff"/><path d="M757.63,572.16a1.44,1.44,0,0,1,.18.36c1.55,1.83,2.38,3.53.89,3.57s-3.06,2.53-3.46,3.16l0,.14s2-3.25,3.55-3.3S759.38,574.12,757.63,572.16Z" transform="translate(-96.78 -42.46)" opacity="0.1"/><path d="M759.28,573.64c0,.41,0,.74-.1.74s-.1-.33-.1-.74.06-.22.11-.22S759.28,573.23,759.28,573.64Z" transform="translate(-96.78 -42.46)" fill="#ffd037"/><path d="M759.84,574.13c-.36.2-.67.31-.7.26s.24-.25.6-.44.22-.05.24,0S760.2,573.93,759.84,574.13Z" transform="translate(-96.78 -42.46)" fill="#ffd037"/><path d="M759,579.25s-2.48-.08-3.23-.61-3.82-1.17-4-.31-3.73,4.25-.93,4.27,6.51-.44,7.26-.89S759,579.25,759,579.25Z" transform="translate(-96.78 -42.46)" fill="#a8a8a8"/><path d="M750.78,582.3c2.8,0,6.51-.44,7.26-.89.57-.35.79-1.59.87-2.16H759s-.16,2-.9,2.46-4.45.91-7.26.89c-.81,0-1.09-.29-1.07-.72C749.87,582.13,750.18,582.29,750.78,582.3Z" transform="translate(-96.78 -42.46)" opacity="0.2"/><rect x="573.06" y="461.24" width="33.95" height="11.45" fill="#e2e7f0"/><rect x="692.75" y="504.14" width="8.63" height="10.54" transform="translate(1297.35 976.36) rotate(-180)" fill="#fff" opacity="0.4"/><rect x="694.49" y="507.29" width="5.06" height="4.07" transform="translate(1297.26 976.19) rotate(-180)" fill="#d8e2f0"/><rect x="682.29" y="504.14" width="8.63" height="10.54" transform="translate(1276.43 976.36) rotate(-180)" fill="#fff" opacity="0.4"/><rect x="684.03" y="507.29" width="5.06" height="4.07" transform="translate(1276.35 976.19) rotate(-180)" fill="#d8e2f0"/><rect x="671.83" y="504.14" width="8.63" height="10.54" transform="translate(1255.52 976.36) rotate(-180)" fill="#fff" opacity="0.4"/><rect x="673.58" y="507.29" width="5.06" height="4.07" transform="translate(1255.43 976.19) rotate(-180)" fill="#d8e2f0"/><path d="M669.84,503.7v.85h33.95v-.85Z" transform="translate(-96.78 -42.46)" opacity="0.1"/><path d="M671.46,497.09l4.52-3.48h21.94l4.17,3.46h0a12.08,12.08,0,0,0,7.54,1s-.16,6-6,6h-34s-4.88.22-5.59-6A13.64,13.64,0,0,0,671.46,497.09Z" transform="translate(-96.78 -42.46)" fill="#ffffff"/><rect x="565.41" y="484.63" width="47.97" height="16.19" fill="#e2e7f0"/><rect x="694.57" y="526.39" width="12.2" height="14.9" transform="translate(1304.55 1025.22) rotate(-180)" fill="#fff" opacity="0.4"/><rect x="697.03" y="530.85" width="7.16" height="5.75" transform="translate(1304.43 1024.98) rotate(-180)" fill="#d8e2f0"/><rect x="679.79" y="526.39" width="12.2" height="14.9" transform="translate(1274.99 1025.22) rotate(-180)" fill="#fff" opacity="0.4"/><rect x="682.25" y="530.85" width="7.16" height="5.75" transform="translate(1274.87 1024.98) rotate(-180)" fill="#d8e2f0"/><rect x="665.01" y="526.39" width="12.2" height="14.9" transform="translate(1245.43 1025.22) rotate(-180)" fill="#fff" opacity="0.4"/><rect x="667.47" y="530.85" width="7.16" height="5.75" transform="translate(1245.31 1024.98) rotate(-180)" fill="#d8e2f0"/><rect x="656.44" y="561.11" width="58.3" height="20.41" transform="translate(1274.4 1100.17) rotate(-180)" fill="#ffffff"/><rect x="656.44" y="561.11" width="58.3" height="20.41" transform="translate(1274.4 1100.17) rotate(-180)" fill="#e2e7f0"/><rect x="691.05" y="561.11" width="17.59" height="19.94" transform="translate(1302.91 1099.7) rotate(-180)" fill="#d8e2f0"/><rect x="694.57" y="561.11" width="10.56" height="19.94" transform="translate(1302.91 1099.7) rotate(-180)" fill="#fff" opacity="0.4"/><rect x="697.5" y="564.04" width="5.28" height="14.19" transform="translate(1303.49 1099.82) rotate(-180)" fill="#d8e2f0"/><rect x="662.78" y="561.11" width="17.59" height="19.94" transform="translate(1246.37 1099.7) rotate(-180)" fill="#d8e2f0"/><rect x="666.3" y="561.11" width="10.56" height="19.94" transform="translate(1246.37 1099.7) rotate(-180)" fill="#fff" opacity="0.4"/><rect x="669.23" y="564.04" width="5.28" height="14.19" transform="translate(1246.96 1099.82) rotate(-180)" fill="#d8e2f0"/><path d="M723.07,580.58V561.07c11.28-.81,11.61-12.74,11.61-12.74a25.85,25.85,0,0,1-16.12-2.23h0l-8.91-7.39H662.78l-9.68,7.46a29.15,29.15,0,0,1-15.89,2.16c1.39,12.08,10.18,12.76,11.73,12.79v19.47m0,0h74.13m-4.11,0H653m0,0V561.11H719v19.47" transform="translate(-96.78 -42.46)" fill="#ffffff"/><rect x="565.41" y="484.63" width="47.97" height="2.08" opacity="0.1"/><path d="M663.41,518.13l6.5-5.28h33.9l6,5.23h0a18.29,18.29,0,0,0,11.4,1.58s-.25,9-9.09,9H660.63s-7.39.33-8.47-9A20.62,20.62,0,0,0,663.41,518.13Z" transform="translate(-96.78 -42.46)" fill="#ffffff"/><rect x="656.5" y="561.05" width="58.3" height="0.59" transform="translate(1274.52 1080.24) rotate(-180)" opacity="0.1"/><path d="M718.55,546.16H653.1A492.69,492.69,0,0,0,718.55,546.16Z" transform="translate(-96.78 -42.46)" opacity="0.1"/><path d="M710.22,518h-46.8A252.23,252.23,0,0,0,710.22,518Z" transform="translate(-96.78 -42.46)" opacity="0.1"/><path d="M702.13,497H671.4A109.12,109.12,0,0,0,702.13,497Z" transform="translate(-96.78 -42.46)" opacity="0.1"/><rect x="599.61" y="580.41" width="163.13" height="4.4" transform="translate(1265.56 1122.76) rotate(-180)" fill="#d8e2f0"/><path d="M750.38,540.06a12.34,12.34,0,0,0,2,2.17c1.86,1.43,4.43,1.34,6.78,1.51a9.68,9.68,0,0,0,2.6,0,3.3,3.3,0,0,0,.95-.35,2.35,2.35,0,0,0,1.3-1.27c.42-1.15-.35-2.39-1.25-3.22a9.39,9.39,0,0,1-2.51-2.65c-.68-1.49-.13-3.38-1-4.78a1.47,1.47,0,0,0-.7-.64,3.13,3.13,0,0,0-1.2,0,4.29,4.29,0,0,1-3.63-2.57c-.73-1.38-1-2.95-1.7-4.36a7.37,7.37,0,0,0-3.64-3.71,26,26,0,0,0-3-.85,35.23,35.23,0,0,0-3.38-1.05,4.22,4.22,0,0,0-2.79.35,2.73,2.73,0,0,0-.79.52c-.8.77-1,2-1.8,2.78a3,3,0,0,0-.8,1c-.21.58.34.83.91,1a5.45,5.45,0,0,0-.68,2.65,5.5,5.5,0,0,0,4.87,5.46l.15.26h0a15.48,15.48,0,0,1,.9,1.84,3.68,3.68,0,0,0-.27,1.73,2,2,0,0,0,.83,1.23,8.36,8.36,0,0,0-2,1.66,4.91,4.91,0,0,1-2.13,1.63l-.26.08a3,3,0,0,0-1.76,3.74c.63,3-.76,7.58-.76,7.58l-.51,3.79v.13l-4.56,3s-7.24,2.4-4.82,5.18,6.22-3,6.22-3l2.81-1.29-.07.66c-.37,3.48-1,8-1.73,10.11l0,0-.93,3.49-1.65,7.71s-.89,1.64,0,5.05l-2.92,9.47h0v.07l0,.06v0a32.16,32.16,0,0,1-1.88,5.21v0l-.15.26,0,0-.08.12h0l0,.05,0,0,0,0,0,0a.72.72,0,0,0-.88.15,2.44,2.44,0,0,0-.34.45c-.51.88-4.32,1.64-5.08,1.39s-3.43-.51-2.79,1.39,12.06,4.67,12.06,4.67,1.27-1.77,1.14-3a14.44,14.44,0,0,1,0-2.53,4.7,4.7,0,0,1-.53.41v-.08l0-.13.08-.33v0l0-.09,0-.07,0-.07,0-.15v0l0-.13v-.05l0-.14v0l.05-.18v0l0-.14,0-.05.05-.16v0l.06-.18,0-.05,0-.13,0-.06.06-.16v0l.06-.15,0-.06,0-.11,0-.06.07-.15,0,0,.05-.11,0-.06.05-.1,0,0,.07-.13,0,0,.05-.09,0,0,.06-.09,0,0,.08-.11,0,0,.06-.07,0,0,.08-.08c1-.88,4.32-9.73,4.32-9.73l1-6.19s2.54-6.78,5.08-9.65l4.57,7.63a44.39,44.39,0,0,0,4.06,4.93s3.3,6.57,5.46,9.22a7.35,7.35,0,0,1,1.38,4.84c0,.3,0,.58-.05.83a3.18,3.18,0,0,1-1.7,2c-1.9.76-4.57,2-3.68,3.16s3.93,2.15,6.6,1.26a47.31,47.31,0,0,0,6.47-3L762,601a8.65,8.65,0,0,1-.45.81l-.16-.21c-1-1.53-2.69-6.67-2.69-6.67-1.65-7.71-6-11.37-6-11.37l-2-4-2.13-8.28a13.1,13.1,0,0,0,1.27-.62.93.93,0,0,0,1.49.05c2.54-2.27-.51-7.83-.51-7.83s-.13-2.78,0-4.8-1.14-6.19-1.14-6.19l-.84-5.23,1.09-3.11A16.22,16.22,0,0,0,750.38,540.06Zm-2.81,17.24a10.82,10.82,0,0,1,.58,3.56,6.86,6.86,0,0,0-1.47-1.67s-2.53-3.92-.67-6.78c.2-.31.39-.62.59-.94A22.06,22.06,0,0,0,747.57,557.3Z" transform="translate(-96.78 -42.46)" fill="url(#364d07ef-0e53-4704-b8c0-22d98fef47cf)"/><path d="M748.51,546l1,6.17s1.24,4.07,1.12,6,0,4.69,0,4.69,3,5.43.5,7.65-3.22-7-3.22-7,.37-3.95-.5-6-1-6.66-1-6.66Z" transform="translate(-96.78 -42.46)" fill="#ffcdd3"/><path d="M748.51,546l1,6.17s1.24,4.07,1.12,6,0,4.69,0,4.69,3,5.43.5,7.65-3.22-7-3.22-7,.37-3.95-.5-6-1-6.66-1-6.66Z" transform="translate(-96.78 -42.46)" opacity="0.05"/><path d="M734,567.2l-1.72,6.42-1.61,7.53s-.87,1.6,0,4.94l-2.85,9.25s-1.61,5.92-2.6,6,1,4.69,1,4.69l2.73-1.6s.74-3.7,1.74-4.57,4.22-9.5,4.22-9.5l1-6s3.1-8.27,5.83-10.24a10.47,10.47,0,0,0,3.6-5.18Z" transform="translate(-96.78 -42.46)" fill="#ffcdd3"/><path d="M745.29,568.93a10.47,10.47,0,0,1-3.6,5.18c-2.73,2-5.83,10.24-5.83,10.24l-1,6s-3.22,8.64-4.22,9.5c-.73.63-1.32,2.8-1.59,3.9-.1.4-.15.66-.15.66l-2.73,1.6s-2-4.57-1-4.69c.15,0,.32-.18.5-.43,1-1.38,2.11-5.61,2.11-5.61l2.85-9.25c-.87-3.33,0-4.94,0-4.94l1.61-7.53L734,567.2Z" transform="translate(-96.78 -42.46)" opacity="0.05"/><path d="M761.16,601l-1,2.34-4.46-.49a10.25,10.25,0,0,0,.23-1.94,7.18,7.18,0,0,0-1.34-4.73c-2.11-2.59-5.33-9-5.33-9a43.36,43.36,0,0,1-4-4.81L739.08,572l.19-.93-1.67-1.54H748l2.48,9.62,2,3.95s4.22,3.58,5.83,11.11c0,0,1.61,5,2.63,6.51A1.8,1.8,0,0,0,761.16,601Z" transform="translate(-96.78 -42.46)" fill="#ffcdd3"/><path d="M729.07,603.81c-.1.4-.15.66-.15.66l-2.73,1.6s-2-4.57-1-4.69c.15,0,.32-.18.5-.43a.69.69,0,0,1,.32.77,1.91,1.91,0,0,1-.2.53c-.37.62,1.24,1.6,1.24,1.6C727.61,604.55,728.49,604.18,729.07,603.81Z" transform="translate(-96.78 -42.46)" opacity="0.1"/><path d="M725.9,602a.72.72,0,0,0-1.23-.65,2.39,2.39,0,0,0-.33.44c-.5.86-4.22,1.6-5,1.36s-3.35-.49-2.73,1.36S728.43,609,728.43,609a5.76,5.76,0,0,0,1.12-3,14.1,14.1,0,0,1,0-2.47s-1.74,1.6-2.6.49c0,0-1.61-1-1.24-1.6A1.91,1.91,0,0,0,725.9,602Z" transform="translate(-96.78 -42.46)" fill="#dce6f2"/><path d="M761.16,601l-1,2.34-4.46-.49a10.25,10.25,0,0,0,.23-1.94.61.61,0,0,1,1-.14c.23.25.46.51.64.72.5.62,2.11.25,2.11.25.42.14.91-.46,1.27-1A1.8,1.8,0,0,0,761.16,601Z" transform="translate(-96.78 -42.46)" opacity="0.1"/><path d="M757.05,601a.61.61,0,0,0-1,.26,3.39,3.39,0,0,1-1.8,2.44c-1.86.74-4.46,2-3.6,3.08s3.84,2.1,6.45,1.23a46.2,46.2,0,0,0,6.32-3l-1.86-4.94s-1,2.1-1.74,1.85c0,0-1.61.37-2.11-.25C757.52,601.54,757.28,601.28,757.05,601Z" transform="translate(-96.78 -42.46)" fill="#dce6f2"/><path d="M740.21,531.67s3,4.07,2.23,6.91,6-1.85,6-1.85a9.83,9.83,0,0,1-2.85-8.14Z" transform="translate(-96.78 -42.46)" fill="#ffcdd3"/><path d="M750,570.29c-5,3-10.91,1.73-10.91,1.73l.12-.86-.26,0c-4.74.42-5.82-1-5.82-1a55.63,55.63,0,0,0,1.68-9.87c.05-.49.1-1,.14-1.39.1-1,.17-1.82.22-2.39s.06-.78.06-.78l.5-3.7s1.36-4.44.74-7.4A3,3,0,0,1,738.2,541l.25-.07a4.79,4.79,0,0,0,2.08-1.59,8.36,8.36,0,0,1,3.48-2.36c.62-.23,1.15-.47,1.15-.47.87-1,3.22-.37,3.22-.37,2.85,1.85,1.36,7.9,1.36,7.9l-1.19,3.37a25,25,0,0,1-2.69,5.3c-1.82,2.8.65,6.63.65,6.63C750.37,562.39,750,570.29,750,570.29Z" transform="translate(-96.78 -42.46)" fill="#ff748e"/><path d="M739.4,564.55l-.44,6.63c-4.74.42-5.82-1-5.82-1a55.63,55.63,0,0,0,1.68-9.87c.05-.49.1-1,.14-1.39Z" transform="translate(-96.78 -42.46)" opacity="0.05"/><path d="M747.27,547.22s-2.23,4.2-3,6-.74,1.23-1.12,1.85a37.68,37.68,0,0,1-4.34,3.33l-4,1.85c.17-1.59.29-3,.36-3.78L739,554s2.6-1.6,2.73-3.7a25.39,25.39,0,0,1,1.74-5.92s3.22-3.45,4.59-1.85S747.27,547.22,747.27,547.22Z" transform="translate(-96.78 -42.46)" opacity="0.1"/><path d="M743.43,543.76a25.39,25.39,0,0,0-1.74,5.92c-.12,2.1-2.73,3.7-2.73,3.7l-8.18,5.43s-7.07,2.34-4.71,5.06,6.07-3,6.07-3l6.69-3.08a37.68,37.68,0,0,0,4.34-3.33c.37-.62.37,0,1.12-1.85s3-6,3-6,2.11-3.08.74-4.69S743.43,543.76,743.43,543.76Z" transform="translate(-96.78 -42.46)" fill="#ffcdd3"/><path d="M742.44,545.37a30.79,30.79,0,0,0,3-2.47.7.7,0,0,1,.87-.1,3.92,3.92,0,0,0,1.84.3c.54,0,1.07,0,1,.29-.12.62.37-3.21.37-3.21l-2.11-.74-2.73,1.48Z" transform="translate(-96.78 -42.46)" opacity="0.1"/><path d="M742.44,545.12a30.79,30.79,0,0,0,3-2.47.7.7,0,0,1,.87-.1,3.92,3.92,0,0,0,1.84.3c.54,0,1.07,0,1,.29-.12.62.37-3.21.37-3.21l-2.11-.74-2.73,1.48Z" transform="translate(-96.78 -42.46)" fill="#ff748e"/><path d="M736.6,545.37a3.05,3.05,0,0,0,2.8-.19" transform="translate(-96.78 -42.46)" opacity="0.1"/><path d="M744.73,528.89c-.09-.74.82.79.93-.06l-5.33,3.08s.3.42.69,1.08a5.47,5.47,0,0,0,.61,0C743.24,533,743.75,530,744.73,528.89Z" transform="translate(-96.78 -42.46)" opacity="0.1"/><ellipse cx="644.73" cy="484.95" rx="5.39" ry="5.37" fill="#ffcdd3"/><path d="M739.09,527.51a2.74,2.74,0,0,0,.19,1c.23.42.71.61,1.12.86a4.59,4.59,0,0,1,1.61,5.14,4.53,4.53,0,0,0-.36,2c.21,1.15,1.53,1.75,2.7,1.85a12.55,12.55,0,0,1,3.5.34c1.84.71,2.65,2.86,4.22,4.06,1.82,1.4,4.33,1.31,6.62,1.47a9.46,9.46,0,0,0,2.54,0,2.56,2.56,0,0,0,1.95-1.46c.42-1.12-.34-2.33-1.22-3.15a9.18,9.18,0,0,1-2.45-2.58c-.67-1.46-.13-3.3-1-4.67a1.44,1.44,0,0,0-.68-.62,3.05,3.05,0,0,0-1.18,0,4.19,4.19,0,0,1-3.55-2.51c-.71-1.35-1-2.88-1.66-4.26a7.2,7.2,0,0,0-3.56-3.62,25.43,25.43,0,0,0-2.93-.83,34.42,34.42,0,0,0-3.3-1,3.72,3.72,0,0,0-3.25.73c-.78.75-1,1.93-1.76,2.72a3,3,0,0,0-.78.93c-.32.91,1.24,1,1.76,1.36A3.41,3.41,0,0,1,739.09,527.51Z" transform="translate(-96.78 -42.46)" opacity="0.1"/><path d="M739.34,527.38a2.74,2.74,0,0,0,.19,1c.23.42.71.61,1.12.86a4.59,4.59,0,0,1,1.61,5.14,4.53,4.53,0,0,0-.36,2c.21,1.15,1.53,1.75,2.7,1.85a12.55,12.55,0,0,1,3.5.34c1.84.71,2.65,2.86,4.22,4.06,1.82,1.4,4.33,1.31,6.62,1.47a9.46,9.46,0,0,0,2.54,0,2.56,2.56,0,0,0,1.95-1.46c.42-1.12-.34-2.33-1.22-3.15a9.18,9.18,0,0,1-2.45-2.58c-.67-1.46-.13-3.3-1-4.67a1.44,1.44,0,0,0-.68-.62,3.05,3.05,0,0,0-1.18,0,4.19,4.19,0,0,1-3.55-2.51c-.71-1.35-1-2.88-1.66-4.26a7.2,7.2,0,0,0-3.56-3.62,25.43,25.43,0,0,0-2.93-.83,34.42,34.42,0,0,0-3.3-1,3.72,3.72,0,0,0-3.25.73c-.78.75-1,1.93-1.76,2.72a3,3,0,0,0-.78.93c-.32.91,1.24,1,1.76,1.36A3.41,3.41,0,0,1,739.34,527.38Z" transform="translate(-96.78 -42.46)" fill="#2d283d"/><rect x="378.81" y="279.77" width="234.93" height="234.93" transform="translate(-60.35 793.67) rotate(-82.34)" fill="url(#7d25b544-ff0a-41fc-9ec4-9e4c7321d1f6)"/><rect x="382.27" y="283.23" width="228.01" height="228.01" transform="translate(838.39 814.62) rotate(-172.34)" fill="#fff"/><rect x="396.11" y="293.85" width="207.24" height="155.3" transform="translate(848.71 763.84) rotate(-172.34)" fill="#ffffff" opacity="0.5"/><path d="M432.56,371.21s-4,5.8-1.88,9.56-1.94,12.66-1.94,12.66" transform="translate(-96.78 -42.46)" fill="none" stroke="#ffffff" stroke-miterlimit="10"/><path d="M431.88,369.14a3.69,3.69,0,0,0,.59,2.29,3.15,3.15,0,0,0,.58-4.35A3.69,3.69,0,0,0,431.88,369.14Z" transform="translate(-96.78 -42.46)" fill="#ffffff"/><path d="M430.92,371s2.34,6.66-.71,9.72-1.47,12.73-1.47,12.73" transform="translate(-96.78 -42.46)" fill="none" stroke="#ffffff" stroke-miterlimit="10"/><path d="M432.12,369.17a3.69,3.69,0,0,1-1.17,2.06,3.15,3.15,0,0,1,.58-4.35A3.69,3.69,0,0,1,432.12,369.17Z" transform="translate(-96.78 -42.46)" fill="#ffffff"/><path d="M432.12,369.17a3.69,3.69,0,0,1-1.17,2.06,3.15,3.15,0,0,1,.58-4.35A3.69,3.69,0,0,1,432.12,369.17Z" transform="translate(-96.78 -42.46)" opacity="0.1"/><path d="M429.62,370.81s-4,5.8-1.88,9.56S425.8,393,425.8,393" transform="translate(-96.78 -42.46)" fill="none" stroke="#ffffff" stroke-miterlimit="10"/><path d="M428.94,368.75a3.69,3.69,0,0,0,.59,2.29,3.15,3.15,0,0,0,.58-4.35A3.69,3.69,0,0,0,428.94,368.75Z" transform="translate(-96.78 -42.46)" fill="#ffffff"/><path d="M428.77,373.8a3.69,3.69,0,0,0,2,1.24,3.15,3.15,0,0,0-2.59-3.54A3.69,3.69,0,0,0,428.77,373.8Z" transform="translate(-96.78 -42.46)" fill="#ffffff"/><path d="M428.11,378.09a3.69,3.69,0,0,0,2,1.24,3.15,3.15,0,0,0-2.59-3.54A3.69,3.69,0,0,0,428.11,378.09Z" transform="translate(-96.78 -42.46)" fill="#ffffff"/><path d="M432.3,381.06a3.69,3.69,0,0,0-1.06,2.12,3.15,3.15,0,0,0,3.29-2.9A3.69,3.69,0,0,0,432.3,381.06Z" transform="translate(-96.78 -42.46)" fill="#ffffff"/><path d="M432.81,371.8a3.69,3.69,0,0,0-1.59,1.76,3.15,3.15,0,0,0,3.95-1.92A3.69,3.69,0,0,0,432.81,371.8Z" transform="translate(-96.78 -42.46)" fill="#ffffff"/><path d="M432.81,371.8a3.69,3.69,0,0,0-1.59,1.76,3.15,3.15,0,0,0,3.95-1.92A3.69,3.69,0,0,0,432.81,371.8Z" transform="translate(-96.78 -42.46)" opacity="0.1"/><path d="M428,370.59s2.34,6.66-.71,9.72S425.8,393,425.8,393" transform="translate(-96.78 -42.46)" fill="none" stroke="#ffffff" stroke-miterlimit="10"/><path d="M429.18,368.78a3.69,3.69,0,0,1-1.17,2.06,3.15,3.15,0,0,1,.58-4.35A3.69,3.69,0,0,1,429.18,368.78Z" transform="translate(-96.78 -42.46)" fill="#ffffff"/><path d="M429.18,368.78a3.69,3.69,0,0,1-1.17,2.06,3.15,3.15,0,0,1,.58-4.35A3.69,3.69,0,0,1,429.18,368.78Z" transform="translate(-96.78 -42.46)" opacity="0.1"/><path d="M428.24,373.83a3.69,3.69,0,0,1,.61,2.29,3.15,3.15,0,1,1-.61-2.29Z" transform="translate(-96.78 -42.46)" fill="#ffffff"/><path d="M428.24,373.83a3.69,3.69,0,0,1,.61,2.29,3.15,3.15,0,1,1-.61-2.29Z" transform="translate(-96.78 -42.46)" opacity="0.1"/><path d="M425.79,379.56a3.69,3.69,0,0,1,.61,2.29,3.15,3.15,0,1,1-.61-2.29Z" transform="translate(-96.78 -42.46)" fill="#ffffff"/><path d="M428.4,378.57s-1.51-3.27-4.18-3.69" transform="translate(-96.78 -42.46)" fill="none" stroke="#ffffff" stroke-miterlimit="10"/><path d="M430.13,377s2.32-2.75,5-2.46" transform="translate(-96.78 -42.46)" fill="none" stroke="#ffffff" stroke-miterlimit="10"/><path d="M429.8,381.29s-1.51-3.27-4.18-3.69" transform="translate(-96.78 -42.46)" fill="none" stroke="#ffffff" stroke-miterlimit="10"/><circle cx="424.31" cy="374.87" r="0.5" transform="translate(-100.55 702.97) rotate(-82.34)" fill="#ffffff"/><circle cx="435.09" cy="374.51" r="0.5" transform="translate(-90.86 713.33) rotate(-82.34)" fill="#ffffff"/><path d="M428.26,382.09s2.32-2.75,5-2.46" transform="translate(-96.78 -42.46)" fill="none" stroke="#ffffff" stroke-miterlimit="10"/><circle cx="433.22" cy="379.64" r="0.5" transform="translate(-97.56 715.93) rotate(-82.34)" fill="#ffffff"/><circle cx="425.58" cy="377.61" r="0.5" transform="translate(-102.16 706.6) rotate(-82.34)" fill="#ffffff"/><path d="M416.7,388.13s4.73-.3,6.12-1.36,7.21-2.47,7.61-.85,7.38,7.87,2,8.09-12.44-.42-13.89-1.24S416.7,388.13,416.7,388.13Z" transform="translate(-96.78 -42.46)" fill="#a8a8a8"/><path d="M432.55,393.43c-5.34.22-12.44-.42-13.89-1.24-1.11-.62-1.62-3-1.8-4.07h-.16s.43,3.81,1.88,4.63,8.55,1.46,13.89,1.24c1.54-.06,2.06-.63,2-1.44C434.27,393.06,433.69,393.38,432.55,393.43Z" transform="translate(-96.78 -42.46)" opacity="0.2"/><path d="M569.69,415.47s-1.79,1.78,0,5.08,3.31,6.08,2.32,7.85c0,0-2.6-6-5.32-6.47S566.24,418.42,569.69,415.47Z" transform="translate(-96.78 -42.46)" fill="#ffffff"/><path d="M569.69,415.47a2.48,2.48,0,0,0-.39.58c-3.08,2.77-4.89,5.5-2.34,5.91,2.37.39,4.66,5,5.2,6.2a2.33,2.33,0,0,1-.11.23s-2.6-6-5.32-6.47S566.24,418.42,569.69,415.47Z" transform="translate(-96.78 -42.46)" opacity="0.1"/><path d="M566.52,417.62c-.09.7-.09,1.28,0,1.29s.25-.54.35-1.24,0-.38-.15-.4S566.62,416.92,566.52,417.62Z" transform="translate(-96.78 -42.46)" fill="#ffd037"/><path d="M565.44,418.33c.57.42,1.08.69,1.14.61s-.36-.48-.93-.9-.36-.14-.42-.06S564.87,417.91,565.44,418.33Z" transform="translate(-96.78 -42.46)" fill="#ffd037"/><path d="M577.72,416.55s1.25,2.19-1.37,4.89-4.8,5-4.31,7c0,0,4.1-5.12,6.84-4.83S580.27,420.3,577.72,416.55Z" transform="translate(-96.78 -42.46)" fill="#ffffff"/><path d="M577.72,416.55a2.48,2.48,0,0,1,.23.67c2.24,3.49,3.27,6.59.7,6.32-2.39-.25-5.82,3.62-6.65,4.61a2.33,2.33,0,0,0,0,.26s4.1-5.12,6.84-4.83S580.27,420.3,577.72,416.55Z" transform="translate(-96.78 -42.46)" opacity="0.1"/><path d="M580.2,419.46c-.09.7-.25,1.26-.35,1.24s-.1-.59,0-1.29.15-.36.24-.34S580.3,418.76,580.2,419.46Z" transform="translate(-96.78 -42.46)" fill="#ffd037"/><path d="M581.06,420.43c-.66.25-1.22.38-1.26.29s.47-.37,1.13-.62.38,0,.42.05S581.72,420.17,581.06,420.43Z" transform="translate(-96.78 -42.46)" fill="#ffd037"/><path d="M578.43,429s-4.23-.7-5.39-1.79-6.27-2.88-6.78-1.46-7.36,6.42-2.57,7.1,11.25.75,12.63.15S578.43,429,578.43,429Z" transform="translate(-96.78 -42.46)" fill="#a8a8a8"/><path d="M563.67,432.33c4.79.68,11.25.75,12.63.15,1.05-.46,1.73-2.54,2-3.5l.14,0s-.73,3.39-2.11,4-7.84.54-12.63-.15c-1.38-.2-1.8-.75-1.67-1.48C562.15,431.84,562.64,432.18,563.67,432.33Z" transform="translate(-96.78 -42.46)" opacity="0.2"/><path d="M435.39,403.92a22.12,22.12,0,1,0,33.33-15.78l-.24-.14,5.35-10.25,22,29.73a4.72,4.72,0,0,0-.69,3.2c-.35.12-.7.26-1,.41a6.89,6.89,0,0,1-3.48.76s-2.91,1.86,2.07,2.91l.28.06-.41,3,11.18,1.5.34-2.5a55.21,55.21,0,0,0,10.6,1.39,22,22,0,1,0,10-19.11l-.26.18-2.14-2.9,2.72-1.7-4.5-3.89a5.12,5.12,0,0,1-.56.86l-.21-.15c-.56-.41-1.39-1-2.25-1.71h0l-.1-.08,1-7.48,0-.3a27.39,27.39,0,0,0,3.29.37c4.83.2,5.84-2.82,4.29-4.83-1.23-1.6-6.65-1.48-8.8-1.36a14.76,14.76,0,0,1-1.65,0h-.26c1.66-2.45,4-5.68,6.79-10.52,3.32-5.7,3.38-9.4,2.86-11.49,0-.67-.44-7.63-3-10.11s-4.55-5.68-7.13-14.66c-1.71-6-5.77-7.52-8.31-7.9h0c.61-.35.94-1,1.51-1.41,1.1-.78,3-.56,3.57-1.74,1.19-2.49-2.87-2.2-4.08-2.52s-1-1.08-1-2a7.8,7.8,0,0,0-1-3.42,2.51,2.51,0,0,0-.72-.84,2.77,2.77,0,0,0-1.34-.37c-1.61-.12-3.26.19-4.83-.18-.6-.14-1.18-.39-1.79-.5a5.07,5.07,0,0,0-5,2.43,8.66,8.66,0,0,0-.93,5.49,4.05,4.05,0,0,0,1,2.55,9.57,9.57,0,0,1,1,.88,4.7,4.7,0,0,1,.46.91,6.38,6.38,0,0,0,0,.8c-.39.19-.76.41-1.12.63a14.1,14.1,0,0,0-6.55,11.9c0,3.82-.49,8.58-.49,8.58A6.2,6.2,0,0,0,487,344l-.17,3.21a12.45,12.45,0,0,1-.31,2.11v.9c0,.05,0,.1,0,.16v0s0,.09,0,.13,0,0,0,.07,0,.08,0,.11,0,.07,0,.11,0,.1,0,.16V351l0,.19v.32l0,.19v.09l0,.15c0,.24.09.5.15.77a19.33,19.33,0,0,1,.32,6.78l-.55,4.12a42.15,42.15,0,0,0-8.7-.19l-.29-.14s-3.64,0-2.69,3.09l.55.24-.12.26-9.46,19.74a22.32,22.32,0,0,0-5.48-1.46A22,22,0,0,0,435.39,403.92Zm11.78,15.93,9.1-10.94a2.41,2.41,0,0,0,.47.19L454,423A16.72,16.72,0,0,1,447.17,419.85ZM462,422.72l-2.88-14.22,0,0,10.37,9.77A16.73,16.73,0,0,1,462,422.72Zm-3.09-32.38-1.36,13.37-.22.45a2.41,2.41,0,0,0-1.12.43l-4.62-13.3A16.74,16.74,0,0,1,458.87,390.35Zm.37,0,.35,0a16.91,16.91,0,0,1,3.82,1L458,402.72Zm11.27,6.24,1.16,1.65a16.55,16.55,0,0,1,1.25,2.48l-13,5.1a2.38,2.38,0,0,0-.36-.72l6.5-12.46.24.15A16.74,16.74,0,0,1,470.51,396.63Zm3.48,12-14-1.64,0-.09a2.36,2.36,0,0,0,0-.62L473,401.11A16.31,16.31,0,0,1,474,408.58Zm-19-2.1a2.35,2.35,0,0,0,.19,1.28l-13,5.93a16.41,16.41,0,0,1,0-13.9l12.81,6.44A2.38,2.38,0,0,0,455,406.49Zm-3.79-15.06,4.66,13.42a4.94,4.94,0,0,0-.7,1l-12.77-6.42A16.62,16.62,0,0,1,451.21,391.43Zm27.58-23.23,5.3,2.36a5.57,5.57,0,0,0,.52.88,2,2,0,0,1,0-.63l8.89,4-.62,3.33-15.56-7.19,1.29-2.47Zm47.79,62.25,9-10.87a2.43,2.43,0,0,0,.53.14l-2.78,13.85A16.72,16.72,0,0,1,526.58,430.46Zm14.79,2.87-2.88-14.22,0,0,10.37,9.77A16.73,16.73,0,0,1,541.37,433.33Zm-2.16-15.8a2.34,2.34,0,0,0-.05-.61l13.31-5.21a16.31,16.31,0,0,1,.95,7.47ZM538.29,401,536.86,415h0a2.42,2.42,0,0,0-.88,0l-.76-1L531,401.9A16.73,16.73,0,0,1,538.29,401Zm-5,14.9-11.5-5.78a16.39,16.39,0,0,1,3-4.24Zm.77.91c-2.18-.87-7.4-2.93-13-4.91l.1-.27q.23-.6.5-1.18l12.27,6.17ZM538.66,401l.35,0a16.81,16.81,0,0,1,5.87,1.93l-6.65,12.53a2.41,2.41,0,0,0-1-.42Zm6.54,2.15a16.74,16.74,0,0,1,4.73,4.09l1.16,1.66a16.55,16.55,0,0,1,1.25,2.48l-13.28,5.2a2.4,2.4,0,0,0-.54-.82Zm-10.83,15.34-12.72,5.82a16.33,16.33,0,0,1-1.5-5.83C526.18,418.64,531.93,418.54,534.37,418.49Zm-18.49-8.39-1.26-.4,0-.3.55-4.11,5.65-4.21.5.6a21.7,21.7,0,0,0-5.39,8.14Zm0-9.74.12-.08-.12.09Zm-3.52-3.16a12.4,12.4,0,0,1-2.94,3.72l.94-6.49a8.84,8.84,0,0,0,.93-2.3l.21.17.12.1.19.16.13.11.16.13.13.11.14.12.12.11.11.1.25.22h0Zm-16.93-32.45-2.59-.37c1.22-.94,2.26-1.66,2.26-1.66l.81-.54Zm-1.27,6.85-6.42-3.19a10,10,0,0,1,1.32-.31l.06-.13c2.1.27,4.08.48,5.6.63Zm-2.82-11.76a16.42,16.42,0,0,1,1.13-4.42l.06-.1v0l0-.11v0l.05-.16v0l0-.17v0c0-.14.07-.29.1-.46v0c0-.17.07-.36.1-.57v0l0-.31h0c0-.22.06-.46.1-.7v0c0-.24.06-.5.09-.76v0q0-.4.08-.81v0l0-.38v-.06l0-.42v0l0-.38v-.12l0-.31v-.1l0-.37v-.18l0-.21,0-.21v-.09l0-.52v-.08c.1-1.44.17-2.85.23-4v-.39c2.94,1.64,4.22,4.62,4.76,7.35a45.77,45.77,0,0,0-3.93,6S493.2,358,491.33,359.85Zm19.49,48.73c-.85-.23-1.66-.44-2.43-.63l.47-3.21h0l2.71-1.69-.7,5.23Zm3.65-27.15-.68,5a24.65,24.65,0,0,0-1.88-1.75l.13,0,.37-2.77a5.65,5.65,0,0,1,.28-1.35c.59.19,1.19.36,1.81.53Zm13.33,22.05a16.73,16.73,0,0,1,2.83-1.43l3.81,11-6.9-9.37Zm21.34,25.12-10.38-9.78a2.35,2.35,0,0,0,.4-.9l14.21,1.66v.08A16.33,16.33,0,0,1,549.14,428.59Zm-15.41,5.07,2.79-13.88a2.41,2.41,0,0,0,1.64-.4l2.84,14a16.8,16.8,0,0,1-6.41.37Zm-11.92-9,12.77-5.84a2.41,2.41,0,0,0,.69.62l-9,10.81A16.71,16.71,0,0,1,521.81,424.64ZM475.3,374.9l.47-.91,26.9,13.35.36,8.77a20.7,20.7,0,0,0,.46,3.68,13.43,13.43,0,0,1-.62,6.37,4.83,4.83,0,0,0-2.1-.81l-.15,0-.15,0a4.86,4.86,0,0,0-1.34,0ZM469.73,418l-10.38-9.78.13-.2a2.35,2.35,0,0,0,.38-.69L474,409V409A16.33,16.33,0,0,1,469.73,418ZM454.32,423l2.79-13.88a2.41,2.41,0,0,0,1.64-.4l2.84,14a16.8,16.8,0,0,1-6.41.37Zm-11.93-9,13-5.94a2.41,2.41,0,0,0,.57.61l-9.07,10.91A16.71,16.71,0,0,1,442.39,414Z" transform="translate(-96.78 -42.46)" fill="url(#fd566b18-7794-46b8-8ccd-c325d9843861)"/><path d="M447.49,419.31l10.8-13.11-.57.23L441.39,414l.12-16.83,16.91,8.57,0-.1v-.09l-1-1-5.61-16.39,8.43-.37,0-.27.36,0,0,.22,5.67-.25,1.27,1.83.17-.32,5.93,9.15,4,5.79-1.16,3.93L460,406l0-.36,16.14,1.88,1-3.46-2.93-4.23-15.07,6,.78.74.07,0v0l12.06,11.48L463,422.93l-3.21-16.1-1.09-.55,0,0-3.53,17.61Zm.55-.09,6.84,4.13,3.29-16.43Zm12.2-12,3,15.13,8.3-4.36Zm-18.38-9.5-.11,15.66,15.82-7.33.41-.16Zm25.5-8-1.26-1.83-5.52.24-1.75,17.22.07.07.55-.67Zm6,8.66-5.75-8.32L459.77,405l-.29.35,14.6-5.79Zm-21-9.89,5.42,15.84.74.7,1.72-16.89Z" transform="translate(-96.78 -42.46)" fill="#535461"/><path d="M524.8,429.63l10.8-13.11-.57.23-16.34,7.57.12-16.83,16.91,8.57,0-.1v-.09l-1-1-5.61-16.39,8.43-.37,0-.27.36,0,0,.22,5.67-.25,1.27,1.83.17-.32,5.92,9.14,4,5.79-1.16,3.93-16.45-1.91,0-.36,16.14,1.88,1-3.46-2.93-4.23-15.07,6,.78.74.07,0v0l12.06,11.48-9.19,4.82-3.21-16.1-1.09-.55,0,0-3.53,17.61Zm.55-.09,6.84,4.13,3.29-16.43Zm12.2-12,3,15.13,8.3-4.36Zm-18.38-9.5-.11,15.66,15.82-7.33.41-.16Zm25.5-8-1.26-1.83-5.52.24-1.75,17.22.07.07.55-.67Zm6,8.66-5.75-8.32-7.83,14.88-.29.35,14.6-5.79Zm-21-9.89,5.42,15.84.74.7,1.72-16.89Z" transform="translate(-96.78 -42.46)" fill="#535461"/><rect x="512.46" y="397.88" width="10.98" height="3.48" transform="translate(1075.32 365.05) rotate(143.04)" fill="#ffffff"/><rect x="512.46" y="397.88" width="10.98" height="3.48" transform="translate(1075.32 365.05) rotate(143.04)" opacity="0.1"/><path d="M519.94,391a45.79,45.79,0,0,1-5.71-4.74,23.86,23.86,0,0,0-3-2.91L506,379.18l-11.67-2.49-.81,1.92s-1.3,2.78,7.43,6.54,12.73,8.36,12.73,8.36S519.23,396.28,519.94,391Z" transform="translate(-96.78 -42.46)" fill="#db8b8b"/><path d="M513.27,393.05c.29.29.43.45.43.45s5.54,2.78,6.24-2.48l-.68-.5a5.06,5.06,0,0,1-4.6,1.82l-.61-.08Z" transform="translate(-96.78 -42.46)" opacity="0.1"/><path d="M493.58,379.64c.36,1.14,1.86,3.13,7.4,5.51a39.72,39.72,0,0,1,12.3,7.91c.29.29.43.45.43.45s5.54,2.78,6.24-2.48l-.68-.5a38.62,38.62,0,0,1-5-4.25,23.8,23.8,0,0,0-3-2.91L506,379.18l-2.08-.44-9.59-2-.81,1.92A1.52,1.52,0,0,0,493.58,379.64Z" transform="translate(-96.78 -42.46)" opacity="0.05"/><path d="M520,389.83l4.38,3.82-15.66,9.89s-1.9-1.54-.61-2.85c0,0,4-2.6,4.81-6.92l1.28-1.3.62.08a5.06,5.06,0,0,0,5.19-2.72Z" transform="translate(-96.78 -42.46)" fill="#abb1d1"/><path d="M493.58,379.64c3.09-1,10.2-.21,10.2-.21l.17-.7-9.59-2-.81,1.92A1.52,1.52,0,0,0,493.58,379.64Z" transform="translate(-96.78 -42.46)" opacity="0.1"/><path d="M503.82,379.07s-8.55-1-11,.56l4-21.8,11.79,1.59Z" transform="translate(-96.78 -42.46)" fill="#abb1d1"/><path d="M503.83,379s-8.55-1-11,.56l4-21.8,11.79,1.59Z" transform="translate(-96.78 -42.46)" opacity="0.05"/><path d="M437.19,402.84a21.53,21.53,0,1,0,32.47-15.57,21.15,21.15,0,0,0-2.67-1.37,21.55,21.55,0,0,0-29.8,16.93Zm5.31.64a16.27,16.27,0,0,1,22.26-12.89,16.06,16.06,0,0,1,2.51,1.29,16.26,16.26,0,1,1-24.78,11.59Z" transform="translate(-96.78 -42.46)" fill="#535461"/><path d="M498.78,364.72s-21.24-3.6-22-.9,21.12,4.47,21.12,4.47A3,3,0,0,0,498.78,364.72Z" transform="translate(-96.78 -42.46)" fill="#535461"/><path d="M498.78,364.72s-21.24-3.6-22-.9,21.12,4.47,21.12,4.47A3,3,0,0,0,498.78,364.72Z" transform="translate(-96.78 -42.46)" opacity="0.05"/><circle cx="408.32" cy="382.96" fill="none" stroke="#c1272d" stroke-miterlimit="10"/><rect x="497.7" y="392.83" width="33.1" height="3.81" transform="translate(-42.28 809.32) rotate(-82.34)" fill="#ffffff"/><path d="M514.57,378.07l-.34,2.53c1.23.33,2.51.61,3.73.81l.38-2.83Z" transform="translate(-96.78 -42.46)" opacity="0.1"/><path d="M515.22,375.39a14.23,14.23,0,0,0,1.61,0c2.1-.12,7.37-.24,8.57,1.33,1.51,2,.52,4.95-4.19,4.76s-12.53-2.42-13.89-4.38A14.64,14.64,0,0,1,515.22,375.39Z" transform="translate(-96.78 -42.46)" fill="#535461"/><polygon points="417.59 344.75 379.62 327.08 377.9 329.95 416.68 349.35 417.59 344.75" fill="#ffffff"/><polygon points="403.22 362.62 378.41 330.61 376.5 332.72 399.96 364.84 403.22 362.62" fill="#ffffff"/><path d="M464.77,390.59a16.06,16.06,0,0,1,2.51,1.29l2.38-4.61a21.15,21.15,0,0,0-2.67-1.37Z" transform="translate(-96.78 -42.46)" opacity="0.1"/><polygon points="361.22 361.7 363.1 363.13 382.6 325.44 383.47 323.75 380.38 321.42 379.2 323.91 361.22 361.7" fill="#ffffff"/><polygon points="379.2 323.91 382.6 325.44 383.47 323.75 380.38 321.42 379.2 323.91" opacity="0.1"/><path d="M497.16,372.33l-19-9.5s-3.54,0-2.63,3l19.23,8.65S497.81,375.23,497.16,372.33Z" transform="translate(-96.78 -42.46)" fill="#535461"/><path d="M514.5,413.16a21.8,21.8,0,0,0-.19,3.36,21.74,21.74,0,1,0,.19-3.36Zm5.18,3.58a16.4,16.4,0,0,1,1-6.49,16.26,16.26,0,1,1-1,6.49Z" transform="translate(-96.78 -42.46)" fill="#535461"/><path d="M514.5,413.16a21.8,21.8,0,0,0-.19,3.36c1.76.1,3.58.18,5.37.22a16.4,16.4,0,0,1,1-6.49c-1.67-.59-3.38-1.18-5-1.72A21.52,21.52,0,0,0,514.5,413.16Z" transform="translate(-96.78 -42.46)" opacity="0.1"/><path d="M510.67,407l-.52,3.86,3.77.51.44-3.27C513.09,407.72,511.85,407.35,510.67,407Z" transform="translate(-96.78 -42.46)" opacity="0.1"/><path d="M534.33,415.76s-29.41-12.08-32.29-9.37-6,6.43,1.46,8.92S534.75,417,534.75,417Z" transform="translate(-96.78 -42.46)" fill="#ffffff"/><path d="M521.14,400.3l3.39,4.07a16.28,16.28,0,0,1,2.64-2.1L524.07,398A21.74,21.74,0,0,0,521.14,400.3Z" transform="translate(-96.78 -42.46)" opacity="0.1"/><polygon points="438.78 371.83 419.19 344.96 417.72 350.38 437.32 373.86 438.78 371.83" fill="#ffffff"/><circle cx="535.64" cy="415.93" r="2.34" transform="translate(-44.76 848.89) rotate(-82.34)" opacity="0.1"/><circle cx="535.93" cy="415.97" r="2.34" transform="translate(-44.55 849.21) rotate(-82.34)" fill="#535461"/><circle cx="458.8" cy="405.38" r="2.34" transform="translate(-100.89 763.59) rotate(-82.34)" opacity="0.1"/><circle cx="458.61" cy="405.65" r="2.34" transform="translate(-101.32 763.64) rotate(-82.34)" fill="#535461"/><circle cx="500.24" cy="408.81" r="4.69" transform="matrix(0.13, -0.99, 0.99, 0.13, -68.38, 807.63)" opacity="0.1"/><circle cx="499.95" cy="408.77" r="4.69" transform="translate(-68.59 807.31) rotate(-82.34)" fill="#535461"/><rect x="496.94" y="407.35" width="2.49" height="8.7" rx="0.74" ry="0.74" transform="translate(468.79 1012.01) rotate(-135.55)" fill="#ffffff"/><path d="M487.65,341.44l-.3,5.52A12.37,12.37,0,0,1,487,349a7.9,7.9,0,0,0,.15,3.4,19.19,19.19,0,0,1,.3,6.67l-.84,6.22,4.27-.16s1-8.73,1.91-10.08,1.38-14.4,1.38-14.4Z" transform="translate(-96.78 -42.46)" fill="#db8b8b"/><path d="M487.5,344.17l-.15,2.78A12.36,12.36,0,0,1,487,349a7.9,7.9,0,0,0,.15,3.4,19.19,19.19,0,0,1,.3,6.67l-.84,6.22,4.27-.16s1-8.73,1.91-10.08c.65-1,1.07-7.78,1.27-11.69.08-1.61.12-2.72.12-2.72l-6.57.78Z" transform="translate(-96.78 -42.46)" opacity="0.05"/><path d="M502.71,385.93l.36,9.13a20.54,20.54,0,0,0,.45,3.62c.58,2.64-.48,6.08-1.18,7.95-.31.82-.55,1.34-.55,1.34l4.37,3.17,1.6-.89.11-.73,2.34-16.11a11.51,11.51,0,0,0,1-7.8,6.2,6.2,0,0,1-.23-1.55,39.07,39.07,0,0,1,.15-4.74s-2.24-5.29-6.13-2.49a6.36,6.36,0,0,0-2.43,4A13,13,0,0,0,502.71,385.93Z" transform="translate(-96.78 -42.46)" fill="#db8b8b"/><path d="M502.61,380.86c2.31,1.83,6.63,2.84,8.4,3.19a39.07,39.07,0,0,1,.15-4.74s-2.24-5.29-6.13-2.49A6.36,6.36,0,0,0,502.61,380.86Z" transform="translate(-96.78 -42.46)" opacity="0.1"/><path d="M497.09,375.58a33.5,33.5,0,0,1,5,4.36c2.58,2.75,9.82,3.91,9.82,3.91l.37-2.72c.26-3.29,3.83-6.5,9.37-16.1,3.54-6.13,3.29-9.9,2.65-11.83a4.4,4.4,0,0,0-.85-1.59l-23.26,1.3L499,355.23l-2.43,5s6.3,1.22,7.31,1.91-.37,5.49-.37,5.49C503.92,372.8,497.09,375.58,497.09,375.58Z" transform="translate(-96.78 -42.46)" fill="#abb1d1"/><path d="M487.65,341.44l-.15,2.73c3,1.32,5.68-1.25,5.68-1.25a8.38,8.38,0,0,1,.92.45c.08-1.61.12-2.72.12-2.72Z" transform="translate(-96.78 -42.46)" opacity="0.1"/><path d="M499,355.23c0,.86-.1,1.39-.1,1.39s3.71,4,11.49-.3,13.93-2,13.93-2,0-.43-.08-1.12a4.4,4.4,0,0,0-.85-1.59l-23.26,1.3Z" transform="translate(-96.78 -42.46)" opacity="0.1"/><path d="M486.15,334c0,3.75-.49,8.44-.49,8.44,3.73,3.83,7.56.09,7.56.09,3.8,1.59,5.19,5.28,5.65,8.41a20.27,20.27,0,0,1,.1,5.1,6,6,0,0,0,3,1.5c1.9.42,4.72.29,8.5-1.8,7.78-4.31,13.93-2,13.93-2s-.29-7.43-2.9-10-4.42-5.58-6.93-14.41-10.21-7.84-10.21-7.84-.14-1.68-7.07-1a11,11,0,0,0-4.73,1.74A13.94,13.94,0,0,0,486.15,334Z" transform="translate(-96.78 -42.46)" fill="#fff"/><path d="M494.31,324.34c0,.24,0,.51,0,.82-.08,3.31.34,3,4.23,4.26,2.42.79,4-1.11,4.83-2.66a10.36,10.36,0,0,0,.75-1.76l-8.51-2.62S494.56,321.93,494.31,324.34Z" transform="translate(-96.78 -42.46)" fill="#db8b8b"/><path d="M498.87,351a20.27,20.27,0,0,1,.1,5.1,6,6,0,0,0,3,1.5,1.71,1.71,0,0,0,.18-.34c.58-1.58,3.69-4.12,3.69-4.12a8.34,8.34,0,0,0,2.79-4.24l4.18-8.39,1.11-.68s-3.73-3.83-7.73-1.59-3.69,8.18-3.69,8.18l-1,1.9A11.76,11.76,0,0,0,498.87,351Z" transform="translate(-96.78 -42.46)" opacity="0.05"/><path d="M513.38,339.54l-5.28,9.08a8.34,8.34,0,0,1-2.79,4.24s-3.11,2.54-3.69,4.12-6.25,5.25-6.25,5.25-5.3,3.72-5.88,5.3c0,0-4.52.68-4.32,3.3,0,0-2.83-3.7.85-6.35s8.89-8.41,8.89-8.41,3.44-6.37,6.07-8l1-1.9s-.31-6,3.69-8.18S513.38,339.54,513.38,339.54Z" transform="translate(-96.78 -42.46)" fill="#db8b8b"/><path d="M501.78,408l4.37,3.17,1.6-.89.11-.73a11.08,11.08,0,0,1-4.45-2c-.4-.31-.78-.6-1.08-.86C502,407.45,501.78,408,501.78,408Z" transform="translate(-96.78 -42.46)" opacity="0.1"/><path d="M506.61,330.88l-3.88,9.63s7.63,2.32,9.43,1.27a11.64,11.64,0,0,1,4.94-1s-2-9.87-3.66-11.2S506.61,330.88,506.61,330.88Z" transform="translate(-96.78 -42.46)" opacity="0.1"/><path d="M506.66,330.51l-3.88,9.63s7.63,2.32,9.43,1.27a11.64,11.64,0,0,1,4.94-1s-2-9.87-3.66-11.2S506.66,330.51,506.66,330.51Z" transform="translate(-96.78 -42.46)" fill="#fff"/><path d="M494.34,324.16a6.41,6.41,0,0,0,9,2.42,10.36,10.36,0,0,0,.75-1.76l-8.51-2.62S494.58,321.75,494.34,324.16Z" transform="translate(-96.78 -42.46)" opacity="0.1"/><path d="M493.66,320.09a6.41,6.41,0,0,0,12.7,1.71c0-.11,0-.21,0-.32a6.4,6.4,0,0,0-12.73-1.39Z" transform="translate(-96.78 -42.46)" fill="#db8b8b"/><path d="M493.66,320.09a6.39,6.39,0,0,0,0,1.76,2.47,2.47,0,0,0,1.48.06c.71-.18,1.36-.56,2.05-.8,2-.68,4.12-.21,6.11.37a3.78,3.78,0,0,0,3,0l.09-.06a6.4,6.4,0,0,0-12.73-1.39Z" transform="translate(-96.78 -42.46)" opacity="0.1"/><path d="M511.47,318.48c-.55,1.16-2.41.95-3.48,1.71-.56.4-.88,1.05-1.48,1.39a3.81,3.81,0,0,1-2.85-.07c-1.9-.54-4-1-5.82-.38-.66.21-1.27.55-2,.7a2.08,2.08,0,0,1-2-.42c-.38-.4-.45-1-.78-1.41a9.31,9.31,0,0,0-.95-.86,4,4,0,0,1-1-2.51,8.61,8.61,0,0,1,.91-5.4,4.93,4.93,0,0,1,4.88-2.39c.59.11,1.15.35,1.74.49,1.53.37,3.13.06,4.7.17a2.67,2.67,0,0,1,1.31.36,2.45,2.45,0,0,1,.7.82,7.71,7.71,0,0,1,1,3.36c.07.89,0,1.68,1,2S512.63,316,511.47,318.48Z" transform="translate(-96.78 -42.46)" fill="#472727"/><path d="M520.69,343.57s-4.89.64-6.78,3.71-5.9,3.14-5.9,3.14" transform="translate(-96.78 -42.46)" opacity="0.05"/><rect x="492.97" y="413.72" width="10.98" height="3.48" transform="translate(840.32 851.2) rotate(-172.34)" fill="#ffffff"/><rect x="492.97" y="413.72" width="10.98" height="3.48" transform="translate(840.32 851.2) rotate(-172.34)" opacity="0.1"/><path d="M503.36,407.86a6.81,6.81,0,0,1-1.73-1.57,16,16,0,0,1-5.1,2.77,11.05,11.05,0,0,0-2.24.76,6.67,6.67,0,0,1-3.39.75s-2.83,1.84,2,2.86,16.45,1.29,16.45,1.29l-.12-4.63h0A11.12,11.12,0,0,1,503.36,407.86Z" transform="translate(-96.78 -42.46)" fill="#abb1d1"/><path d="M202.92,318.42q0-.76.15-1.44t.26-1.59q.28-1.56.64-3,.18-.72.37-1.42a38.56,38.56,0,0,1,7.51-14.61l.6-.7q.6-.68,1.19-1.28t1.16-1.12c.38-.35.75-.67,1.11-1,.71-.6,1.38-1.09,2-1.5s.84-.57,1.19-.78a6.62,6.62,0,0,1,2.8-.93l6.17-.62h0l8.34-.83,30.14-11.9,1.19.43a71.7,71.7,0,0,0,2.23-7.53,6.71,6.71,0,0,1-2.38-1.77,5.52,5.52,0,0,1-1.64-2.14c-.76-1.78.69-5.58.4-7.76-.48-3.49-2.26-6.86-3.71-10-3.1-6.79-5.36-14.15-5-21.6s3.71-15,9.9-19.18c3.2-2.15,7-3.31,10.29-5.27,2.59-1.53,4.87-3.53,7.34-5.25a41.58,41.58,0,0,1,41.53-3c6.26,3.14,11.6,7.82,17.51,11.58s12.87,6.65,19.78,5.54a4.56,4.56,0,0,1,.21.87l.58-.07c1.19,3.3-1.73,6.56-4.42,8.81-5.1,4.28-10.89,8.54-17.55,8.69-2.57.06-5.29-.49-7.63.58a6.81,6.81,0,0,0-1.42.9,34.1,34.1,0,0,1-10.43,33.58l15.38-5.63s.64.34,1.64,1L361.7,244s42.83-15.86,54.73,8.73-51.56,11.9-51.56,11.9l-13.58,7.59a12.78,12.78,0,0,1-1.49,8.27l-37,23.26c7.48,2.34,19.77,6.09,22,6.09,3.17,0,11.9,3.17,17.45,15.86s25.38,74.56,42.83,84.87,63.46,79.32,63.46,79.32l-.21.54q1.23.33,2.41.72c11.51,3.81,19.25,11.83,23.92,18.33a7.81,7.81,0,0,1-5.36,12.26c-18.16,2.33-28.08-6.17-32.85-12.6-.31-.42-.6-.83-.87-1.22a6.29,6.29,0,0,1-4.48.21L418.82,489.9s17.38,17.39,7.19,33.23l.77,1.1A254.42,254.42,0,0,1,464,606.5s9.52,7.14,10.31,35.69,10.31,74.56,10.31,74.56S491,771.49,487,788.15c0,0-.46.66-1.3,1.68.3.36.62.74,1,1.15,3.46,3.8,9.71,9.05,17,7.49,11.11-2.38,11.11,17.45-4.76,19-10.22,1-30.29,5.66-43.3,8.84a9.18,9.18,0,0,1-11.31-9.89c.78-7.11,2.19-15.71,4.76-21.83.16-.38.32-.75.49-1.11-.47-.44-.93-.9-1.4-1.39,0,0,0-34.9-5.55-44.42,0,0-15.07-72.18-14.28-90.43C429,643,389.24,587.4,372,563.92l.14-.89c-4.42-6-7.22-9.68-7.22-9.68l-13.48,86.46s-6.35,19-14.28,29.35c0,0-34.11,65.84-38.07,86.46-3,15.64-9.2,24.88-12,28.44.33.33.67.67,1,1,3.61,3.36,8.94,6.74,15,5.45,11.11-2.38,11.11,17.45-4.76,19-10.22,1-30.29,5.66-43.3,8.84a9.18,9.18,0,0,1-11.31-9.89c.9-8.26,2.67-18.52,6.09-24.59q.43-.77.9-1.44a8.39,8.39,0,0,1-3.15-2.26s20.62-50,20.62-63.46c0,0,8.73-51.56,38.07-70.6,0,0-2.78-64.48-11.13-100.37q-.31-1.33-.63-2.6a232.41,232.41,0,0,1-23.14-4.9l-.79-23.8-4,19L222.1,505.76s.39-5,1.14-12.67c.38-3.84.84-8.34,1.4-13.22.44-3.9.95-8,1.5-12.28q.21-1.59.43-3.19c.58-4.27,1.22-8.6,1.91-12.83q.39-2.38.8-4.71c.36-2.07.74-4.1,1.13-6.08q.29-1.48.6-2.92t.62-2.82q.31-1.38.63-2.71l.32-1.31q.33-1.29.66-2.51a46.12,46.12,0,0,0,1.61-10.4q.08-2.1,0-4.19t-.4-4.17q-.14-1-.34-2.07a47.78,47.78,0,0,0-2.25-8.1q-.74-2-1.66-3.9c-1.44-3-3-6.25-4.56-9.67q-1.19-2.57-2.4-5.25t-2.44-5.44c-7.72-17.48-15.34-37-17.38-49.78-.21-1.35-.37-2.62-.45-3.81A25.85,25.85,0,0,1,202.92,318.42Z" transform="translate(-96.78 -42.46)" fill="url(#951b270e-585f-479a-af81-259b0d724f83)"/><path d="M335.41,269.62l26.16-17.7s41.55-15.39,53.09,8.46-50,11.54-50,11.54l-26.16,14.62Z" transform="translate(-96.78 -42.46)" fill="#f7bbc3"/><path d="M258,809.06c12.62-3.08,32.09-7.58,42-8.57,15.39-1.54,15.39-20.77,4.62-18.46-5.84,1.25-11-2-14.51-5.29a34,34,0,0,1-3.05-3.26,8.89,8.89,0,0,0-5-3c-5.77-1.26-17.78-3.16-25.17.82a10.87,10.87,0,0,0-4,4.36c-3.32,5.89-5,15.84-5.91,23.85A8.9,8.9,0,0,0,258,809.06Z" transform="translate(-96.78 -42.46)" fill="#535461"/><path d="M452.67,816.75c12.62-3.08,32.09-7.58,42-8.57,15.39-1.54,15.39-20.77,4.62-18.46-7,1.52-13.11-3.58-16.46-7.26-.41-.45-.78-.88-1.1-1.28a8.89,8.89,0,0,0-5-3c-5.77-1.26-17.78-3.16-25.17.82-2.16,1.17-3.89,3.73-5.27,7-2.49,5.94-3.86,14.28-4.62,21.17A8.9,8.9,0,0,0,452.67,816.75Z" transform="translate(-96.78 -42.46)" fill="#535461"/><path d="M446.31,786c18.37,18.93,34.12-.35,36.51-3.53-.41-.45-.78-.88-1.1-1.28a8.89,8.89,0,0,0-5-3c-5.77-1.26-17.78-3.16-25.17.82C449.42,780.11,447.69,782.68,446.31,786Z" transform="translate(-96.78 -42.46)" opacity="0.1"/><path d="M253,775.61c8,5.44,34.75,4.1,34.75,4.1a26.36,26.36,0,0,0,2.42-3,34,34,0,0,1-3.05-3.26,8.89,8.89,0,0,0-5-3c-5.77-1.26-17.78-3.16-25.17.82A10.87,10.87,0,0,0,253,775.61Z" transform="translate(-96.78 -42.46)" opacity="0.1"/><path d="M251.55,772c5.39,6.92,36.16,5.39,36.16,5.39s9.23-9.23,13.08-29.24,36.93-83.86,36.93-83.86c7.69-10,13.85-28.47,13.85-28.47L364.65,552S427.73,635.07,427,652.77s13.85,87.71,13.85,87.71c5.39,9.23,5.39,43.08,5.39,43.08,20,20.77,36.93-3.85,36.93-3.85,3.85-16.16-2.31-69.24-2.31-69.24s-9.23-44.62-10-72.32-10-34.62-10-34.62a246.78,246.78,0,0,0-36.13-79.81C420,517.07,417,513.51,417,513.51L292.32,528.13c2,4,3.79,9.73,5.36,16.51,8.1,34.81,10.79,97.36,10.79,97.36-28.47,18.46-36.93,68.47-36.93,68.47C271.55,723.55,251.55,772,251.55,772Z" transform="translate(-96.78 -42.46)" fill="#f88787"/><g opacity="0.05"><path d="M371.51,562.23l1.6-10.25s63.09,83.09,62.32,100.79,13.85,87.71,13.85,87.71c5.39,9.23,5.39,43.08,5.39,43.08,4.19,4.35,8.25,6.71,12,7.72-6.06,1.59-13.43.43-21.28-7.72,0,0,0-33.85-5.39-43.08,0,0-14.62-70-13.85-87.71C426.8,638.92,388.28,585,371.51,562.23Z" transform="translate(-96.78 -42.46)"/><path d="M270.78,710.47s8.46-50,36.93-68.47c0,0-2.69-62.54-10.79-97.36-1.58-6.78-3.35-12.5-5.36-16.51l124.64-14.62s.29.34.82,1L300.79,528.13c2,4,3.79,9.73,5.36,16.51,8.1,34.81,10.79,97.36,10.79,97.36C288.48,660.46,280,710.47,280,710.47c0,13.08-20,61.55-20,61.55,3.17,4.08,15.17,5.22,24.49,5.47-7.39.19-29.26.26-33.72-5.47C250.78,772,270.78,723.55,270.78,710.47Z" transform="translate(-96.78 -42.46)"/></g><path d="M440,502.74a27.86,27.86,0,0,0,3.65,6.37c4.63,6.23,14.25,14.48,31.87,12.22a7.57,7.57,0,0,0,5.2-11.89c-4.52-6.3-12-14.09-23.2-17.78a41.79,41.79,0,0,0-9.82-2Z" transform="translate(-96.78 -42.46)" fill="#f7bbc3"/><path d="M277.56,287.57,339.26,265S357,274.24,350,287.32L290,325Z" transform="translate(-96.78 -42.46)" fill="#cbcdda"/><path d="M277.56,287.57,339.26,265S357,274.24,350,287.32L290,325Z" transform="translate(-96.78 -42.46)" opacity="0.1"/><path d="M275.4,250.39s.77,36.16-15.39,48.47,46.93,19.23,46.93,19.23-10-36.93,0-56.16S275.4,250.39,275.4,250.39Z" transform="translate(-96.78 -42.46)" fill="#f7bbc3"/><path d="M292.32,528.13c2,4,3.79,9.73,5.36,16.51,74.41,11.36,126.2-19.59,126.2-19.59.28-.45.55-.89.8-1.33C420,517.07,417,513.51,417,513.51Z" transform="translate(-96.78 -42.46)" opacity="0.1"/><path d="M440,502.74a27.86,27.86,0,0,0,3.65,6.37c7.12-1.18,12.82-14.8,13.87-17.46a41.79,41.79,0,0,0-9.82-2Z" transform="translate(-96.78 -42.46)" opacity="0.1"/><path d="M269.24,282.7l27.7,10,11.54,15.39s23.85,7.69,26.93,7.69,11.54,3.08,16.93,15.39,24.62,72.32,41.55,82.32,61.55,76.94,61.55,76.94-7.69,20.77-16.93,17.7L417,490.43s16.93,16.93,6.92,32.31c0,0-63.09,37.7-150,14.62l-.77-23.08-3.85,18.46-43.08-26.93S230,456.16,237,430.88A45.66,45.66,0,0,0,234,399c-11.17-23.28-28.41-62.16-26.31-76.34,2.48-16.71,11.92-24,15.52-26.16a6.43,6.43,0,0,1,2.71-.9L240,294.24Z" transform="translate(-96.78 -42.46)" fill="#cbcdda"/><path d="M316.56,360s15.39,71.55,32.31,83.09,62.32,48.47,63.86,54.63" transform="translate(-96.78 -42.46)" opacity="0.05"/><path d="M323.48,357.71s15.39,71.55,32.31,83.09,62.32,48.47,63.86,54.63" transform="translate(-96.78 -42.46)" fill="#cbcdda"/><path d="M308.87,307.7s-53.09-17.7-68.47-13.08" transform="translate(-96.78 -42.46)" opacity="0.1"/><g opacity="0.05"><path d="M234,399c-11.17-23.28-28.41-62.16-26.31-76.34,2.48-16.71,11.92-24,15.52-26.16a6.43,6.43,0,0,1,2.71-.9l6-.6a6.32,6.32,0,0,0-1.78.73c-3.6,2.2-13,9.45-15.52,26.16-2.1,14.17,15.14,53.06,26.31,76.34a45.66,45.66,0,0,1,3,31.84c-7,25.28-10.81,74.94-10.81,74.94l37.1,23.19-.94,4.51-43.08-26.93S230,456.16,237,430.88A45.66,45.66,0,0,0,234,399Z" transform="translate(-96.78 -42.46)"/><polygon points="150.15 251.01 143.49 251.68 172.46 240.24 175.06 241.18 150.15 251.01"/></g><path d="M323.48,432.34s-23.85-13.08-31.54-10-36.16-.77-36.16-.77" transform="translate(-96.78 -42.46)" opacity="0.05"/><path d="M278.09,260c.88-7.71-2.69-6.54-2.69-6.54s41.55-7.69,31.54,11.54c-2.5,4.82-3.75,10.74-4.22,16.92h-.39C290.74,281.93,284,269,278.09,260Z" transform="translate(-96.78 -42.46)" opacity="0.05"/><circle cx="205.55" cy="203.31" r="33.08" fill="#f7bbc3"/><path d="M266.23,255.55c-3-6.58-5.2-13.72-4.83-21S265,220,271,216c3.1-2.09,6.76-3.21,10-5.11,2.51-1.49,4.73-3.42,7.12-5.1a40.33,40.33,0,0,1,40.28-2.93c6.07,3,11.25,7.59,17,11.23s12.48,6.45,19.19,5.37c1.15,3.2-1.68,6.36-4.29,8.55-4.95,4.15-10.56,8.29-17,8.43-2.5.06-5.13-.48-7.4.57a10.62,10.62,0,0,0-3.78,3.51,68.76,68.76,0,0,0-7.85,13.31c-.86,1.93-1.74,4-3.52,5.17-3,1.9-6.83.32-10.35.18-5.48-.21-10.4,3.23-14.46,6.93s-7.91,7.9-13,9.85c-3.82,1.45-11.46,1.4-13.41-3.17-.73-1.72.67-5.41.38-7.52C269.36,261.89,267.63,258.62,266.23,255.55Z" transform="translate(-96.78 -42.46)" opacity="0.1"/><path d="M265.46,254.78c-3-6.58-5.2-13.72-4.83-21s3.6-14.57,9.6-18.61c3.1-2.09,6.76-3.21,10-5.11,2.51-1.49,4.73-3.42,7.12-5.1a40.33,40.33,0,0,1,40.28-2.93c6.07,3,11.25,7.59,17,11.23s12.48,6.45,19.19,5.37c1.15,3.2-1.68,6.36-4.29,8.55-4.95,4.15-10.56,8.29-17,8.43-2.5.06-5.13-.48-7.4.57a10.62,10.62,0,0,0-3.78,3.51,68.76,68.76,0,0,0-7.85,13.31c-.86,1.93-1.74,4-3.52,5.17-3,1.9-6.83.32-10.35.18-5.48-.21-10.4,3.23-14.46,6.93s-7.91,7.9-13,9.85c-3.82,1.45-11.46,1.4-13.41-3.17-.73-1.72.67-5.41.38-7.52C268.59,261.12,266.86,257.85,265.46,254.78Z" transform="translate(-96.78 -42.46)" fill="#a95f60"/><path d="M868.5,791.61s22.57-4.51,28.59-10.53,33.1-16.55,36.11-9,40.62,33.1,15,37.62-60.18,6-67.71,3S868.5,791.61,868.5,791.61Z" transform="translate(-96.78 -42.46)" fill="#a8a8a8"/><path d="M948.24,806.87c-25.58,4.51-60.18,6-67.71,3-5.73-2.29-9.71-13.3-11.28-18.43l-.75.16s4.51,18.06,12,21.06,42.13,1.5,67.71-3c7.38-1.3,9.49-4.36,8.7-8.24C956.31,804,953.74,805.9,948.24,806.87Z" transform="translate(-96.78 -42.46)" opacity="0.2"/></svg>