<?xml version="1.0" encoding="utf-8"?>
<!-- Generator: Adobe Illustrator 16.0.0, SVG Export Plug-In . SVG Version: 6.00 Build 0)  -->
<!DOCTYPE svg PUBLIC "-//W3C//DTD SVG 1.1//EN" "http://www.w3.org/Graphics/SVG/1.1/DTD/svg11.dtd">
<svg xmlns="http://www.w3.org/2000/svg" xmlns:xlink="http://www.w3.org/1999/xlink" version="1.1" x="0px" y="0px" width="159.316px" height="40.972px" viewBox="0 0 159.316 40.972" enable-background="new 0 0 159.316 40.972" xml:space="preserve">
<g id="Layer_1">
	<g>
		<defs>
			<rect id="SVGID_1_" x="-69.158" y="-91.467" width="297.632" height="297.632"/>
		</defs>
		<clipPath id="SVGID_2_">
			<use xlink:href="#SVGID_1_" overflow="visible"/>
		</clipPath>
		<path clip-path="url(#SVGID_2_)" fill="#444" d="M146.099,32.082h2.236V20.547l8.746,11.535h2.235v-15.21h-2.235v11.535    l-8.746-11.535h-2.236V32.082z M131.465,30.045V18.909h3.145c3.52,0,5.978,2.302,5.978,5.557c0,3.277-2.458,5.579-5.978,5.579    H131.465z M129.229,32.082h5.247c4.915,0,8.414-3.167,8.414-7.616c0-4.45-3.499-7.594-8.414-7.594h-5.247V32.082z M121.104,32.348    c2.17,0,4.162-0.931,5.603-2.391l-1.573-1.506c-1.019,1.107-2.457,1.838-4.029,1.838c-3.033,0-5.601-2.657-5.601-5.823    c0-3.144,2.567-5.801,5.601-5.801c1.572,0,3.011,0.731,4.029,1.838l1.573-1.505c-1.44-1.484-3.433-2.392-5.603-2.392    c-4.272,0-7.903,3.587-7.903,7.86C113.2,28.739,116.831,32.348,121.104,32.348 M102.551,36.067    c1.639-0.023,2.856-0.886,3.676-2.944l5.047-12.487h-2.28l-3.476,9.032l-3.675-9.032h-2.346l4.913,11.512l-0.575,1.218    c-0.376,0.664-0.863,0.885-1.572,0.885c-0.442,0-0.951-0.11-1.395-0.354l-0.486,1.683    C100.979,35.89,101.776,36.067,102.551,36.067 M93.098,20.37c-1.55,0-2.944,0.797-3.631,1.926v-1.66h-2.192v11.446h2.192v-7.417    c0.177-1.351,1.55-2.391,3.144-2.391c1.55,0,2.635,1.196,2.635,2.9v6.908h2.147v-7.284C97.393,22.207,95.622,20.37,93.098,20.37     M79.835,20.37c-1.549,0-2.944,0.797-3.63,1.926v-1.66h-2.193v11.446h2.193v-7.417c0.176-1.351,1.549-2.391,3.143-2.391    c1.55,0,2.635,1.196,2.635,2.9v6.908h2.147v-7.284C84.131,22.207,82.359,20.37,79.835,20.37 M68.634,20.636v7.416    c-0.178,1.351-1.55,2.391-3.144,2.391c-1.55,0-2.635-1.195-2.635-2.9v-6.907h-2.148v7.283c0,2.591,1.771,4.429,4.295,4.429    c1.55,0,2.945-0.797,3.632-1.927v1.661h2.191V20.636H68.634z M48.087,30.111v-5.003h4.76c1.705,0,2.9,1.04,2.9,2.501    c0,1.462-1.195,2.502-2.9,2.502H48.087z M48.087,23.204v-4.362h4.428c1.527,0,2.612,0.93,2.612,2.192    c0,1.262-1.085,2.17-2.612,2.17H48.087z M45.852,32.082h7.505c2.724,0,4.672-1.705,4.672-4.14c0-1.683-1.019-3.055-2.79-3.919    c1.373-0.775,2.17-1.771,2.17-3.365c0-2.214-1.793-3.786-4.339-3.786h-7.218V32.082z"/>
	</g>
</g>
<g id="Layer_2">
	<g>
		<defs>
			<path id="SVGID_3_" d="M15.876,11.687l8.322,1.439c-6.242-1.08-6.626-6.274-15.024-10.843     C8.257,5.312,10.156,10.775,15.876,11.687"/>
		</defs>
		<clipPath id="SVGID_4_">
			<use xlink:href="#SVGID_3_" overflow="visible"/>
		</clipPath>
		
			<linearGradient id="SVGID_5_" gradientUnits="userSpaceOnUse" x1="-70.0171" y1="369.0088" x2="-69.3355" y2="369.0088" gradientTransform="matrix(22.3552 0 0 -15.9007 1574.1997 5875.1929)">
			<stop offset="0" style="stop-color:#FFA600"/>
			<stop offset="0.34" style="stop-color:#FF9F00"/>
			<stop offset="0.69" style="stop-color:#FF7300"/>
			<stop offset="1" style="stop-color:#F52900"/>
		</linearGradient>
		<rect x="8.257" y="2.283" clip-path="url(#SVGID_4_)" fill="url(#SVGID_5_)" width="15.941" height="10.843"/>
	</g>
	<g>
		<defs>
			<path id="SVGID_6_" d="M9.174,2.283c8.398,4.568,8.782,9.763,15.024,10.843c3.133,0.542,0.304,5.888-3.038,5.324     c6.004,2.041,11.482-3.399,8.349-5.105L9.174,2.283z"/>
		</defs>
		<clipPath id="SVGID_7_">
			<use xlink:href="#SVGID_6_" overflow="visible"/>
		</clipPath>
		
			<linearGradient id="SVGID_8_" gradientUnits="userSpaceOnUse" x1="-69.7739" y1="364.2998" x2="-69.0918" y2="364.2998" gradientTransform="matrix(31.1579 0 0 -24.3694 2183.1819 8889.1582)">
			<stop offset="0" style="stop-color:#FFA600"/>
			<stop offset="0.34" style="stop-color:#FF9F00"/>
			<stop offset="0.69" style="stop-color:#FF7300"/>
			<stop offset="1" style="stop-color:#F52900"/>
		</linearGradient>
		<rect x="9.174" y="2.283" clip-path="url(#SVGID_7_)" fill="url(#SVGID_8_)" width="23.469" height="18.208"/>
	</g>
	<g>
		<defs>
			<path id="SVGID_9_" d="M21.166,18.45c-0.001,0-0.004,0-0.005,0c-0.393-0.067-0.793-0.214-1.192-0.463     c-2.512-1.563-5.04-2.069-7.328-1.822c4.775,0.584,9.316,6.838,8.752,11.467c0.099,1.581-0.456,3.192-1.663,4.399l-2.755,2.755     c2.125,1.399,5.353-0.059,6.339-2.088l5.557-11.432c1.364-0.323,10.068-2.579,6.141-4.928L29.52,13.35     C32.628,15.063,27.159,20.485,21.166,18.45"/>
		</defs>
		<clipPath id="SVGID_10_">
			<use xlink:href="#SVGID_9_" overflow="visible"/>
		</clipPath>
		
			<linearGradient id="SVGID_11_" gradientUnits="userSpaceOnUse" x1="-69.7466" y1="362.249" x2="-69.0644" y2="362.249" gradientTransform="matrix(34.2867 0 0 -32.2475 2404.0168 11706.4092)">
			<stop offset="0" style="stop-color:#FFA600"/>
			<stop offset="0.34" style="stop-color:#FF9F00"/>
			<stop offset="1" style="stop-color:#FF6200"/>
		</linearGradient>
		<rect x="12.641" y="13.35" clip-path="url(#SVGID_10_)" fill="url(#SVGID_11_)" width="26.298" height="22.835"/>
	</g>
	<g>
		<defs>
			<path id="SVGID_12_" d="M12.636,16.165c-7.473,0.813-12.369,9.682-5.714,16.093l5.575,5.575     c-3.657-3.657-4.006-9.005-1.749-12.723c0.242-0.415,0.542-0.806,0.898-1.162c2.232-2.234,5.851-2.234,8.083,0     c1.025,1.024,1.579,2.341,1.663,3.683c0.564-4.628-3.975-10.878-8.747-11.466H12.636z"/>
		</defs>
		<clipPath id="SVGID_13_">
			<use xlink:href="#SVGID_12_" overflow="visible"/>
		</clipPath>
		
			<linearGradient id="SVGID_14_" gradientUnits="userSpaceOnUse" x1="-69.7935" y1="362.3965" x2="-69.1114" y2="362.3965" gradientTransform="matrix(25.8911 0 0 -31.7769 1810.7987 11542.8564)">
			<stop offset="0" style="stop-color:#FFA600"/>
			<stop offset="0.34" style="stop-color:#FF9F00"/>
			<stop offset="0.69" style="stop-color:#FF7300"/>
			<stop offset="1" style="stop-color:#F52900"/>
		</linearGradient>
		<rect x="0.267" y="16.165" clip-path="url(#SVGID_13_)" fill="url(#SVGID_14_)" width="21.69" height="21.668"/>
	</g>
	<g>
		<defs>
			<path id="SVGID_15_" d="M12.497,37.833l3.139,3.138c1.048-0.833,1.675-3.275,0.05-4.899l-4.041-4.042     c-1.877-1.876-2.175-4.731-0.898-6.92C8.491,28.828,8.84,34.176,12.497,37.833"/>
		</defs>
		<clipPath id="SVGID_16_">
			<use xlink:href="#SVGID_15_" overflow="visible"/>
		</clipPath>
		
			<linearGradient id="SVGID_17_" gradientUnits="userSpaceOnUse" x1="-53.2769" y1="341.0732" x2="-52.595" y2="341.0732" gradientTransform="matrix(-8.0581 -7.2523 -7.5379 8.3754 2157.375 -3207.4316)">
			<stop offset="0" style="stop-color:#FFA600"/>
			<stop offset="0.34" style="stop-color:#FF9F00"/>
			<stop offset="0.69" style="stop-color:#FF7300"/>
			<stop offset="1" style="stop-color:#F52900"/>
		</linearGradient>
		<polygon clip-path="url(#SVGID_16_)" fill="url(#SVGID_17_)" points="13.364,45.358 0.604,33.874 12.438,20.725 25.198,32.209       "/>
	</g>
	<g>
		<defs>
			<path id="SVGID_18_" d="M20.055,6.421l9.354,5.089L20.741,0C19.555,1.351,18.98,4.03,20.055,6.421"/>
		</defs>
		<clipPath id="SVGID_19_">
			<use xlink:href="#SVGID_18_" overflow="visible"/>
		</clipPath>
		
			<linearGradient id="SVGID_20_" gradientUnits="userSpaceOnUse" x1="-70.7637" y1="368.1631" x2="-70.0823" y2="368.1631" gradientTransform="matrix(14.5536 0 0 -16.8792 1049.3582 6220.0347)">
			<stop offset="0" style="stop-color:#FFA600"/>
			<stop offset="0.34" style="stop-color:#FF9F00"/>
			<stop offset="1" style="stop-color:#FF6200"/>
		</linearGradient>
		<rect x="18.98" clip-path="url(#SVGID_19_)" fill="url(#SVGID_20_)" width="10.429" height="11.51"/>
	</g>
	<g>
		<defs>
			<path id="SVGID_21_" d="M13.559,27.989c0,1.176,0.954,2.129,2.128,2.129c1.177,0,2.13-0.953,2.13-2.129     c0-1.175-0.953-2.129-2.13-2.129C14.512,25.86,13.559,26.814,13.559,27.989"/>
		</defs>
		<clipPath id="SVGID_22_">
			<use xlink:href="#SVGID_21_" overflow="visible"/>
		</clipPath>
		
			<linearGradient id="SVGID_23_" gradientUnits="userSpaceOnUse" x1="-72.5088" y1="391.9912" x2="-71.8267" y2="391.9912" gradientTransform="matrix(6.2442 0 0 -6.2442 466.3162 2475.657)">
			<stop offset="0" style="stop-color:#FFA600"/>
			<stop offset="0.34" style="stop-color:#FF9F00"/>
			<stop offset="1" style="stop-color:#FF6200"/>
		</linearGradient>
		<rect x="13.559" y="25.86" clip-path="url(#SVGID_22_)" fill="url(#SVGID_23_)" width="4.258" height="4.258"/>
	</g>
	<g>
		<defs>
			<path id="SVGID_24_" d="M0,17.698c0,1.175,0.955,2.129,2.13,2.129c1.176,0,2.128-0.954,2.128-2.129     c0-1.175-0.952-2.129-2.128-2.129C0.955,15.569,0,16.523,0,17.698"/>
		</defs>
		<clipPath id="SVGID_25_">
			<use xlink:href="#SVGID_24_" overflow="visible"/>
		</clipPath>
		
			<linearGradient id="SVGID_26_" gradientUnits="userSpaceOnUse" x1="-71.5029" y1="391.1592" x2="-70.8213" y2="391.1592" gradientTransform="matrix(6.2439 0 0 -6.2445 446.4556 2460.2852)">
			<stop offset="0" style="stop-color:#FFA600"/>
			<stop offset="0.34" style="stop-color:#FF9F00"/>
			<stop offset="1" style="stop-color:#FF6200"/>
		</linearGradient>
		<rect y="15.569" clip-path="url(#SVGID_25_)" fill="url(#SVGID_26_)" width="4.258" height="4.258"/>
	</g>
</g>
</svg>