<svg width="159.32" height="40.972" enable-background="new 0 0 159.316 40.972" viewBox="0 0 159.32 40.972" xmlns="http://www.w3.org/2000/svg" xmlns:xlink="http://www.w3.org/1999/xlink"><g fill="#03192e"><defs><path id="SVGID_1_" d="m-69.158-91.467h297.63v297.63h-297.63z"/></defs><clipPath id="SVGID_2_"><use overflow="visible" xlink:href="#SVGID_1_"/></clipPath><path d="m146.1 32.082h2.236V20.547l8.746 11.535h2.235v-15.21h-2.235v11.535l-8.746-11.535H146.1v15.21zm-14.634-2.037v-11.136h3.145c3.52.0 5.978 2.302 5.978 5.557.0 3.277-2.458 5.579-5.978 5.579h-3.145zm-2.236 2.037h5.247c4.915.0 8.414-3.167 8.414-7.616.0-4.45-3.499-7.594-8.414-7.594h-5.247v15.21zm-8.125.266c2.17.0 4.162-.931 5.603-2.391l-1.573-1.506c-1.019 1.107-2.457 1.838-4.029 1.838-3.033.0-5.601-2.657-5.601-5.823.0-3.144 2.567-5.801 5.601-5.801 1.572.0 3.011.731 4.029 1.838l1.573-1.505c-1.44-1.484-3.433-2.392-5.603-2.392-4.272.0-7.903 3.587-7.903 7.86-.001 4.273 3.63 7.882 7.903 7.882m-18.553 3.719c1.639-.023 2.856-.886 3.676-2.944l5.047-12.487h-2.28l-3.476 9.032-3.675-9.032h-2.346l4.913 11.512-.575 1.218c-.376.664-.863.885-1.572.885-.442.0-.951-.11-1.395-.354l-.486 1.683c.597.31 1.394.487 2.169.487M93.099 20.37c-1.55.0-2.944.797-3.631 1.926v-1.66h-2.192v11.446h2.192v-7.417c.177-1.351 1.55-2.391 3.144-2.391 1.55.0 2.635 1.196 2.635 2.9v6.908h2.147v-7.284c0-2.591-1.771-4.428-4.295-4.428m-13.263.0c-1.549.0-2.944.797-3.63 1.926v-1.66h-2.193v11.446h2.193v-7.417c.176-1.351 1.549-2.391 3.143-2.391 1.55.0 2.635 1.196 2.635 2.9v6.908h2.147v-7.284c.001-2.591-1.771-4.428-4.295-4.428m-11.201.266v7.416c-.178 1.351-1.55 2.391-3.144 2.391-1.55.0-2.635-1.195-2.635-2.9v-6.907h-2.148v7.283c0 2.591 1.771 4.429 4.295 4.429 1.55.0 2.945-.797 3.632-1.927v1.661h2.191v-11.446h-2.191zm-20.547 9.475v-5.003h4.76c1.705.0 2.9 1.04 2.9 2.501.0 1.462-1.195 2.502-2.9 2.502h-4.76zm0-6.907v-4.362h4.428c1.527.0 2.612.93 2.612 2.192s-1.085 2.17-2.612 2.17h-4.428zm-2.235 8.878h7.505c2.724.0 4.672-1.705 4.672-4.14.0-1.683-1.019-3.055-2.79-3.919 1.373-.775 2.17-1.771 2.17-3.365.0-2.214-1.793-3.786-4.339-3.786h-7.218v15.21z" clip-path="url(#SVGID_2_)" fill="#03192e"/></g><defs><path id="SVGID_3_" d="m15.876 11.687 8.322 1.439c-6.242-1.08-6.626-6.274-15.024-10.843-.917 3.029.982 8.492 6.702 9.404"/></defs><clipPath id="SVGID_4_"><use overflow="visible" xlink:href="#SVGID_3_"/></clipPath><linearGradient id="SVGID_5_" x1="-70.017" x2="-69.336" y1="369.01" y2="369.01" gradientTransform="matrix(22.355 0 0 -15.901 1574.2 5875.2)" gradientUnits="userSpaceOnUse"><stop stop-color="#ffa600" offset="0"/><stop stop-color="#ff9f00" offset=".34"/><stop stop-color="#ff7300" offset=".69"/><stop stop-color="#f52900" offset="1"/></linearGradient><path d="M8.257 2.283h15.941v10.843H8.257z" clip-path="url(#SVGID_4_)" fill="url(#SVGID_5_)"/><defs><path id="SVGID_6_" d="M9.174 2.283c8.398 4.568 8.782 9.763 15.024 10.843 3.133.542.304 5.888-3.038 5.324 6.004 2.041 11.482-3.399 8.349-5.105L9.174 2.283z"/></defs><clipPath id="SVGID_7_"><use overflow="visible" xlink:href="#SVGID_6_"/></clipPath><linearGradient id="SVGID_8_" x1="-69.774" x2="-69.092" y1="364.3" y2="364.3" gradientTransform="matrix(31.158 0 0 -24.369 2183.2 8889.2)" gradientUnits="userSpaceOnUse"><stop stop-color="#ffa600" offset="0"/><stop stop-color="#ff9f00" offset=".34"/><stop stop-color="#ff7300" offset=".69"/><stop stop-color="#f52900" offset="1"/></linearGradient><path d="M9.174 2.283h23.469v18.208H9.174z" clip-path="url(#SVGID_7_)" fill="url(#SVGID_8_)"/><defs><path id="SVGID_9_" d="m21.166 18.45h-.005c-.393-.067-.793-.214-1.192-.463-2.512-1.563-5.04-2.069-7.328-1.822 4.775.584 9.316 6.838 8.752 11.467.099 1.581-.456 3.192-1.663 4.399l-2.755 2.755c2.125 1.399 5.353-.059 6.339-2.088l5.557-11.432c1.364-.323 10.068-2.579 6.141-4.928l-5.492-2.988c3.108 1.713-2.361 7.135-8.354 5.1"/></defs><clipPath id="SVGID_10_"><use overflow="visible" xlink:href="#SVGID_9_"/></clipPath><linearGradient id="SVGID_11_" x1="-69.747" x2="-69.064" y1="362.25" y2="362.25" gradientTransform="matrix(34.287 0 0 -32.248 2404 11706)" gradientUnits="userSpaceOnUse"><stop stop-color="#ffa600" offset="0"/><stop stop-color="#ff9f00" offset=".34"/><stop stop-color="#ff6200" offset="1"/></linearGradient><path d="M12.641 13.35h26.298v22.835H12.641z" clip-path="url(#SVGID_10_)" fill="url(#SVGID_11_)"/><defs><path id="SVGID_12_" d="M12.636 16.165c-7.473.813-12.369 9.682-5.714 16.093l5.575 5.575c-3.657-3.657-4.006-9.005-1.749-12.723.242-.415.542-.806.898-1.162 2.232-2.234 5.851-2.234 8.083.0 1.025 1.024 1.579 2.341 1.663 3.683.564-4.628-3.975-10.878-8.747-11.466H12.636z"/></defs><clipPath id="SVGID_13_"><use overflow="visible" xlink:href="#SVGID_12_"/></clipPath><linearGradient id="SVGID_14_" x1="-69.794" x2="-69.111" y1="362.4" y2="362.4" gradientTransform="matrix(25.891 0 0 -31.777 1810.8 11543)" gradientUnits="userSpaceOnUse"><stop stop-color="#ffa600" offset="0"/><stop stop-color="#ff9f00" offset=".34"/><stop stop-color="#ff7300" offset=".69"/><stop stop-color="#f52900" offset="1"/></linearGradient><path d="M.267 16.165h21.69v21.668H.267z" clip-path="url(#SVGID_13_)" fill="url(#SVGID_14_)"/><defs><path id="SVGID_15_" d="M12.497 37.833l3.139 3.138c1.048-.833 1.675-3.275.05-4.899l-4.041-4.042c-1.877-1.876-2.175-4.731-.898-6.92C8.491 28.828 8.84 34.176 12.497 37.833"/></defs><clipPath id="SVGID_16_"><use overflow="visible" xlink:href="#SVGID_15_"/></clipPath><linearGradient id="SVGID_17_" x1="-53.277" x2="-52.595" y1="341.07" y2="341.07" gradientTransform="matrix(-8.0581 -7.2523 -7.5379 8.3754 2157.4 -3207.4)" gradientUnits="userSpaceOnUse"><stop stop-color="#ffa600" offset="0"/><stop stop-color="#ff9f00" offset=".34"/><stop stop-color="#ff7300" offset=".69"/><stop stop-color="#f52900" offset="1"/></linearGradient><path d="M13.364 45.358.604 33.874 12.438 20.725 25.198 32.209z" clip-path="url(#SVGID_16_)" fill="url(#SVGID_17_)"/><defs><path id="SVGID_18_" d="M20.055 6.421l9.354 5.089L20.741.0C19.555 1.351 18.98 4.03 20.055 6.421"/></defs><clipPath id="SVGID_19_"><use overflow="visible" xlink:href="#SVGID_18_"/></clipPath><linearGradient id="SVGID_20_" x1="-70.764" x2="-70.082" y1="368.16" y2="368.16" gradientTransform="matrix(14.554 0 0 -16.879 1049.4 6220)" gradientUnits="userSpaceOnUse"><stop stop-color="#ffa600" offset="0"/><stop stop-color="#ff9f00" offset=".34"/><stop stop-color="#ff6200" offset="1"/></linearGradient><path d="M18.98.0h10.429v11.51H18.98z" clip-path="url(#SVGID_19_)" fill="url(#SVGID_20_)"/><defs><path id="SVGID_21_" d="m13.559 27.989c0 1.176.954 2.129 2.128 2.129 1.177.0 2.13-.953 2.13-2.129.0-1.175-.953-2.129-2.13-2.129-1.175.0-2.128.954-2.128 2.129"/></defs><clipPath id="SVGID_22_"><use overflow="visible" xlink:href="#SVGID_21_"/></clipPath><linearGradient id="SVGID_23_" x1="-72.509" x2="-71.827" y1="391.99" y2="391.99" gradientTransform="matrix(6.2442 0 0 -6.2442 466.32 2475.7)" gradientUnits="userSpaceOnUse"><stop stop-color="#ffa600" offset="0"/><stop stop-color="#ff9f00" offset=".34"/><stop stop-color="#ff6200" offset="1"/></linearGradient><path d="m13.559 25.86h4.258v4.258h-4.258z" clip-path="url(#SVGID_22_)" fill="url(#SVGID_23_)"/><defs><path id="SVGID_24_" d="m0 17.698c0 1.175.955 2.129 2.13 2.129 1.176.0 2.128-.954 2.128-2.129s-.952-2.129-2.128-2.129c-1.175.0-2.13.954-2.13 2.129"/></defs><clipPath id="SVGID_25_"><use overflow="visible" xlink:href="#SVGID_24_"/></clipPath><linearGradient id="SVGID_26_" x1="-71.503" x2="-70.821" y1="391.16" y2="391.16" gradientTransform="matrix(6.2439 0 0 -6.2445 446.46 2460.3)" gradientUnits="userSpaceOnUse"><stop stop-color="#ffa600" offset="0"/><stop stop-color="#ff9f00" offset=".34"/><stop stop-color="#ff6200" offset="1"/></linearGradient><path d="M0 15.569h4.258v4.258H0z" clip-path="url(#SVGID_25_)" fill="url(#SVGID_26_)"/></svg>