<svg xmlns="http://www.w3.org/2000/svg" width="155" height="25" viewBox="0 0 155 25">
    <g fill="none" fill-rule="evenodd">
        <path fill="#31394E" d="M5.758 21.695c2.298 0 4.063-.674 5.293-2.022 1.23-1.348 1.846-3.441 1.846-6.277 0-2.814-.621-4.866-1.863-6.156-1.241-1.288-3-1.933-5.276-1.933H4v16.388h1.758zM0 2h6.035c3.447 0 6.138.95 8.069 2.848C16.034 6.748 17 9.597 17 13.396c0 1.898-.247 3.575-.741 5.028-.495 1.454-1.207 2.667-2.138 3.64-.932.973-2.058 1.706-3.38 2.198-1.323.493-2.822.738-4.5.738H0V2zM30.504 14.48c0-1.375-.287-2.447-.857-3.215-.572-.77-1.451-1.154-2.64-1.154-1.026 0-1.922.367-2.692 1.1-.769.734-1.247 1.825-1.434 3.268h7.623zM19 16.017c0-1.399.222-2.656.664-3.775.444-1.118 1.032-2.062 1.766-2.831a7.832 7.832 0 0 1 2.535-1.783A7.247 7.247 0 0 1 26.902 7c1.166 0 2.191.198 3.077.594a6.015 6.015 0 0 1 2.22 1.678c.595.722 1.043 1.586 1.347 2.586.302 1.002.454 2.098.454 3.286 0 .792-.059 1.421-.175 1.887H22.916c.187 1.562.729 2.761 1.626 3.6.897.84 2.046 1.258 3.444 1.258.745 0 1.44-.11 2.08-.332a9.21 9.21 0 0 0 1.906-.926l1.364 2.517c-.817.536-1.726.978-2.727 1.328a9.507 9.507 0 0 1-3.147.524 8.928 8.928 0 0 1-3.322-.612 7.852 7.852 0 0 1-2.691-1.765c-.77-.769-1.371-1.706-1.801-2.813-.432-1.106-.648-2.37-.648-3.792zM40.25 16.017c0 1.858.338 3.268 1.018 4.23.679.964 1.66 1.445 2.946 1.445 1.31 0 2.536-.638 3.679-1.915v-7.973c-.62-.533-1.221-.906-1.804-1.114a5.22 5.22 0 0 0-1.768-.313c-1.143 0-2.107.486-2.893 1.462-.785.974-1.178 2.367-1.178 4.178m-4.25.035c0-1.393.207-2.647.625-3.76.416-1.115.97-2.054 1.66-2.82a7.403 7.403 0 0 1 2.375-1.777 6.472 6.472 0 0 1 2.768-.626c1 0 1.846.168 2.536.504.69.338 1.38.796 2.072 1.375l-.143-2.75V0H52v24.582h-3.394l-.285-1.845h-.143a9.28 9.28 0 0 1-2.25 1.602c-.856.44-1.762.661-2.714.661-2.214 0-3.97-.783-5.267-2.35C36.649 21.083 36 18.885 36 16.052M55.458 25h4.048V7.662h-4.048V25zM57.5 4.626c-.728 0-1.326-.212-1.795-.637-.47-.423-.705-.976-.705-1.659 0-.682.235-1.241.705-1.677C56.174.217 56.772 0 57.5 0s1.325.217 1.795.653c.47.436.705.995.705 1.677 0 .683-.235 1.236-.705 1.66-.47.424-1.067.636-1.795.636z"/>
        <path fill="#92D90A" d="M64.454 18.805A10.544 10.544 0 0 0 67.34 20.7c1.084.485 2.166.726 3.25.726 1.347 0 2.37-.272 3.067-.815.697-.542 1.047-1.261 1.047-2.16 0-.47-.09-.87-.271-1.202-.18-.33-.433-.62-.757-.867a6.592 6.592 0 0 0-1.156-.691 25.694 25.694 0 0 0-1.461-.636l-3.25-1.382c-.576-.235-1.149-.53-1.714-.885a7.486 7.486 0 0 1-1.534-1.274 5.86 5.86 0 0 1-1.1-1.734c-.277-.66-.416-1.417-.416-2.266 0-.92.2-1.775.596-2.566a6.539 6.539 0 0 1 1.642-2.07c.697-.59 1.534-1.05 2.509-1.381.975-.33 2.04-.496 3.195-.496 1.371 0 2.694.266 3.97.796 1.275.531 2.369 1.246 3.284 2.143l-2.13 2.618a10.551 10.551 0 0 0-2.382-1.45c-.818-.354-1.732-.532-2.742-.532-1.132 0-2.034.243-2.709.726-.673.484-1.009 1.15-1.009 2 0 .448.102.831.307 1.15.203.319.48.602.83.85.348.248.75.472 1.208.672.457.201.927.397 1.409.585l3.212 1.31c.698.283 1.336.613 1.913.99a6.913 6.913 0 0 1 1.497 1.31c.422.496.753 1.068.994 1.716.24.65.36 1.4.36 2.249 0 .944-.193 1.829-.577 2.655a6.391 6.391 0 0 1-1.679 2.177c-.734.626-1.625 1.121-2.67 1.486-1.048.367-2.233.549-3.556.549-1.588 0-3.122-.295-4.602-.885A12 12 0 0 1 62 21.602l2.454-2.797zM82 2h13.653v3.446H86.02v5.874h8.143v3.446H86.02v6.788H96V25H82zM105.05 12.762h3.246c1.559 0 2.752-.328 3.578-.984.826-.656 1.24-1.641 1.24-2.955 0-1.336-.414-2.262-1.24-2.779-.826-.514-2.02-.772-3.578-.772h-3.247v7.49zM113.462 25l-4.922-9.003h-3.492V25H101V2h7.715c1.186 0 2.292.117 3.316.352s1.908.616 2.654 1.143c.744.528 1.33 1.226 1.762 2.093.431.868.646 1.946.646 3.235 0 1.76-.413 3.178-1.24 4.256-.825 1.078-1.925 1.853-3.298 2.321L118 25h-4.537zM119 2h4.297l3.212 11.571c.373 1.313.704 2.555.996 3.728.29 1.171.633 2.427 1.03 3.762h.14c.396-1.335.74-2.59 1.03-3.762.29-1.173.611-2.415.96-3.728L133.844 2H138l-7.09 23h-4.785L119 2zM141 2h13.653v3.446h-9.633v5.874h8.143v3.446h-8.143v6.788H155V25h-14z"/>
    </g>
</svg>
