<svg id="Layer_1" xmlns="http://www.w3.org/2000/svg" xmlns:xlink="http://www.w3.org/1999/xlink" viewBox="0 0 1709 735" enable-background="new 0 0 1709 735"><path fill="#ff282d" d="M1135.107 129.93V535.423H1256.909V473.467h-40.25V68.164L1135.095 68.175z"/><path fill="#ff282d" d="M77.437 473.467h41.405V277.836H77.437v-53.801l41.405-6.809v-54.462c0-65.969 14.359-94.598 98.487-94.598 18.17.0 39.707 2.683 58.563 6.08l-11.176 66.314c-12.77-2.023-19.104-2.382-27.176-2.382-29.639.0-37.133 2.957-37.133 31.916v47.131h61.541v60.611h-61.541v195.632h40.973v61.946l-163.941.017V473.467z"/><path fill="#ff282d" d="M1093.617 453.889c-12.759 2.692-23.915 2.368-31.988 2.567-33.557.825-30.658-10.204-30.658-41.844V277.836h63.873v-60.611h-63.873V68.164h-81.563v363.358c0 71.341 17.606 103.9 94.339 103.9 18.173.0 43.144-4.676 61.997-8.714L1093.617 453.889z"/><path fill="#ff282d" d="M1600.297 473.8c17.141.0 31.023 13.625 31.023 30.768.0 17.138-13.883 30.76-31.023 30.76-17.141.0-30.941-13.622-30.941-30.76C1569.357 487.425 1583.157 473.8 1600.297 473.8M1600.297 530.493c14.239.0 25.837-11.688 25.837-25.925.0-14.245-11.598-25.579-25.837-25.579-14.236.0-25.758 11.335-25.758 25.579C1574.54 518.804 1586.061 530.493 1600.297 530.493M1606.01 519.682l-6.242-9.141h-4.306v9.141h-6.941v-30.239h12.651c7.473.0 12.133 3.782 12.133 10.468.0 4.914-2.463 8.258-6.327 9.398l7.558 10.372H1606.01zM1595.463 504.475H1601c3.168.0 5.276-1.229 5.276-4.563.0-3.165-2.109-4.402-5.104-4.402h-5.71V504.475z"/><path fill="#ff282d" d="M847.593 277.725v-10.851c-24.675-4.501-49.178-4.566-62.47-4.566-37.957.0-42.585 20.129-42.585 31.04.0 15.436 5.267 23.782 46.388 32.773 60.107 13.494 120.473 27.573 120.473 102.104.0 70.682-36.377 107.198-112.947 107.198-51.238.0-100.954-10.999-138.888-20.625v-60.909h61.764l-.036 10.821c26.579 5.134 54.448 4.62 68.997 4.62 40.487.0 47.037-21.767 47.037-33.34.0-16.061-11.611-23.774-49.562-31.47-71.5-12.217-128.244-36.628-128.244-109.257.0-68.746 45.979-95.714 122.55-95.714 51.875.0 91.318 8.045 129.272 17.676v60.5H847.593z"/><path fill="#ff282d" d="M472.333 331.263l-6.207-6.209-31.522 27.47c-1.591-.57-3.293-.897-5.071-.897-8.506.0-15.392 7.089-15.392 15.824.0 8.745 6.886 15.832 15.392 15.832 8.502.0 15.404-7.087 15.404-15.832.0-1.659-.252-3.257-.713-4.76L472.333 331.263z"/><path fill="#ff282d" d="M597.261 453.889l-.053-253.81h-81.562v23.802c-16.799-10.078-35.511-17.285-55.455-20.979h.461v-28.166h9.951v-20.714h-82.125v20.714h9.95v28.166h.566c-78.009 14.361-137.126 82.671-137.126 164.833.0 92.595 75.062 167.657 167.657 167.657 31.602.0 61.155-8.755 86.385-23.955l14.694 23.986h86.152v-81.535H597.261zM434.41 453.704v-9.588h-9.772v9.561c-43.775-2.551-78.789-37.721-81.073-81.567h9.713v-9.772h-9.663c2.596-43.542 37.466-78.378 81.023-80.917v9.61h9.772v-9.638c42.935 2.295 77.52 35.973 81.257 78.51v2.802h-9.791v9.772h9.793l.001 2.676C511.953 417.71 477.359 451.409 434.41 453.704z"/><path fill="#ff282d" d="M1463.34 217.225h168.223v60.552h-40.209l-103.17 253.82c-29.569 71.3-78.136 138.408-152.102 138.408-18.186.0-42.396-2.015-59.185-6.049l7.377-74.028c10.773 2.015 24.884 3.341 32.288 3.341 34.301.0 72.993-21.253 85.094-58.257l-104.536-257.233h-40.211v-60.552h168.31v60.552h-40.205l59.223 145.702 59.223-145.702h-40.121V217.225z"/></svg>