<svg height="60" viewBox="0 0 120 59.999999" width="120" xmlns="http://www.w3.org/2000/svg"><g transform="matrix(.27628482 0 0 .27628482 20.068548 13.063115)"><g fill="#211f1f"><path d="m0 .02c9.46 0 18.93.09 28.4 0a3.74 3.74 0 0 1 4 2.35c11 21.69 22.09 43.28 33 65 2.35 4.64 4.14 9.56 6.18 14.35a4.8 4.8 0 0 0 1.07 1.7c-1.82-27.74-.69-55.43-1.05-83.22h24.48v118.61c-.69 0-1.43.12-2.17.12-8.76 0-17.52 0-26.28 0a2.55 2.55 0 0 1 -2.65-1.54c-9.45-18.35-19.17-36.57-28.34-55-4.5-9.06-8-18.61-12-27.93a5.12 5.12 0 0 0 -1.08-1.81c2.24 28.65 1.09 57.31 1.42 86a8.19 8.19 0 0 1 -1.31.25q-11.13 0-22.26 0a10.25 10.25 0 0 1 -1.46-.2z"/><path d="m146.73 122.59c-3.11-.43-6.25-.76-9.34-1.31-9.72-1.72-18.69-5.22-26.4-11.55-.7-.58-1.34-1.23-2.14-2 4.93-7.16 9.81-14.21 14.41-20.88 4.66 3.25 8.94 6.76 13.69 9.43 7.21 4 15.06 5.6 23.24 3.35 7.26-2 10.87-9.31 7.32-15.06a17.1 17.1 0 0 0 -5.82-5.65c-5.07-2.88-10.5-5.1-15.68-7.79-6.18-3.2-12.61-6.11-18.32-10-19.56-13.41-17.37-40.65.86-53a46.15 46.15 0 0 1 24.83-7.86c12.86-.48 24.75 2.38 35 10.52a28.6 28.6 0 0 1 2.47 2.33c.35.34.63.74 1.07 1.27l-16 19.08c-3.42-4-7.19-7.22-12-9.06a24.67 24.67 0 0 0 -14.71-1.42c-4.15 1-7.31 3.24-8.52 7.62a9.15 9.15 0 0 0 3.53 10.35 97.76 97.76 0 0 0 12.49 7.41c7.53 4 15.42 7.28 22.74 11.6a30 30 0 0 1 14.75 19.84c3.32 15.18-3.7 29.62-17.82 36.88a52.54 52.54 0 0 1 -21.08 5.53 11.14 11.14 0 0 0 -1.78.4z"/><path d="m251.84.89v118.15h-24.14v-91.23l-13.32 8.82-10-20c4.61-3.2 9.16-6.37 13.74-9.53 2.95-2 5.68-4.86 9-5.86s7.27-.29 10.94-.3z"/></g><path d="m275 119.53a13.42 13.42 0 0 1 -13.64-13.44c0-8 5.91-14.14 13.69-14.14 8.17 0 14.08 6 14.06 14.19-.03 7.67-6.03 13.4-14.11 13.39z" fill="#ee1a6e"/></g></svg>