<?xml version="1.0" encoding="utf-8"?>
<!-- Generator: Adobe Illustrator 19.0.0, SVG Export Plug-In . SVG Version: 6.00 Build 0)  -->
<svg version="1.1" id="Layer_1" xmlns="http://www.w3.org/2000/svg" xmlns:xlink="http://www.w3.org/1999/xlink" x="0px" y="0px"
	 viewBox="0 0 499.237 519.084" enable-background="new 0 0 499.237 519.084" xml:space="preserve">
<g id="Dark_Logo">
	<g id="XMLID_8_">
		<path id="XMLID_12_" fill="#2ECC71" d="M52.561,507.492V16.418c0-2.761,2.239-5,5-5h60.347c1.669,0,3.228,0.833,4.156,2.22
			L374.607,391.14c2.748,4.108,9.156,2.163,9.156-2.78V16.418c0-2.761,2.239-5,5-5h53.574c2.761,0,5,2.239,5,5v491.074
			c0,2.761-2.239,5-5,5h-60.346c-1.67,0-3.229-0.833-4.157-2.221L125.293,132.442c-2.747-4.11-9.157-2.165-9.157,2.778v372.272
			c0,2.761-2.239,5-5,5H57.561C54.8,512.492,52.561,510.254,52.561,507.492z"/>
	</g>
	<g id="XMLID_2_">
		<g id="XMLID_7_">
			<path id="XMLID_100_" fill="#E6E8E6" d="M45.082,404.751c-3.291-0.753-6.536-1.596-9.781-2.44
				c-3.234-0.865-6.466-1.735-9.673-2.654c-3.22-0.893-6.408-1.85-9.605-2.788c-3.196-0.94-6.362-1.941-9.545-2.908l-3.179-0.966
				L2.198,387c-0.239-1.302-0.445-2.604-0.42-3.906c0.012-1.302,0.202-2.604,0.235-3.906c0.035-2.604,0.048-5.208,0.048-7.813
				V355.75V324.5V262v-62.5v-31.25v-15.625l-0.042-7.813c-0.021-1.302-0.217-2.604-0.191-3.906c0.002-1.302,0.298-2.604,0.509-3.906
				l0.941-5.828l3.221-0.996c3.166-0.979,6.311-1.995,9.493-2.942c3.176-0.959,6.348-1.924,9.545-2.842l4.793-1.381l4.812-1.344
				c3.232-0.85,6.434-1.758,9.695-2.551c-2.545,2.188-5.149,4.261-7.723,6.391l-3.897,3.127l-3.916,3.09
				c-2.609,2.062-5.242,4.079-7.873,6.1c-2.624,2.033-5.284,3.997-7.925,5.999L17.671,137c0.211,1.302,0.515,2.604,0.516,3.906
				c0.026,1.302-0.125,2.604-0.145,3.906l0.019,7.813v15.625v31.25V262v62.5v31.25v15.625c0,2.604-0.048,5.208-0.013,7.813
				c0.033,1.302,0.177,2.604,0.189,3.906c0.025,1.302-0.189,2.604-0.428,3.906l-4.283-6.961c2.664,1.991,5.344,3.949,7.995,5.967
				c2.65,2.02,5.308,4.022,7.935,6.087c2.64,2.039,5.255,4.128,7.867,6.222C39.925,400.43,42.526,402.545,45.082,404.751z"/>
		</g>
		<g id="XMLID_6_">
			<path id="XMLID_98_" fill="#E6E8E6" d="M373.786,75.43c-5.976-0.912-11.784-2.147-17.565-3.432
				c-2.878-0.667-5.758-1.33-8.605-2.057l-2.141-0.533c-0.712-0.182-1.44-0.331-2.107-0.599c-1.343-0.518-2.448-1.492-3.724-2.14
				l-30.446-15.88l-60.893-31.736h7.391L212.26,41.697l-10.859,5.666c-0.903,0.476-1.815,0.938-2.71,1.429
				c-0.896,0.489-1.703,1.151-2.636,1.567c-0.935,0.413-1.999,0.58-3.006,0.856l-3.057,0.758c-2.032,0.517-4.093,0.977-6.141,1.462
				c-2.045,0.492-4.121,0.922-6.181,1.384c-2.075,0.433-4.139,0.888-6.239,1.274c-2.098,0.39-4.177,0.815-6.302,1.152
				c1.494-1.549,3.034-3.009,4.556-4.504c1.52-1.499,3.076-2.929,4.62-4.381c1.56-1.423,3.102-2.878,4.677-4.272
				c1.571-1.4,3.13-2.826,4.718-4.194l2.373-2.07c0.803-0.667,1.549-1.444,2.423-1.973c0.876-0.526,1.879-0.81,2.793-1.263
				c0.915-0.452,1.813-0.937,2.72-1.404l10.859-5.656l43.435-22.622L252,2.98l3.696,1.925l60.893,31.715l30.447,15.856
				c1.262,0.674,2.694,1.021,3.888,1.825c0.602,0.393,1.142,0.905,1.699,1.383l1.664,1.449c2.228,1.916,4.422,3.895,6.618,5.872
				C365.272,67.005,369.614,71.056,373.786,75.43z"/>
		</g>
		<g id="XMLID_5_">
			<path id="XMLID_96_" fill="#E6E8E6" d="M456.872,405.208c2.551-2.245,5.149-4.397,7.747-6.551
				c2.609-2.132,5.221-4.258,7.858-6.336c2.623-2.105,5.281-4.142,7.928-6.202c2.649-2.054,5.328-4.053,7.99-6.082l-4.225,6.951
				c-0.246-1.302-0.424-2.604-0.39-3.906c0.029-1.302,0.212-2.604,0.237-3.906l0.045-7.812V355.74v-31.249v-62.497v-62.497v-31.248
				v-15.624l-0.035-7.812c0-1.302-0.188-2.604-0.202-3.906c-0.039-1.302,0.222-2.604,0.446-3.906l4.153,6.859
				c-2.659-2.042-5.338-4.05-7.983-6.119c-2.648-2.064-5.302-4.117-7.929-6.221l-3.943-3.151l-3.924-3.187
				c-2.591-2.172-5.213-4.285-7.774-6.515c3.294,0.826,6.527,1.768,9.79,2.651l4.859,1.396l4.839,1.433
				c3.228,0.952,6.43,1.954,9.637,2.946c3.21,0.987,6.388,2.034,9.584,3.048l3.149,0.999l1.008,5.86
				c0.224,1.302,0.493,2.604,0.454,3.906c-0.014,1.302-0.156,2.604-0.156,3.906l0.026,7.812v15.624v31.248v62.497v62.497v31.249
				v15.624l-0.016,7.812c0.026,1.302,0.162,2.604,0.192,3.906c0.034,1.302-0.152,2.604-0.398,3.906l-1.131,5.974l-3.1,0.978
				c-3.192,1.008-6.37,2.046-9.575,3.028c-3.208,0.977-6.405,1.976-9.637,2.908c-3.218,0.959-6.461,1.869-9.706,2.774
				C463.433,403.532,460.176,404.416,456.872,405.208z"/>
		</g>
		<g id="XMLID_4_">
			<path id="XMLID_94_" fill="#E6E8E6" d="M126.622,446.699c6.136,0.97,12.101,2.268,18.038,3.62
				c2.959,0.694,5.914,1.397,8.839,2.155l2.2,0.557c0.736,0.182,1.471,0.363,2.14,0.672c1.339,0.617,2.489,1.597,3.822,2.226
				l31.344,16.325l62.689,32.65l-7.393,0.001l43.461-22.655l10.865-5.664c0.901-0.481,1.824-0.92,2.698-1.451
				c0.873-0.534,1.697-1.163,2.674-1.496c2-0.581,4.061-1.046,6.088-1.575c2.03-0.524,4.091-0.987,6.135-1.484
				c2.044-0.496,4.117-0.937,6.174-1.409c2.075-0.437,4.133-0.907,6.231-1.3c2.094-0.401,4.171-0.835,6.292-1.183
				c-1.5,1.54-3.045,2.994-4.573,4.481c-1.523,1.495-3.087,2.913-4.634,4.364c-1.565,1.417-3.113,2.863-4.691,4.255
				c-1.578,1.391-3.138,2.816-4.73,4.18c-1.594,1.359-3.155,2.782-4.777,4.089c-0.833,0.611-1.82,0.926-2.758,1.335
				c-0.936,0.413-1.824,0.918-2.735,1.381l-10.865,5.664l-43.461,22.655l-3.696,1.927l-3.697-1.926l-62.689-32.65l-31.344-16.325
				c-1.279-0.732-2.741-1.112-4.014-1.855c-0.637-0.372-1.207-0.87-1.778-1.369l-1.718-1.484c-2.299-1.962-4.568-3.981-6.833-6.007
				C135.417,455.314,130.935,451.17,126.622,446.699z"/>
		</g>
	</g>
</g>
</svg>
