<svg height="98" viewBox="0 0 773 98" width="773" xmlns="http://www.w3.org/2000/svg"><g fill="#22313f"><path d="m316.829019 14.1934199c-3.672188-1.8742111-7.718243-2.9007908-11.84001-3.0040899h-15.975024c-4.139647.1178627-7.613815 3.1548723-8.282871 7.2406271l-8.347078 58.7466485c-.311523 1.9526694.252072 3.9434672 1.540999 5.4433083 1.295339 1.471845 3.176262 2.2945139 5.136664 2.2466483 4.168969-.0945489 7.685518-3.1309455 8.385603-7.2406266l2.285816-16.2015456h7.448162l9.631245 19.847535c1.187478 2.2509183 3.541862 3.6412967 6.086946 3.5946372 1.389678-.0058605 2.7519-.3873511 3.942389-1.1040672 2.298042-1.2805156 3.876127-3.549845 4.276273-6.1493978.198534-1.3696228-.011411-2.7673633-.603558-4.0182911l-7.704996-15.9447855c3.804878-2.2428849 7.025758-5.3528734 9.400095-9.0764598 2.35516-3.6914615 3.948758-7.8161745 4.687206-12.1319018 1.47679-10.0906612-2.106032-18.0117019-10.067861-22.2482391zm-4.879831 21.8245854c-.419801 2.0485689-1.230787 3.9969964-2.388548 5.7385821-2.131716 3.2094979-5.136664 4.6216769-9.567036 4.6216769h-8.180138l2.850849-20.2069984h8.655278c1.826396.0486236 3.621389.4863017 5.265081 1.2837992 2.927898 1.6175868 3.980914 4.2365371 3.338831 8.5629402zm72.927784-24.8800273c-4.139647.1178628-7.613814 3.1548723-8.282871 7.2406272l-5.393496 38.1801865c0 .1283794-2.568332 13.3001589-13.650684 13.3001589-2.628349.1635872-5.191757-.8586567-6.985863-2.7858439-2.889374-3.3378778-2.799482-8.7940245-2.568332-10.0649856l5.393497-38.1545103c.311522-1.9526692-.252072-3.943467-1.540999-5.4433083-1.295339-1.4718451-3.176262-2.2945138-5.136664-2.2466485-4.139646.1178628-7.613814 3.1548723-8.28287 7.2406271l-5.393497 38.1288345c-.533983 4.5360761-.127441 9.1334933 1.194274 13.5055666 3.120523 9.5514656 10.812677 14.8150422 21.702404 14.8150422 10.459971.13278 20.171184-5.4092838 25.375119-14.4812544 2.453246-4.1184328 4.096496-8.6676711 4.841306-13.4028628l5.393497-38.1545104c.311522-1.9526692-.252072-3.943467-1.540999-5.4433083-1.28711-1.4696537-3.15742-2.2964889-5.110981-2.2594864zm67.226087 0c-4.179778.0597084-7.711844 3.1141806-8.372762 7.2406272l-5.008248 35.3686662-21.895028-39.2329016c-1.174002-2.0979354-3.399948-3.3878277-5.804431-3.3635538-4.179777.0597083-7.711842 3.1141806-8.372762 7.2406272l-8.295711 58.7980001c-.311523 1.9526695.252072 3.9434673 1.540999 5.4433084 1.295338 1.4718455 3.176261 2.2945139 5.136663 2.2466489 4.164089-.1006078 7.673617-3.1355906 8.372762-7.2406273l5.008247-35.3558282 21.89503 39.2585777c1.191513 2.1308105 3.466107 3.42597 5.907163 3.3635539 4.134753-.1239034 7.601915-3.1594939 8.270028-7.2406273l8.295713-58.7980006c.311521-1.9526692-.252073-3.943467-1.541-5.4433083-1.292927-1.4766099-3.174193-2.3041306-5.136663-2.2594865zm70.218193 4.4419451c-5.192792-2.9364454-11.062132-4.4675252-17.02804-4.4419451-20.212772 0-38.987278 16.4326289-41.838126 36.6396274-1.542705 9.4214779 1.133794 19.044734 7.319745 26.3178824 6.208048 7.0257033 15.190898 10.9689539 24.566095 10.7839128 6.315514-.0723039 12.530881-1.5872789 18.170948-4.4291073 3.852498-2.0027266 5.701696-6.4189955 4.289114-9.9751194-.677711-1.6847311-2.027338-3.0107095-3.724081-3.6588272-2.054257-.7241845-4.316134-.5709595-6.253888.4236539-3.345574 1.7242488-7.061725 2.6056461-10.825519 2.5675977-5.455488.1254628-10.690733-2.1511011-14.318451-6.2264255-3.613392-4.2605239-5.163881-9.8970528-4.237747-15.4055897 1.733624-12.1575778 13.021442-22.0556692 25.169652-22.0556692 3.479528-.085925 6.913654.8034908 9.913762 2.5675983h.077049c3.744483 1.8369797 8.271611.5785769 10.530161-2.927062 1.225362-1.7214142 1.689647-3.8704426 1.284166-5.94399-.41594-1.7761687-1.538186-3.3060674-3.107681-4.2365371zm38.38372 54.2533513h-18.710298l7.191329-50.9925016c.311523-1.9526692-.252072-3.943467-1.540999-5.4433083-1.295339-1.471845-3.176261-2.2945138-5.136664-2.2466485-4.170015.0720494-7.687868 3.1235917-8.347078 7.2406272l-8.308554 58.7980001c-.332943 1.9545017.23082 3.9550811 1.535361 5.4484034 1.30454 1.4933216 3.211585 2.3211039 5.193669 2.2543916h26.389611c4.16409-.1006077 7.673614-3.13559 8.372759-7.2406272.333311-1.9611578-.225598-3.9687467-1.524447-5.4757733-1.298849-1.5070267-3.202304-2.35647-5.191738-2.3168872zm52.008722-58.6952964c-19.390905 0-37.471964 16.4326289-40.322812 36.6396274-1.438266 10.2703929 1.155747 19.7705068 7.319747 26.8699157 5.814988 6.6610078 14.272676 10.4189078 23.114985 10.2703933 19.44227 0 37.574694-16.4326288 40.425542-36.6524653 1.438266-10.2062032-1.155747-19.7319928-7.319741-26.831402-5.840691-6.6899732-14.336767-10.4623184-23.217721-10.308907zm-8.282871 58.6952964c-4.908819.0842289-9.60586-1.9959672-12.841662-5.68723-3.639173-4.4389405-5.183959-10.2325649-4.237744-15.8934333 1.733623-12.1575779 12.327993-22.0556692 23.667177-22.0556692 4.936843-.0865055 9.661704 2.0029207 12.918706 5.7129062 3.669154 4.413443 5.218102 10.2132959 4.23775 15.8677573-1.695101 12.1575779-12.327994 22.055669-23.731384 22.055669zm97.725025-58.6952964c-4.139644.1178628-7.613814 3.1548723-8.282866 7.2406272l-5.393502 38.1801865c0 .1283794-2.568328 13.3001589-13.63784 13.3001589-2.628351.1635872-5.191755-.8586567-6.985862-2.7858439-2.876533-3.3378778-2.78664-8.7940245-2.568334-10.0649856l5.393497-38.1545103c.311522-1.9526692-.252072-3.943467-1.540996-5.4433083-1.295342-1.4718451-3.176263-2.2945138-5.136667-2.2466485-4.134754.1239029-7.601911 3.1594938-8.270029 7.2406271l-5.393496 38.1288345c-.538137 4.5351955-.135967 9.1325966 1.181432 13.5055666 3.107682 9.5514656 10.786997 14.8150422 21.676725 14.8150422 10.464539.137465 20.181775-5.4052322 25.387957-14.4812544 2.453245-4.1184328 4.096498-8.6676711 4.841305-13.4028628l5.393501-38.1545104c.311523-1.9526692-.252072-3.943467-1.541001-5.4433083-1.287112-1.4696537-3.157418-2.2964889-5.110982-2.2594864zm43.212187 0h-17.169299c-4.139649.1178628-7.613813 3.1548723-8.282871 7.2406272l-8.295714 58.7980004c-.318519 1.9488333.23555 3.9391544 1.515316 5.4433083 1.295342 1.471845 3.176263 2.2945139 5.136667 2.2466483h17.130771c1.284167 0 31.385015-.4236533 36.470312-36.6396271 1.707943-12.0291979-.295357-21.4394456-5.971373-27.9868212-7.67931-8.8325381-19.223963-9.0892979-20.546652-9.0892979zm.680605 55.8966142c-2.725645 1.6464861-5.810359 2.60688-8.989162 2.7986822h-9.297361l6.164-43.6491705h9.75966c2.746817.1774097 5.401064 1.0619072 7.704995 2.5675983 4.982562 3.3122017 6.844605 9.7183595 5.521916 19.0515792-1.322695 9.3332197-4.982568 15.7907292-10.87689 19.2313108z"/><path d="m189.561992 33.539994h-.07001c-2.848344 0-5.157384 2.3083802-5.157384 5.1559115s2.30904 5.1559115 5.157384 5.1559115h.07001c2.749887-.1308724 4.912142-2.3978646 4.912142-5.150079 0-2.7522145-2.162255-5.0192066-4.912142-5.1500791zm9.918048-15.4793994c.003099 1.3694527-.538899 2.6838777-1.506432 3.653323-.967533.9694454-2.281106 1.5142569-3.650953 1.5142534h-17.969168c-2.848345 0-5.157385-2.3083802-5.157385-5.1559115s2.30904-5.1559115 5.157385-5.1559115h17.969168c2.839256-.0000291 5.144537 2.2941654 5.157385 5.1325816zm17.619119 15.4910643h-6.370887c-1.842556 0-3.545148.9827112-4.466426 2.5779558s-.921278 3.560667 0 5.1559116c.921278 1.5952445 2.62387 2.5779557 4.466426 2.5779556h6.394224c2.851566 0 5.163218-2.3109915 5.163218-5.1617439 0-2.8507525-2.311652-5.161744-5.163218-5.161744zm.513405 25.7795578c0 1.3674327-.543366 2.6788589-1.510563 3.64578-.967198.9669205-2.278998 1.5101311-3.646822 1.5101311h-54.525924c-2.851566 0-5.163218 2.3109916-5.163218 5.1617444 0 2.8507522 2.311652 5.1617439 5.163218 5.1617439h37.501888c1.842556 0 3.545148.9827111 4.466426 2.5779556.921278 1.5952444.921278 3.5606672 0 5.1559116-.921278 1.5952445-2.62387 2.5779556-4.466426 2.5779556h-22.869851c-.570527.8337944-1.185965 1.6359711-1.84359 2.4029817-4.861869 5.7544261-11.733529 9.4416222-19.217675 10.3118227h-126.0175428c-13.8057554.0883873-25.13753064-10.8961205-25.47478361-24.6940966-.33725297-13.7979767 10.44434761-25.3226753 24.23794481-25.9084918-.0000869-11.4800663 5.9490756-22.1406712 15.720709-28.1707327 9.7716333-6.0300615 21.9706385-6.5686658 32.2359667-1.4232661 7.9043261-10.25849138 19.8253239-16.64102439 32.7473609-17.53302135s25.607383 3.79198156 34.847049 12.86703805h16.253929c1.842557 0 3.545149.9827111 4.466427 2.5779557s.921278 3.560667 0 5.1559116-2.62387 2.5779557-4.466427 2.5779557h-16.615646c-1.898964-.0903754-3.693676.8709795-4.67022 2.5016485-.976542 1.6306689-.976542 3.6661921 0 5.2968611.976544 1.6306689 2.771256 2.5920238 4.67022 2.5016484h29.777479c2.848344 0 5.157384 2.3083803 5.157384 5.1559115 0 2.8475313-2.30904 5.1559115-5.157384 5.1559115h-24.503412c-2.851566 0-5.163218 2.3109915-5.163218 5.161744s2.311652 5.161744 5.163218 5.161744h67.676088c2.839385-.0259495 5.165632 2.2474891 5.204058 5.0859219z"/></g></svg>