<svg xmlns="http://www.w3.org/2000/svg" xmlns:xlink="http://www.w3.org/1999/xlink" viewBox="0 0 527.16 113.64"><defs><style>.cls-1{fill:#253858;}.cls-2{fill:url(#linear-gradient);}.cls-3{fill:#2684ff;}</style><linearGradient id="linear-gradient" x1="37.31" y1="89.93" x2="37.31" y2="58.98" gradientUnits="userSpaceOnUse"><stop offset="0" stop-color="#2684ff"/><stop offset="0.82" stop-color="#0052cc"/></linearGradient></defs><title>Asset 115-blue</title><g id="Layer_2" data-name="Layer 2"><g id="Blue"><path class="cls-1" d="M116.38,96.83c-11.18,0-16.37-2.2-20.86-4.49v-8.1c5.37,2.82,13.64,4.84,21.29,4.84,8.71,0,12-3.43,12-8.54s-3.17-7.83-14.17-10.47c-13-3.17-18.83-7.66-18.83-17.16,0-9,6.86-15.66,20.33-15.66,8.36,0,13.73,2,17.69,4.22V49.4a35.52,35.52,0,0,0-18-4.4c-7.57,0-12.06,2.64-12.06,7.92,0,4.75,3.7,7.13,13.9,9.68,12.23,3.08,19.1,7,19.1,17.42C136.71,90.06,130.72,96.83,116.38,96.83Z"/><path class="cls-1" d="M163.46,88.56a24,24,0,0,0,4.75-.62v7.3a18.15,18.15,0,0,1-5.1.7c-9.42,0-14-5.54-14-13.73V59H142V52h7.13V42.63h7.39V52h11.7v7h-11.7V82.05C156.51,85.92,158.8,88.56,163.46,88.56Z"/><path class="cls-1" d="M206,88c-2.82,5.81-8.1,8.8-14.87,8.8-11.7,0-17.6-9.94-17.6-22.88,0-12.41,6.16-22.88,18.48-22.88,6.42,0,11.35,2.9,14,8.62V52h7.57V96H206ZM193.12,89.8c6.78,0,12.85-4.31,12.85-14.08V72.2c0-9.77-5.54-14.08-12-14.08-8.54,0-12.94,5.63-12.94,15.84C181.06,84.52,185.28,89.8,193.12,89.8Z"/><path class="cls-1" d="M242.4,88.56a24,24,0,0,0,4.75-.62v7.3a18.15,18.15,0,0,1-5.1.7c-9.42,0-14-5.54-14-13.73V59h-7.13V52h7.13V42.63h7.39V52h11.7v7h-11.7V82.05C235.44,85.92,237.73,88.56,242.4,88.56Z"/><path class="cls-1" d="M255.95,52h7.57V78.53c0,7.92,3.17,11.44,10.38,11.44,7,0,11.88-4.66,11.88-13.55V52h7.57V96h-7.57V88.74a15.42,15.42,0,0,1-13.9,8.1c-10.12,0-15.93-7-15.93-19.09Z"/><path class="cls-1" d="M318.6,96.83a33.9,33.9,0,0,1-15.31-3.26v-8A34.39,34.39,0,0,0,319,89.88c5.81,0,8.8-2.38,8.8-5.81s-2.55-5.28-10.91-7.3c-9.77-2.38-13.9-6.16-13.9-13.38,0-7.66,5.9-12.32,15.93-12.32A31.24,31.24,0,0,1,333,54.24v7.83c-5.28-2.64-9.59-4-14.25-4-5.54,0-8.54,1.94-8.54,5.37,0,3.08,2.11,5,10.21,7,9.77,2.38,14.7,6,14.7,13.64C335.15,91.29,330.4,96.83,318.6,96.83Z"/><path class="cls-1" d="M351.43,88.21v24.9h-7.57V52h7.57v7.92c2.82-5.81,8.1-8.8,14.87-8.8C378,51.08,383.9,61,383.9,74c0,12.41-6.16,22.88-18.48,22.88C359,96.83,354.07,93.93,351.43,88.21Zm12.85-30.1c-6.78,0-12.85,4.31-12.85,14.08v3.52c0,9.77,5.54,14.08,12,14.08,8.54,0,12.94-5.63,12.94-15.84C376.33,63.4,372.11,58.12,364.27,58.12Z"/><path class="cls-1" d="M422.53,88c-2.82,5.81-8.1,8.8-14.87,8.8-11.7,0-17.6-9.94-17.6-22.88,0-12.41,6.16-22.88,18.48-22.88,6.42,0,11.35,2.9,14,8.62V52h7.57V96h-7.57ZM409.68,89.8c6.78,0,12.85-4.31,12.85-14.08V72.2c0-9.77-5.54-14.08-12-14.08-8.54,0-12.94,5.63-12.94,15.84C397.63,84.52,401.85,89.8,409.68,89.8Z"/><path class="cls-1" d="M471.19,88c-2.82,5.81-8.1,8.8-14.87,8.8-11.62,0-17.42-9.94-17.42-22.88,0-12.41,6.07-22.88,18.3-22.88,6.42,0,11.35,2.9,14,8.62V52h7.39V92c0,12.94-6.07,21.65-21.82,21.65a44.31,44.31,0,0,1-15.66-2.38v-7.39a48.61,48.61,0,0,0,15.31,2.64c11,0,14.78-5.9,14.78-14.08ZM458.35,89.8c6.78,0,12.85-4.31,12.85-14.08V72.2c0-9.77-5.54-14.08-12-14.08-8.54,0-12.94,5.63-12.94,15.84C446.29,84.52,450.51,89.8,458.35,89.8Z"/><path class="cls-1" d="M511.06,96.83c-16.46,0-23.67-9.5-23.67-23,0-13.29,7.39-22.79,20.77-22.79,13.55,0,19,9.42,19,22.79V77.3H495c1.06,7.48,5.9,12.32,16.28,12.32a39,39,0,0,0,13.37-2.38v7C521.09,96.13,515.54,96.83,511.06,96.83Zm-16.1-26H519.5c-.44-8.18-4.14-12.85-11.7-12.85C499.79,57.94,495.75,63.13,495,70.79Z"/><circle class="cls-2" cx="37.31" cy="78.47" r="17.47"/><path class="cls-3" d="M.47,58.26,9.85,69.37a2,2,0,0,0,2.84.21c15.19-13.62,34-13.62,49.23,0a2,2,0,0,0,2.84-.21l9.38-11.11a2,2,0,0,0-.23-2.81c-22-19.28-51.17-19.28-73.21,0A2,2,0,0,0,.47,58.26Z"/><path class="cls-1" d="M166.59,5.22c0,2.6,1.21,4.66,5.92,5.57,2.81.59,3.4,1,3.4,2s-.59,1.5-2.57,1.5a14.51,14.51,0,0,1-6.83-1.85v4.23a14,14,0,0,0,6.78,1.47c4.93,0,6.88-2.2,6.88-5.46m0,0c0-3.08-1.63-4.53-6.24-5.52-2.54-.56-3.16-1.12-3.16-1.93,0-1,.91-1.45,2.6-1.45a14.63,14.63,0,0,1,5.95,1.47v-4A13.44,13.44,0,0,0,173.5,0c-4.55,0-6.91,2-6.91,5.22"/><polygon class="cls-1" points="229.9 0.27 229.9 17.86 233.65 17.86 233.65 4.45 235.23 8.01 240.54 17.86 245.25 17.86 245.25 0.27 241.5 0.27 241.5 11.62 240.08 8.33 235.82 0.27 229.9 0.27"/><rect class="cls-1" x="201.96" y="0.27" width="4.1" height="17.6"/><path class="cls-1" d="M197.23,12.67c0-3.08-1.63-4.53-6.24-5.52-2.54-.56-3.16-1.12-3.16-1.93,0-1,.91-1.45,2.6-1.45a14.63,14.63,0,0,1,5.95,1.47v-4A13.44,13.44,0,0,0,190.56,0c-4.55,0-6.91,2-6.91,5.22,0,2.6,1.21,4.66,5.92,5.57,2.81.59,3.4,1,3.4,2s-.59,1.5-2.57,1.5a14.51,14.51,0,0,1-6.83-1.85v4.23a14,14,0,0,0,6.78,1.47c4.93,0,6.88-2.2,6.88-5.46"/><polygon class="cls-1" points="134.76 0.27 134.76 17.86 143.19 17.86 144.51 14.06 138.89 14.06 138.89 0.27 134.76 0.27"/><polygon class="cls-1" points="118.12 0.27 118.12 4.07 122.68 4.07 122.68 17.86 126.8 17.86 126.8 4.07 131.67 4.07 131.67 0.27 118.12 0.27"/><path class="cls-1" d="M112.14.27h-5.4l-6.14,17.6h4.69l.87-3a11.65,11.65,0,0,0,6.56,0l.87,3h4.69Zm-2.7,11.46a8,8,0,0,1-2.25-.32l2.25-7.68,2.25,7.68A8,8,0,0,1,109.44,11.73Z"/><path class="cls-1" d="M157.7.27h-5.4l-6.14,17.6h4.69l.87-3a11.65,11.65,0,0,0,6.56,0l.87,3h4.69ZM155,11.73a8,8,0,0,1-2.25-.32L155,3.72l2.25,7.68A8,8,0,0,1,155,11.73Z"/><path class="cls-1" d="M220.82.27h-5.4l-6.14,17.6H214l.87-3a11.65,11.65,0,0,0,6.56,0l.87,3H227Zm-2.7,11.46a8,8,0,0,1-2.25-.32l2.25-7.68,2.25,7.68A8,8,0,0,1,218.12,11.73Z"/></g></g></svg>