<svg id="Layer_1" xmlns="http://www.w3.org/2000/svg" xmlns:xlink="http://www.w3.org/1999/xlink" viewBox="0 0 148.2 42.7" style="enable-background:new 0 0 148.2 42.7"><style>.st0{fill-rule:evenodd;clip-rule:evenodd;fill:url(#SVGID_1_)}.st1{fill-rule:evenodd;clip-rule:evenodd}.st2{fill-rule:evenodd;clip-rule:evenodd;fill:url(#SVGID_2_)}.st3{fill-rule:evenodd;clip-rule:evenodd;fill:url(#SVGID_3_)}.st4{fill-rule:evenodd;clip-rule:evenodd;fill:url(#SVGID_4_)}.st5{fill-rule:evenodd;clip-rule:evenodd;fill:url(#SVGID_5_)}.st6{fill-rule:evenodd;clip-rule:evenodd;fill:url(#SVGID_6_)}.st7{fill-rule:evenodd;clip-rule:evenodd;fill:url(#SVGID_7_)}.st8{fill-rule:evenodd;clip-rule:evenodd;fill:url(#SVGID_8_)}.st9{fill-rule:evenodd;clip-rule:evenodd;fill:url(#SVGID_9_)}.st10{fill-rule:evenodd;clip-rule:evenodd;fill:url(#SVGID_10_)}</style><g id="Layer_2_1_"><g id="Layer_1-2"><linearGradient id="SVGID_1_" gradientUnits="userSpaceOnUse" x1="131.1709" y1="18.731" x2="143.5409" y2="10.391" gradientTransform="matrix(1 0 0 -1 0 44)"><stop offset="0" style="stop-color:#febe2d"/><stop offset="1" style="stop-color:#f85e23"/></linearGradient><path class="st0" d="M125.1 30.9c-.5.0-1 .5-1 1-.1.6.2 1 .8 1 .5-.1.9-.5 1-1 .1-.4-.1-.8-.5-1C125.2 30.9 125.1 30.9 125.1 30.9zM132.4 25.2c-1.1.0-2.1.5-2.7 1.5l.2-1.4h-1.7l-1.1 7.5h1.7l.5-3.7c.1-1.2 1-2.1 2.1-2.2 1 0 1.5.6 1.3 1.7l-.6 4.2h1.7l.7-4.7C134.9 26.3 134 25.2 132.4 25.2zM139.6 25.2c-2.2.0-3.9 1.7-4.1 3.9-.3 2.3.9 3.8 3.1 3.8 1.2.0 2.3-.5 3.1-1.3l-.8-1c-.5.5-1.3.8-2 .8-.9.1-1.7-.7-1.8-1.6.0.0.0-.1.0-.1h5.2C142.9 27 142.1 25.2 139.6 25.2zM137.3 28.4c.2-1 1.1-1.8 2.1-1.8.8-.1 1.5.5 1.6 1.3.0.2.0.4.0.5H137.3zM147.1 31c-.3.2-.6.3-1 .3-.5.0-.7-.2-.6-1l.5-3.4h2l.2-1.3h-2l.3-2.1h-1.7l-.3 2.1h-1l-.2 1.3h1l-.5 3.7c-.2 1.6.6 2.3 1.7 2.3.7.0 1.3-.2 1.8-.5L147.1 31z"/><path class="st1" d="M44.6 22.8c.7.0 1.3.6 1.3 1.3s-.6 1.3-1.3 1.3c-.7.0-1.3-.6-1.3-1.3.0.0.0.0.0.0C43.3 23.4 43.9 22.8 44.6 22.8zM57.8 19.1c1.1-.9 2.5-1.3 3.9-1.4 1.7.0 3.3.7 4.4 1.9 1.3 1.6 1.8 3.8 1.4 5.8-.3 3.5-2.7 6.4-6 7.5-.7.2-1.4.3-2.1.3-1.5.1-3-.7-3.9-1.9l-.2 1.3c0 .1-.1.2-.3.2H52c-.1.0-.1.0-.2-.1.0-.1.0-.1.0-.2l1.1-7.4h-4c-.6.0-1.1-.5-1.1-1.1.0-.6.4-1.1 1-1.2h8.6c-.6.7-1 1.6-1.1 2.6-.3 2.1.8 4.2 3.1 4.2 2.3-.1 4.2-1.9 4.5-4.2.3-2.1-.9-4.1-3.2-4.1h-9.8c-.6.0-1.1-.5-1.1-1.1.0-.6.5-1.1 1.1-1.1h2.8l.8-5.7c0-.1.1-.2.3-.2H58c.1.0.1.0.2.1.0.1.0.1.0.2l-.8 5.6H57.8zM77.4 31.6c-1.1 1.2-2.6 1.8-4.1 1.7-3.9.0-5-2.9-4.5-6.3l1.3-8.6c0-.1.1-.2.3-.2h3.2c.1.0.1.0.2.1.0.1.0.1.0.2l-1.1 7.8c-.3 1.8.0 3.5 2.2 3.5s3-1.5 3.3-3.4l1.1-7.9c0-.1.1-.2.3-.2h3.2c.1.0.1.0.2.1.0.1.0.1.0.2l-2 14.2c0 .1-.1.2-.3.2h-3c-.1.0-.1.0-.2-.1.0-.1-.1-.1-.1-.2L77.4 31.6zM88.3 19.5c1.1-1.1 2.6-1.8 4.1-1.7 3.9.0 5 2.9 4.5 6.3l-1.2 8.6c0 .1-.1.2-.2.2h-3.2c-.1.0-.1.0-.2-.1.0.0-.1-.1-.1-.2l1.1-7.7c.3-1.8.1-3.5-2.1-3.5s-3 1.5-3.3 3.4l-1.1 7.9c0 .1-.1.2-.2.2h-3.2c-.1.0-.1.0-.2-.1.0-.1.0-.1.0-.2l2-14.2c0-.1.1-.2.3-.2h3c.1.0.1.0.2.1.0.0.1.1.1.2L88.3 19.5zM103.1 19.5c1.1-1.1 2.6-1.8 4.1-1.7 3.9.0 5 2.9 4.5 6.3l-1.2 8.6c0 .1-.1.2-.2.2h-3.2c-.1.0-.1.0-.2-.1.0.0-.1-.1-.1-.2L108 25c.3-1.8.1-3.5-2.1-3.5s-3 1.5-3.3 3.4l-1.1 7.9c0 .1-.1.2-.2.2H98c-.1.0-.1.0-.2-.1.0-.1.0-.1.0-.2l2-14.2c0-.1.1-.2.2-.2h3c.1.0.1.0.2.1.0.0.1.1.1.2L103.1 19.5zM115.5 32.1l-3-13.6c0-.1.0-.1.0-.2.0-.1.1-.1.2-.1h3.4c.1.0.2.1.2.2l1.8 8.8 4.3-8.8c0-.1.1-.1.2-.1h3.4c.1.0.1.0.2.1.0.1.0.2.0.2l-9.8 19.2c0 .1-.1.1-.2.1h-3.4c-.1.0-.1.0-.2-.1.0-.1.0-.2.0-.2L115.5 32.1z"/><linearGradient id="SVGID_2_" gradientUnits="userSpaceOnUse" x1="16.85" y1="37.895" x2="36.49" y2="37.895" gradientTransform="matrix(1 0 0 -1 0 44)"><stop offset="0" style="stop-color:#fbaa19"/><stop offset="1" style="stop-color:#ef3e23"/></linearGradient><path class="st2" d="M21 6.8l9.9 5.4L21.8.0C20.3 2 20 4.6 21 6.8z"/><linearGradient id="SVGID_3_" gradientUnits="userSpaceOnUse" x1="15.7715" y1="12.9194" x2="17.3115" y2="17.1294" gradientTransform="matrix(1 0 0 -1 0 44)"><stop offset="0" style="stop-color:#f78d1e"/><stop offset="1" style="stop-color:#f37121"/></linearGradient><path class="st3" d="M16.5 26.7c1.2.0 2.2 1 2.2 2.3.0 1.2-1 2.2-2.3 2.2-1.2.0-2.2-1-2.2-2.2C14.3 27.8 15.3 26.7 16.5 26.7c0 0 0 0 0 0z"/><linearGradient id="SVGID_4_" gradientUnits="userSpaceOnUse" x1="3.5604" y1="11.4696" x2="27.4904" y2="37.1196" gradientTransform="matrix(1 0 0 -1 0 44)"><stop offset="0" style="stop-color:#febe2d"/><stop offset="1" style="stop-color:#f04e23"/></linearGradient><path class="st4" d="M9.7 1.8l27.6 15c.7.3.9 1.1.6 1.8-.1.3-.3.5-.6.6-2.1 1.3-4.4 2.2-6.8 2.6l-5.8 11.8c0 0-1.8 4.1-6.8 2.5 2.1-2.1 4.6-4 4.6-7.2.0-3.4-2.7-6.1-6.1-6.1s-6.1 2.7-6.1 6.1c0 4.2 4.2 6 6.5 8.9 1 1.5.9 3.5-.3 4.8C13.7 39.8 8.2 35 5.9 31.9c-1.2-1.6-1.9-3.5-2-5.5.2-4.4 3.2-8.2 7.4-9.5 1.3-.4 2.6-.5 3.9-.5 1.8.1 3.6.7 5.2 1.6 2.5 1.4 3.6 1.1 5.3-.4 1-.8 2.1-3.5.4-4.1-.6-.2-1.1-.3-1.7-.4-3.1-.6-8.6-1.2-10.6-2.3C10.6 9 8.4 5.3 9.7 1.8z"/><linearGradient id="SVGID_5_" gradientUnits="userSpaceOnUse" x1="20.5027" y1="26.4387" x2="7.2627" y2="6.0587" gradientTransform="matrix(1 0 0 -1 0 44)"><stop offset="0" style="stop-color:#ea4425"/><stop offset="1" style="stop-color:#fdbb27"/></linearGradient><path class="st5" d="M22.5 29.4zM22.5 29c1.3-6.7-5.5-13.1-10.8-12.2l.4-.1c-.3.1-.6.1-.8.2-4.2 1.3-7.2 5.1-7.4 9.5.0 2 .7 4 2 5.5 2.3 3.1 7.8 7.9 10.7 10.8 1.2-1.3 1.4-3.3.3-4.8-2.4-2.9-6.5-4.7-6.5-8.9.0-3.4 2.7-6.1 6.1-6.1C19.9 22.9 22.6 25.6 22.5 29z"/><linearGradient id="SVGID_6_" gradientUnits="userSpaceOnUse" x1=".24" y1="33.4281" x2="42.04" y2="33.4281" gradientTransform="matrix(1 0 0 -1 0 44)"><stop offset="0" style="stop-color:#f47920"/><stop offset="1" style="stop-color:#e93825"/></linearGradient><path class="st6" d="M9.7 1.8l21 11.4.6.3c.5.4 1 1.2.4 2.6-1 2.1-5 4.2-9.6 2.6 1.4.4 2.4-.1 3.7-1.1 1-.8 2.1-3.5.4-4.1-.6-.2-1.1-.3-1.7-.4-3.1-.6-8.6-1.2-10.6-2.3C10.6 9 8.4 5.3 9.7 1.8z"/><linearGradient id="SVGID_7_" gradientUnits="userSpaceOnUse" x1="-21.84" y1="36.21" x2="63.21" y2="36.21" gradientTransform="matrix(1 0 0 -1 0 44)"><stop offset="0" style="stop-color:#fdca0b"/><stop offset="1" style="stop-color:#f5841f"/></linearGradient><path class="st7" d="M9.7 1.8c2.2 8 15.4 8.7 22 12l-22-12z"/><linearGradient id="SVGID_8_" gradientUnits="userSpaceOnUse" x1="8.5447" y1="25.9314" x2="17.3947" y2="-4.9386" gradientTransform="matrix(1 0 0 -1 0 44)"><stop offset="0" style="stop-color:#e73c25"/><stop offset="1" style="stop-color:#faa21b"/></linearGradient><path class="st8" d="M16.9 37.9c-2.3-2.9-6.5-4.7-6.5-8.9.0-3.1 2.3-5.6 5.3-6C10.9 23 7 26.9 7 31.8c0 .6.1 1.2.2 1.8 1.9 2.2 4.7 4.7 7 6.9.9.8 1.8 1.7 2.4 2.3.6-.7.9-1.5 1-2.4C17.7 39.5 17.4 38.6 16.9 37.9z"/><linearGradient id="SVGID_9_" gradientUnits="userSpaceOnUse" x1="-51.37" y1="20.9197" x2="74.88" y2="20.9197" gradientTransform="matrix(1 0 0 -1 0 44)"><stop offset="0" style="stop-color:#fdba12"/><stop offset="1" style="stop-color:#f7921e"/></linearGradient><path class="st9" d="M22.5 29.7c0-.2.0-.5.0-.7 1.3-6.7-5.6-13.1-10.8-12.2 1.1-.3 2.3-.4 3.4-.3C22 16.7 24 24.1 22.5 29.7z"/><linearGradient id="SVGID_10_" gradientUnits="userSpaceOnUse" x1=".08023044" y1="27.2813" x2="4.8102" y2="26.4413" gradientTransform="matrix(1 0 0 -1 0 44)"><stop offset="0" style="stop-color:#febe2d"/><stop offset="1" style="stop-color:#f04e23"/></linearGradient><path class="st10" d="M2.3 14.8c1.2.0 2.3 1 2.3 2.3v2.3H2.3c-1.2.0-2.3-1-2.3-2.3.0.0.0.0.0.0C0 15.9 1 14.8 2.3 14.8z"/></g></g></svg>
