
<svg xmlns="http://www.w3.org/2000/svg" width="922" height="1298"><path fill="#FFF" fill-rule="evenodd" d="M0 0h922v1298H0V0zm130 17a4 4 0 0 0-4 4v2a4 4 0 0 0 4 4h171a4 4 0 0 0 4-4v-2a4 4 0 0 0-4-4H130zm0 25a4 4 0 1 0 0 8h135a4 4 0 1 0 0-8H130zM4 0h94a4 4 0 0 1 4 4v57a4 4 0 0 1-4 4H4a4 4 0 0 1-4-4V4a4 4 0 0 1 4-4zm633 17a4 4 0 0 0-4 4v2a4 4 0 0 0 4 4h281a4 4 0 0 0 4-4v-2a4 4 0 0 0-4-4H637zm0 25a4 4 0 1 0 0 8h89a4 4 0 1 0 0-8h-89zm-507 64a4 4 0 0 0-4 4v2a4 4 0 0 0 4 4h171a4 4 0 0 0 4-4v-2a4 4 0 0 0-4-4H130zm0 25a4 4 0 1 0 0 8h135a4 4 0 1 0 0-8H130zM4 89a4 4 0 0 0-4 4v57a4 4 0 0 0 4 4h94a4 4 0 0 0 4-4V93a4 4 0 0 0-4-4H4zm633 17a4 4 0 0 0-4 4v2a4 4 0 0 0 4 4h281a4 4 0 0 0 4-4v-2a4 4 0 0 0-4-4H637zm0 25a4 4 0 1 0 0 8h89a4 4 0 1 0 0-8h-89zm-507 63a4 4 0 0 0-4 4v2a4 4 0 0 0 4 4h171a4 4 0 0 0 4-4v-2a4 4 0 0 0-4-4H130zm0 25a4 4 0 1 0 0 8h135a4 4 0 1 0 0-8H130zM4 177a4 4 0 0 0-4 4v57a4 4 0 0 0 4 4h94a4 4 0 0 0 4-4v-57a4 4 0 0 0-4-4H4zm633 17a4 4 0 0 0-4 4v2a4 4 0 0 0 4 4h281a4 4 0 0 0 4-4v-2a4 4 0 0 0-4-4H637zm0 25a4 4 0 1 0 0 8h89a4 4 0 1 0 0-8h-89zm-507 63a4 4 0 0 0-4 4v2a4 4 0 0 0 4 4h171a4 4 0 0 0 4-4v-2a4 4 0 0 0-4-4H130zm0 25a4 4 0 1 0 0 8h135a4 4 0 1 0 0-8H130zM4 265a4 4 0 0 0-4 4v57a4 4 0 0 0 4 4h94a4 4 0 0 0 4-4v-57a4 4 0 0 0-4-4H4zm633 17a4 4 0 0 0-4 4v2a4 4 0 0 0 4 4h281a4 4 0 0 0 4-4v-2a4 4 0 0 0-4-4H637zm0 25a4 4 0 1 0 0 8h89a4 4 0 1 0 0-8h-89zm-507 63a4 4 0 0 0-4 4v2a4 4 0 0 0 4 4h171a4 4 0 0 0 4-4v-2a4 4 0 0 0-4-4H130zm0 25a4 4 0 1 0 0 8h135a4 4 0 1 0 0-8H130zM4 353a4 4 0 0 0-4 4v57a4 4 0 0 0 4 4h94a4 4 0 0 0 4-4v-57a4 4 0 0 0-4-4H4zm633 17a4 4 0 0 0-4 4v2a4 4 0 0 0 4 4h281a4 4 0 0 0 4-4v-2a4 4 0 0 0-4-4H637zm0 25a4 4 0 1 0 0 8h89a4 4 0 1 0 0-8h-89zm-507 63a4 4 0 0 0-4 4v2a4 4 0 0 0 4 4h171a4 4 0 0 0 4-4v-2a4 4 0 0 0-4-4H130zm0 25a4 4 0 1 0 0 8h135a4 4 0 1 0 0-8H130zM4 441a4 4 0 0 0-4 4v57a4 4 0 0 0 4 4h94a4 4 0 0 0 4-4v-57a4 4 0 0 0-4-4H4zm633 17a4 4 0 0 0-4 4v2a4 4 0 0 0 4 4h281a4 4 0 0 0 4-4v-2a4 4 0 0 0-4-4H637zm0 25a4 4 0 1 0 0 8h89a4 4 0 1 0 0-8h-89zm-507 63a4 4 0 0 0-4 4v2a4 4 0 0 0 4 4h171a4 4 0 0 0 4-4v-2a4 4 0 0 0-4-4H130zm0 25a4 4 0 1 0 0 8h135a4 4 0 1 0 0-8H130zM4 529a4 4 0 0 0-4 4v57a4 4 0 0 0 4 4h94a4 4 0 0 0 4-4v-57a4 4 0 0 0-4-4H4zm633 17a4 4 0 0 0-4 4v2a4 4 0 0 0 4 4h281a4 4 0 0 0 4-4v-2a4 4 0 0 0-4-4H637zm0 25a4 4 0 1 0 0 8h89a4 4 0 1 0 0-8h-89zm-507 63a4 4 0 0 0-4 4v2a4 4 0 0 0 4 4h171a4 4 0 0 0 4-4v-2a4 4 0 0 0-4-4H130zm0 25a4 4 0 1 0 0 8h135a4 4 0 1 0 0-8H130zM4 617a4 4 0 0 0-4 4v57a4 4 0 0 0 4 4h94a4 4 0 0 0 4-4v-57a4 4 0 0 0-4-4H4zm633 17a4 4 0 0 0-4 4v2a4 4 0 0 0 4 4h281a4 4 0 0 0 4-4v-2a4 4 0 0 0-4-4H637zm0 25a4 4 0 1 0 0 8h89a4 4 0 1 0 0-8h-89zm-507 63a4 4 0 0 0-4 4v2a4 4 0 0 0 4 4h171a4 4 0 0 0 4-4v-2a4 4 0 0 0-4-4H130zm0 25a4 4 0 1 0 0 8h135a4 4 0 1 0 0-8H130zM4 705a4 4 0 0 0-4 4v57a4 4 0 0 0 4 4h94a4 4 0 0 0 4-4v-57a4 4 0 0 0-4-4H4zm633 17a4 4 0 0 0-4 4v2a4 4 0 0 0 4 4h281a4 4 0 0 0 4-4v-2a4 4 0 0 0-4-4H637zm0 25a4 4 0 1 0 0 8h89a4 4 0 1 0 0-8h-89zm-507 63a4 4 0 0 0-4 4v2a4 4 0 0 0 4 4h171a4 4 0 0 0 4-4v-2a4 4 0 0 0-4-4H130zm0 25a4 4 0 1 0 0 8h135a4 4 0 1 0 0-8H130zM4 793a4 4 0 0 0-4 4v57a4 4 0 0 0 4 4h94a4 4 0 0 0 4-4v-57a4 4 0 0 0-4-4H4zm633 17a4 4 0 0 0-4 4v2a4 4 0 0 0 4 4h281a4 4 0 0 0 4-4v-2a4 4 0 0 0-4-4H637zm0 25a4 4 0 1 0 0 8h89a4 4 0 1 0 0-8h-89zm-507 63a4 4 0 0 0-4 4v2a4 4 0 0 0 4 4h171a4 4 0 0 0 4-4v-2a4 4 0 0 0-4-4H130zm0 25a4 4 0 1 0 0 8h135a4 4 0 1 0 0-8H130zM4 881a4 4 0 0 0-4 4v57a4 4 0 0 0 4 4h94a4 4 0 0 0 4-4v-57a4 4 0 0 0-4-4H4zm633 17a4 4 0 0 0-4 4v2a4 4 0 0 0 4 4h281a4 4 0 0 0 4-4v-2a4 4 0 0 0-4-4H637zm0 25a4 4 0 1 0 0 8h89a4 4 0 1 0 0-8h-89zm-507 63a4 4 0 0 0-4 4v2a4 4 0 0 0 4 4h171a4 4 0 0 0 4-4v-2a4 4 0 0 0-4-4H130zm0 25a4 4 0 1 0 0 8h135a4 4 0 1 0 0-8H130zM4 969a4 4 0 0 0-4 4v57a4 4 0 0 0 4 4h94a4 4 0 0 0 4-4v-57a4 4 0 0 0-4-4H4zm633 17a4 4 0 0 0-4 4v2a4 4 0 0 0 4 4h281a4 4 0 0 0 4-4v-2a4 4 0 0 0-4-4H637zm0 25a4 4 0 1 0 0 8h89a4 4 0 1 0 0-8h-89zm-507 63a4 4 0 0 0-4 4v2a4 4 0 0 0 4 4h171a4 4 0 0 0 4-4v-2a4 4 0 0 0-4-4H130zm0 25a4 4 0 1 0 0 8h135a4 4 0 1 0 0-8H130zM4 1057a4 4 0 0 0-4 4v57a4 4 0 0 0 4 4h94a4 4 0 0 0 4-4v-57a4 4 0 0 0-4-4H4zm633 17a4 4 0 0 0-4 4v2a4 4 0 0 0 4 4h281a4 4 0 0 0 4-4v-2a4 4 0 0 0-4-4H637zm0 25a4 4 0 1 0 0 8h89a4 4 0 1 0 0-8h-89zm-507 63a4 4 0 0 0-4 4v2a4 4 0 0 0 4 4h171a4 4 0 0 0 4-4v-2a4 4 0 0 0-4-4H130zm0 25a4 4 0 1 0 0 8h135a4 4 0 1 0 0-8H130zM4 1145a4 4 0 0 0-4 4v57a4 4 0 0 0 4 4h94a4 4 0 0 0 4-4v-57a4 4 0 0 0-4-4H4zm633 17a4 4 0 0 0-4 4v2a4 4 0 0 0 4 4h281a4 4 0 0 0 4-4v-2a4 4 0 0 0-4-4H637zm0 25a4 4 0 1 0 0 8h89a4 4 0 1 0 0-8h-89zm-507 63a4 4 0 0 0-4 4v2a4 4 0 0 0 4 4h171a4 4 0 0 0 4-4v-2a4 4 0 0 0-4-4H130zm0 25a4 4 0 1 0 0 8h135a4 4 0 1 0 0-8H130zM4 1233a4 4 0 0 0-4 4v57a4 4 0 0 0 4 4h94a4 4 0 0 0 4-4v-57a4 4 0 0 0-4-4H4zm633 17a4 4 0 0 0-4 4v2a4 4 0 0 0 4 4h281a4 4 0 0 0 4-4v-2a4 4 0 0 0-4-4H637zm0 25a4 4 0 1 0 0 8h89a4 4 0 1 0 0-8h-89z"/></svg>
